<?xml version="1.0" encoding="utf-8"?>
<!-- Generator: Adobe Illustrator 21.0.2, SVG Export Plug-In . SVG Version: 6.00 Build 0)  -->
<svg version="1.1" id="Layer_1" xmlns="http://www.w3.org/2000/svg" xmlns:xlink="http://www.w3.org/1999/xlink" x="0px" y="0px"
	 viewBox="0 0 976.5 966.2" style="enable-background:new 0 0 976.5 966.2;" xml:space="preserve">
<style type="text/css">
	.st0{fill:none;stroke:#000000;stroke-width:6;stroke-linecap:round;stroke-miterlimit:10;}
	.st1{fill:none;stroke:#000000;stroke-width:6;stroke-linecap:round;stroke-miterlimit:10;stroke-dasharray:12.13,18.2;}
	.st2{fill:none;stroke:#000000;stroke-width:6;stroke-linecap:round;stroke-miterlimit:10;stroke-dasharray:11.55,17.32;}
	.st3{fill:none;stroke:#000000;stroke-width:6;stroke-linecap:round;stroke-miterlimit:10;stroke-dasharray:11.23,16.84;}
	.st4{fill:#CCCCCC;}
	.st5{fill:#2D2D2D;}
	.st6{fill:none;stroke:#CCCCCC;stroke-width:20;stroke-linecap:round;stroke-linejoin:round;}
	.st7{fill:#010000;}
</style>
<g>
	<line class="st0" x1="840" y1="898.3" x2="837" y2="893.1"/>
	<line class="st0" x1="559.9" y1="741.3" x2="565.9" y2="740.8"/>
	<line class="st1" x1="584" y1="739.5" x2="726.2" y2="728.7"/>
	<polyline class="st0" points="735.3,728 741.3,727.6 744.9,722.8 	"/>
	<line class="st2" x1="755.3" y1="708.9" x2="853.9" y2="577.2"/>
	<line class="st0" x1="859.1" y1="570.3" x2="862.7" y2="565.5"/>
	<line class="st3" x1="828.6" y1="878.5" x2="748.5" y2="740.1"/>
	<line class="st0" x1="744.3" y1="732.8" x2="741.3" y2="727.6"/>
	<path d="M642.4,582.7c1.7-6.9,8.8-11.2,15.7-9.4c6.9,1.7,11.2,8.8,9.4,15.7c-1.7,6.9-8.8,11.2-15.7,9.4c0,0,0,0,0,0
		C644.9,596.7,640.7,589.6,642.4,582.7"/>
	<path d="M650.6,626.3c0.3-0.5,0.9-0.7,1.3-0.4c0.5,0.3,0.7,0.9,0.4,1.3c-0.3,0.5-0.8,0.7-1.3,0.4
		C650.6,627.5,650.4,626.9,650.6,626.3C650.6,626.4,650.6,626.4,650.6,626.3"/>
	<path d="M666.4,642.8c0.3-0.5,0.9-0.7,1.4-0.4c0.5,0.3,0.7,0.9,0.4,1.4c-0.3,0.5-0.9,0.7-1.4,0.4c0,0,0,0-0.1,0
		C666.3,643.8,666.2,643.3,666.4,642.8"/>
	<path d="M632.6,668.8c0.5-0.2,0.8-0.7,0.7-1.3s-0.7-0.8-1.3-0.7c-0.3,0.1-0.5,0.3-0.6,0.5l-0.1,0.6c0,0,0,0.1,0,0.1
		C631.4,668.7,632,669,632.6,668.8C632.5,668.8,632.5,668.8,632.6,668.8"/>
	<path d="M659,633.6c0.4-0.3,1.1-0.3,1.4,0.2c0.3,0.4,0.3,1.1-0.2,1.4c-0.4,0.3-1.1,0.3-1.4-0.2c0,0,0,0,0,0
		C658.5,634.5,658.6,633.9,659,633.6"/>
	<path d="M664.3,625c0.5-0.3,1.1-0.1,1.4,0.4c0.3,0.5,0.1,1.1-0.4,1.4c-0.5,0.3-1.1,0.1-1.4-0.3C663.7,625.9,663.8,625.3,664.3,625
		C664.3,625,664.3,625,664.3,625"/>
	<path d="M648.2,643.5c0.3-1,1.3-1.6,2.3-1.3s1.6,1.3,1.3,2.3c-0.3,1-1.3,1.6-2.3,1.3C648.5,645.6,647.9,644.5,648.2,643.5
		C648.2,643.5,648.2,643.5,648.2,643.5"/>
	<path d="M676,669.2L676,669.2l-0.2-0.1L676,669.2"/>
	<path d="M638,625.3L638,625.3l0.5,0.2C638.3,625.5,638.1,625.4,638,625.3"/>
	<path d="M638.9,619.1l-0.5,3.1c1.6-0.5,3.5,0.1,2,2.9c3-5.5,6.1,5,0.6,2c5.5,3-5,6.1-2,0.6c-0.6,1.1-1.1,1.5-1.7,1.6l-0.9,5.7
		c2.2,0.7,3.8,2.8,0,4.9c7.8-4.4,3.6,10.7-0.8,2.9c1.7,3,0.5,4.2-1.1,4.4l-2.8,17.5c1-0.1,2,0.5,1,2.3c2.3-4.2,4.6,3.8,0.5,1.5
		c4.2,2.3-3.8,4.6-1.5,0.4c-0.2,0.4-0.4,0.7-0.7,1l-1.7,10.6c0.1,0.8,0.2,1.6,0.2,2.5c0.2-14.6,17.9,3.7,3.4,3.5
		c14.6,0.2-3.7,17.9-3.5,3.4c-0.1,3.4-1.1,5-2.4,5.5l-0.7,4.2c0,0,2.6,3.2,13.3,4.9l0,2.3c-0.1,3.4,2.7,6.2,6.1,6.3
		c3.4,0.1,6.2-2.7,6.3-6.1l0-1.5l2,0l0,1.5c-0.1,3.4,2.7,6.2,6.1,6.3c3.4,0.1,6.2-2.7,6.3-6.1l0-2.3c10.7-1.4,13.4-4.5,13.4-4.5
		l-0.7-5.7c-1.4,0.1-2.6-0.9-2.5-4.1c-0.2,10.5-13-2.7-2.4-2.5c-10.5-0.2,2.7-13,2.5-2.4c-0.1-1.2,0.2-2.4,0.9-3.4l-1.3-10.6
		c-1.2,0.7-3.3,0.4-2-2c-2.3,4.2-4.6-3.8-0.4-1.5c-3.2-1.7,0.7-3.5,1.7-2.4l-1.3-10.4c-1,0.1-1.9-0.5-1-2.3
		c-2.3,4.2-4.6-3.8-0.4-1.5c-2.4-1.3-0.8-2.6,0.6-2.8l-1.8-15c-0.7,1.9-5.4-1-1.6-2.3c-4.5,1.5-0.8-5.9,0.7-1.4
		c-0.4-1.1-0.2-1.7,0.2-2l-1-8.4c-10.1-2.6-20.7-2.8-30.9-0.5 M658.5,663.5c-10.2-2.2,5.1-12.1,2.9-1.9c1.1-5.2,4.2-3.8,5.7-1.5
		c0.9,1.5,1.2,3.3-0.1,4.1c-0.7,0.5-1.9,0.6-3.7,0.3c10.2,2.2-5.1,12.1-2.9,1.9c-1.1,5.3-4.4,3.7-5.8,1.3c-0.8-1.4-1-3,0.1-3.9
		C655.4,663.3,656.6,663.1,658.5,663.5 M654.5,676.3c2,0.7,3.4,2.7-0.1,4.8l-0.1,0.1l0.1-0.1c7.1-3.9,4,8.8-0.1,4.2
		c-0.3-0.4-0.6-0.8-0.9-1.3c1.7,3,0.5,4.3-1.2,4.4c-2.7,0.1-6.4-2.5-1.6-5.1c-7.8,4.4-3.6-10.7,0.8-2.9c-1.7-2.9-0.6-4.2,1.1-4.4
		C653.2,675.9,653.9,676,654.5,676.3 M642.2,696.4c-4.5,1.5-0.8-5.9,0.7-1.4c-1.5-4.5,5.9-0.8,1.4,0.7c4.5-1.5,0.8,5.9-0.7,1.4
		C645.1,701.7,637.6,697.9,642.2,696.4 M637.2,657.9c1.1,4.4-5.7,0.4-1.3-0.8c-4.4,1.1-0.4-5.7,0.8-1.3c-1.1-4.4,5.7-0.4,1.3,0.8
		C642.4,655.4,638.4,662.3,637.2,657.9 M640.3,666.1c0.8-0.2,1.6,0,2.2,0.5c-5.5-3,5-6.1,2-0.6c3-5.5,6.1,5,0.6,2c5.5,3-5,6.1-2,0.6
		c-1,2-2.2,1.9-2.9,1.1C639.3,668.6,639,666.5,640.3,666.1 M652,700.1c-0.8-0.5-1.1-1.4,0-2.1c0.2-0.1,0.5-0.2,0.7-0.3
		c-0.2,0.1-0.5,0.1-0.7,0.2c-2.4,0.3-1.3-3,0.1-3.1c0.5-0.1,1,0.3,1.4,1.5c-0.5-1.5,0-2.1,0.7-2.1c1.4-0.2,3.8,1.9,0.7,2.9
		c4.5-1.5,0.8,5.9-0.7,1.4c0.4,1,0.2,1.7-0.1,1.9C653.4,700.7,652.6,700.6,652,700.1 M666.5,697c-1.2,1-2.9,1.2-2.9-1.8
		c-0.1,6.3-7.7-1.6-1.5-1.5c-6.3-0.1,1.6-7.7,1.5-1.5c0-3,1.8-2.8,2.9-1.7c1.2,1,1.6,2.5-0.1,3.1c-0.5,0.1-1,0.2-1.4,0.2
		c0.5,0,1,0.1,1.4,0.2C668.1,694.5,667.5,696.1,666.5,697 M668.3,642.9c4.4-1.1,0.4,5.7-0.8,1.3c1.1,4.4-5.7,0.4-1.3-0.8
		c-4.4,1.1-0.4-5.7,0.8-1.3C665.8,637.7,672.7,641.7,668.3,642.9 M663.8,625.5c-4.6-1.1,2.5-5.4,1.4-0.8c1.1-4.6,5.4,2.5,0.8,1.4
		c4.6,1.1-2.5,5.4-1.4,0.8C663.4,631.5,659.1,624.3,663.8,625.5 M659.7,633.2c0.6-4.5,5.4,1.9,0.9,1.2c4.5,0.6-1.9,5.4-1.2,0.9
		c-0.6,4.5-5.4-1.9-0.9-1.2C654,633.4,660.3,628.7,659.7,633.2 M651,645.7c4.4,7.8-10.7,3.6-2.9-0.8c-7.8,4.4-3.6-10.7,0.8-2.9
		c-4.4-7.8,10.7-3.6,2.9,0.8C659.6,638.4,655.4,653.5,651,645.7 M651.9,627.7c1.5,4.5-5.9,0.8-1.4-0.7c-4.5,1.5-0.8-5.9,0.7-1.4
		c-1.5-4.5,5.9-0.8,1.4,0.7C657.1,624.8,653.4,632.2,651.9,627.7"/>
	<path d="M631.6,688.5c1.2-1.2,1.2-3.1,0-4.4c-0.7-0.7-1.8-1.1-2.8-0.9L628,689C629.2,689.6,630.6,689.4,631.6,688.5"/>
	<path d="M636.4,641.4c0.2-0.7-0.1-1.5-0.7-2l-0.5,3.3C635.8,642.5,636.3,642,636.4,641.4"/>
	<path d="M675,686.4c-0.9,0.8-1,2.2-0.2,3.1c0.8,0.9,2.2,1,3.1,0.2c0.1,0,0.1-0.1,0.2-0.1c0.1-0.1,0.2-0.2,0.3-0.3l-0.4-2.9
		C677.2,685.5,675.9,685.6,675,686.4"/>
	<path d="M675.7,667l0-0.2c-0.1,0.3-0.2,0.5-0.3,0.8C675.5,667.4,675.6,667.2,675.7,667"/>
	<path d="M674.5,667.6c0.5-0.1,1.1,0.2,1.2,0.7c0.1,0.5-0.2,1.1-0.7,1.2c-0.5,0.1-1.1-0.2-1.2-0.7
		C673.7,668.3,674,667.8,674.5,667.6C674.5,667.6,674.5,667.6,674.5,667.6"/>
	<path d="M639.3,625c0.7-0.2,1.4,0.2,1.7,0.9c0.2,0.7-0.2,1.4-0.9,1.7c-0.7,0.2-1.4-0.2-1.7-0.9C638.2,626,638.6,625.3,639.3,625
		C639.3,625,639.3,625,639.3,625"/>
	<path d="M672.9,652.2c0.1,0.5,0.6,0.8,1.1,0.7l-0.2-2l-0.2,0C673,651,672.7,651.6,672.9,652.2C672.9,652.1,672.9,652.1,672.9,652.2
		"/>
	<path d="M670.2,630.6c-0.3,0.5-0.1,1.1,0.4,1.3c0,0,0,0,0,0c0.2,0.1,0.5,0.1,0.7,0.1l-0.2-2C670.8,630,670.4,630.2,670.2,630.6"/>
	<path d="M636.1,656.5c0.3-0.5,0.9-0.7,1.4-0.4c0.5,0.3,0.7,0.9,0.4,1.4c-0.3,0.5-0.9,0.7-1.4,0.4c0,0,0,0-0.1,0
		C636,657.5,635.8,656.9,636.1,656.5"/>
	<path d="M650.6,681.8c-0.3,1,0.3,2.1,1.3,2.3c1,0.3,2.1-0.3,2.3-1.3c0.3-1-0.3-2-1.3-2.3c-0.2,0-0.4,0-0.6,0
		C651.5,680.5,650.8,681,650.6,681.8"/>
	<path d="M642.3,695.7c0.3-0.5,0.9-0.7,1.3-0.4s0.7,0.9,0.4,1.3c-0.3,0.5-0.8,0.7-1.3,0.4C642.3,696.8,642.1,696.2,642.3,695.7
		C642.3,695.7,642.3,695.7,642.3,695.7"/>
	<path d="M643.4,666.1c0.7-0.2,1.4,0.2,1.7,0.9s-0.2,1.4-0.9,1.7c-0.7,0.2-1.4-0.2-1.7-0.9C642.3,667,642.7,666.3,643.4,666.1
		C643.4,666.1,643.4,666.1,643.4,666.1"/>
	<path d="M654.8,697.9c0.3-0.5,0.1-1.1-0.4-1.3c0,0,0,0,0,0l-0.2-0.1c-0.5-0.2-1.1,0.1-1.3,0.6c-0.2,0.5,0.1,1.1,0.6,1.3
		C653.9,698.6,654.5,698.4,654.8,697.9C654.8,697.9,654.8,697.9,654.8,697.9"/>
	<path d="M662.7,692.9c0.5-0.5,1.4-0.5,1.9,0c0.5,0.5,0.5,1.4,0,1.9c-0.5,0.5-1.4,0.5-1.9,0c0,0,0,0,0,0
		C662.2,694.2,662.2,693.4,662.7,692.9"/>
	<path d="M662.1,666c1-0.7,1.3-2,0.7-3.1c-0.7-1-2-1.3-3.1-0.7s-1.3,2-0.7,3.1c0,0,0,0,0,0C659.7,666.4,661.1,666.7,662.1,666
		C662.1,666,662.1,666,662.1,666"/>
	<path d="M689.7,649.5c-1.1-6.5-2.8-12.8-4.9-19c-0.9-2.5-1.9-4.9-3-7.2c-0.7-1.6-1.5-3.1-2.4-4.6c-2.5-4.6-5.9-8.6-10.1-11.9
		c-8.7-6.7-20.6-6.9-29.5-0.5c-5.5,3.9-9.7,9.7-13,16.1c-0.4,0.9-0.9,1.8-1.3,2.6c-0.7,1.5-1.3,3-1.9,4.5
		c-2.4,6.1-4.2,12.4-5.6,18.9c-0.5,2.2,0.9,4.3,3.1,4.8c2.2,0.5,4.3-0.9,4.8-3.1c0.7-3.1,1.5-6.4,2.4-9.6c0.2-0.8,0.5-1.7,0.8-2.5
		c1.7-5.6,4.1-10.9,7.1-15.9c0.6-0.9,1.2-1.8,1.8-2.6c0.4-0.5,0.7-1,1.1-1.5c0.2-0.3,0.5-0.6,0.7-0.9c4.8-1,9.7-1.4,14.6-1.3
		c4.9,0.1,9.8,0.7,14.5,1.8c0.2,0.3,0.5,0.6,0.7,0.9c0.4,0.5,0.7,1,1.1,1.5c1.9,2.9,3.5,5.9,4.8,9.1c2.8,7.1,4.9,14.4,6.2,21.9
		c0.4,2.2,2.5,3.6,4.7,3.2C688.6,653.8,690.1,651.7,689.7,649.5L689.7,649.5L689.7,649.5z"/>
	<path d="M684.6,600.4c6.6,9.1,0.3,20.8-2,30.6c-2.2,9.3-1.4,18.2,4.6,25.4c-0.5,2,0.7,4.1,2.7,4.6c0.3,0.1,0.6,0.1,0.9,0.1
		c0.8,0,1.5-0.2,2.2-0.6l8.5-5.7l-0.9,52.8c0,2.8,2.2,5,4.9,5.1c2.8,0,5-2.2,5.1-4.9l0.4-25.7l1.9,0l-0.4,25.8
		c0,2.8,2.2,5.1,4.9,5.1c2.8,0,5.1-2.2,5.1-4.9l0.9-53c1.9,3,4.4,9.3,4.9,21.4c0.1,2,1.7,3.6,3.7,3.6l0.2,0c2.1-0.1,3.7-1.8,3.6-3.9
		c0,0,0,0,0,0c-0.5-13.6-3.3-21.3-6.5-25.9s-6.7-5.6-7.5-5.7l0,0c-0.3,0-0.6,0-0.9,0c-0.1,0-0.3,0-0.4,0l-15.6-0.3
		c-0.8,0-1.5,0.3-2.1,0.8c-0.1,0.1-0.3,0.1-0.4,0.2l-13.4,9c-0.4,0.3-0.8,0.7-1.1,1.2c-7-9-5.2-19.7-2-30.5
		c2.4-8.2,5.2-17.2,0.2-24.5c6.3-0.6,11.5-11.6,11.6-20.5c0.2-9.2-5.1-14.5-11.7-14.6s-12,5.1-12.2,14.2c-0.1,8.9,4.7,20,10.9,20.9"
		/>
	<path d="M723.9,630.7c-0.1,6.1-5.1,10.9-11.2,10.8s-10.9-5.1-10.8-11.2c0.1-6.1,5.1-10.9,11.2-10.8
		C719.1,619.7,724,624.7,723.9,630.7"/>
	<path d="M792.2,579.2c-1.3-0.3-2.5,0.2-3.4,1.2c0.1-0.4,0.3-0.9,0.4-1.3c0.5-2.3,0.4-4.7-0.1-7c5-2,5.2-12.6,5.2-12.6
		c-1.1,5.4-8,6.8-8,6.8l0,0.1c-4.7-6.1-13.1-7.8-19.8-4.2l0.1-0.1c0,0-5.7-4-4.6-9.4c0,0-4.2,9.8-0.3,13.6c-1.4,1.9-2.5,4-2.9,6.4
		c-0.1,0.5-0.2,0.9-0.2,1.4c-0.5-1.8-2.4-2.9-4.3-2.4c-1.8,0.5-2.9,2.4-2.4,4.3c0.5,1.8,2.4,2.9,4.3,2.4c1-0.3,1.9-1.1,2.3-2.1
		c0.1,4.6,2.2,8.8,5.7,11.7c-0.4-0.1-0.8-0.3-1.3-0.4c-2.9-0.6-5.4,0-5.7,1.4s1.8,3,4.6,3.6c2.9,0.6,5.4,0,5.7-1.4
		c0.1-0.4-0.1-0.9-0.3-1.3c2.8,1.4,6.1,1.9,9.2,1.4c-0.9,0.3-1.5,0.7-1.7,1.4c-0.3,1.4,1.8,3,4.6,3.6c2.9,0.6,5.4,0,5.7-1.4
		c0.3-1.4-1.8-3-4.6-3.6c-1-0.2-2-0.3-2.9-0.2c4.7-1.1,8.7-4.2,10.7-8.6c-0.1,1.9,1.4,3.5,3.3,3.6c1.9,0.1,3.5-1.4,3.6-3.3
		C795.1,581,793.9,579.5,792.2,579.2L792.2,579.2z M776.6,563.2c4,0.7,6.7,4.5,6,8.5c-0.7,4-4.4,6.6-8.4,6c1.7,0.1,3.1-1.2,3.2-2.8
		s-1.2-3.1-2.8-3.2c-1.7-0.1-3.1,1.2-3.2,2.8c-0.1,1.5,0.9,2.8,2.3,3.1l-0.1,0c-4-0.9-6.4-4.9-5.5-8.8
		C768.9,565,772.7,562.5,776.6,563.2L776.6,563.2z M763.5,576.4c0,0,6.5,13.6,20.7,4.3C784.2,580.8,769.5,601.1,763.5,576.4
		L763.5,576.4z"/>
	<path class="st4" d="M772.4,611.1c-21-0.3-37.8-16.8-37.5-36.6s17.7-35.6,38.7-35.3c21,0.3,37.8,16.7,37.5,36.5
		C810.8,595.5,793.4,611.4,772.4,611.1z M773.5,542.3c-19.3-0.3-35.3,14.1-35.6,32.3c-0.3,18.1,15.2,33.1,34.5,33.4
		c19.3,0.3,35.3-14.1,35.6-32.3S792.9,542.6,773.5,542.3L773.5,542.3z"/>
	<path class="st4" d="M738.6,616.4c-3.6-0.2-6.3-3.3-6-6.9c0.2-3.6,3.3-6.3,6.9-6c3.4,0.2,6.1,3.1,6,6.6
		C745.3,613.7,742.2,616.5,738.6,616.4z M738.7,605.8c-2.3,0.1-4.1,2.1-3.9,4.4c0.1,2.3,2.1,4.1,4.4,3.9c2.2-0.1,3.9-1.9,3.9-4.1
		C743.1,607.6,741.1,605.7,738.7,605.8z"/>
	<path class="st4" d="M723.2,617.4c-2.1-0.1-3.7-2-3.5-4.1s2-3.7,4.1-3.5c2,0.1,3.6,1.8,3.6,3.9
		C727.2,615.8,725.3,617.5,723.2,617.4C723.2,617.4,723.2,617.4,723.2,617.4z M723.3,612.1c-0.8,0.1-1.5,0.8-1.4,1.6
		c0.1,0.8,0.8,1.5,1.6,1.4c0.8-0.1,1.4-0.7,1.4-1.5C724.9,612.7,724.1,612,723.3,612.1L723.3,612.1z"/>
	<path d="M717.2,823.2c3.2-2.2,5.8-5.2,7.5-8.7l-16.9-0.3C710.1,818,713.3,821.1,717.2,823.2"/>
	<path d="M700.6,853.7l-0.9,52.2c0.2,3.6,3.3,6.3,6.9,6.1c3.2-0.2,5.8-2.7,6.1-5.9l0.8-47.6l2.4,0l-0.8,47.6
		c0.2,3.6,3.3,6.3,6.9,6.1c3.2-0.2,5.8-2.7,6.1-5.9l1.3-79c0.3,0.7,0.6,1.5,0.9,2.3c1.4,4.1,2.5,10.9,2.4,21.5
		c0,2.9-0.2,6.1-0.5,9.6c-0.2,2.3,1.6,4.3,3.9,4.5c0,0,0,0,0,0l0.2,0c2.2,0,4.1-1.7,4.3-3.9c0.3-3.6,0.4-7,0.5-10.1
		c0.3-15.9-2.1-24.8-5.5-30.1c-1.3-2.2-3.3-4.1-5.5-5.3c-1-0.5-2.1-0.9-3.2-1.1c-0.4-0.1-0.8-0.2-1.2-0.2c-1.8,4-4.7,7.3-8.3,9.7
		c0,0-0.6,0.5-1.6,1.4c-1.3,1.1-2.5,2.4-3.7,3.7c-2.7,3.1-5.3,7.3-5.4,11.7c0,0.8,0.1,1.6,0.2,2.4l3.3-0.9c0.6-0.2,1.1,0.2,1.3,0.7
		l3.5,12.2c0.2,0.6-0.2,1.1-0.7,1.3l-8.1,2.3c-0.6,0.2-1.1-0.2-1.3-0.7c0,0,0,0,0,0l-0.9-3l0.4,0c2.3,0,4.2-1.8,4.3-4.2
		c0-1.7-0.9-3.2-2.5-3.9c-1.5-0.7-2.9-1.5-4.3-2.4c0.1,0,0.1-0.1,0.2-0.1l3.8-1.1c-0.2-0.9-0.3-1.8-0.3-2.7
		c0.1-8.2,8.1-15.1,10.5-17c-4.1-2.3-7.4-5.6-9.8-9.7l-1.2,0c-0.2,0-0.3,0-0.5,0l-0.2,0c-0.7,0-1.3,0.1-1.9,0.3
		c-0.8,0.3-1.5,0.7-2.2,1.2c-2.9,2.1-5.4,4.7-7.4,7.7c-2.7,3.8-4.3,8.2-4.5,12.9c-0.1,3.7,1.1,7.4,3.3,10.3
		C694.2,849.6,697.2,852,700.6,853.7 M701,826.9l-0.3,16.9c-0.8-0.6-1.5-1.4-2.1-2.2c-1.1-1.5-1.7-3.3-1.7-5.2
		C697,833.4,698.8,829.7,701,826.9"/>
	<path d="M706.8,812.5c-1.6-3.2-2.5-6.7-2.6-10.3c1.5,6.4,8,10.3,14.3,8.7c4.2-1,7.6-4.3,8.7-8.5c0,0.2,0,0.4,0,0.6
		c0,3.4-0.7,6.7-1.9,9.9c-0.2,0.5-0.4,1.1-0.7,1.6l1.2,0c0.2-0.5,0.5-1.1,0.7-1.6c1.1-3.2,1.8-6.5,1.8-9.9c0-0.8,0-1.5,0-2
		c0.7-0.4,1-1.3,0.6-2c-0.3-0.5-0.8-0.8-1.3-0.8l0,0c-0.7-6.5-6.6-11.2-13.1-10.4c-5.3,0.6-9.6,4.7-10.4,10.1
		c-0.8-0.2-1.6,0.3-1.8,1.1c-0.2,0.7,0.2,1.5,0.9,1.8c0,0.1,0,0.2,0,0.4c0,4,0.8,7.9,2.5,11.5c0.3,0.6,0.5,1.1,0.9,1.7l1.2,0
		C707.4,813.6,707.1,813.1,706.8,812.5"/>
	<path d="M747.2,799.1L747.2,799.1l-5.8-3.6c-0.4-0.4-1-0.4-1.4,0c-0.2,0.2-0.4,0.6-0.3,0.9l-0.4,8.2c-0.2,0-0.4-0.1-0.6-0.1
		c-0.7,0-1.4,0.2-2,0.5c-1.8,0.9-2.7,2.6-2.1,3.9s2.6,1.6,4.3,0.8c1.2-0.5,2.1-1.7,2.2-3l0,0l0.3-5.6c0-1,0.8-1.4,1.7-0.8l2.1,1.4
		c0.9,0.7,1.5,1.8,1.5,2.9l-0.2,4.3c-0.2,0-0.4-0.1-0.6-0.1c-0.7,0-1.4,0.2-2,0.5c-1.8,0.9-2.7,2.6-2.1,3.9c0.6,1.3,2.6,1.6,4.3,0.8
		c1.3-0.5,2.1-1.7,2.2-3l0,0l0.5-8.8C748.6,800.9,748.1,799.8,747.2,799.1"/>
	<path d="M654.9,781.9C654.9,781.8,654.9,781.8,654.9,781.9c-0.1-0.9-0.6-1.7-1.3-2.3l0.5-5.1c0-0.1,0-0.1,0-0.2
		c-0.9-3.4-3.2-5.7-7.7-7.4c0-0.5-0.3-0.9-0.7-1.1c-1.2-0.7-9.3-1.5-10.7-1c-0.4,0.2-0.7,0.5-0.8,1c-4.7,0.8-7.3,2.4-8.9,5.8
		c0,0.1,0,0.1,0,0.2l-0.5,5.1c-0.8,0.4-1.4,1.2-1.7,2l0,0c0,0.3-0.5,6.5-0.2,8c0.2,0.8,0.6,1.6,1.3,2.2c0,1.7,0,9.8,0.4,11.3
		c0.4,1.7,5.1,8.3,5.6,9.1c0.1,0.1,0.2,0.2,0.4,0.2l11.8,1.1c0.1,0,0.3,0,0.4-0.1c0.2-0.2,5.7-5.7,6.7-7.3c0.9-1.3,2.3-9.7,2.6-11.5
		c0.8-0.4,1.4-1.1,1.7-2C654.3,787.2,654.7,784.5,654.9,781.9z M627.2,771.5c1.3-2,3.8-3.6,6.9-4.2l0.1,8.8c-0.1,0.8,0.3,2,1.3,2.1
		l7.3,0.7c0.9,0.1,1.6-1,1.6-1.8l1.7-8.6c3,1.2,5.1,3.2,6,5.5l-1.6,11.6c0,0.1,0,0.1,0,0.2c0.3,1.7,0.3,3.5,0,5.3l0,0
		c-0.3,1.4-1,2.6-1.8,3.8c-1.6,2.3-2.8,4.7-3.6,7.4l-2.1,1.4l-1-1.3c-0.1-0.1-0.2-0.2-0.3-0.2l-8.8-0.8c-0.1,0-0.3,0-0.4,0.1l-1.3,1
		l-1.8-1.8c-0.3-2.8-1.2-5.5-2.5-8c-0.7-1.6-1.3-2.8-1.3-3.9c0-1.8,0.4-3.5,1-5.2c0-0.1,0-0.1,0-0.2L627.2,771.5z M641.4,806.4
		c-0.1-0.1-0.2-0.1-0.3-0.1l-2-0.2l0-0.5c0-0.3-0.2-0.5-0.4-0.5c0,0,0,0,0,0l-3.9-0.4c-0.3,0-0.5,0.2-0.5,0.4c0,0,0,0,0,0l0,0.5
		l-2-0.2c-0.1,0-0.2,0-0.3,0.1l-1.7,1l-1.8-2.6l0.4-1.4l1.7,1.6c0.2,0.2,0.5,0.2,0.7,0l1.5-1.2l8.4,0.8l1.2,1.5
		c0.2,0.2,0.4,0.2,0.6,0.1l2-1.3l0.1,1.5l-2.2,2.2L641.4,806.4z"/>
	<path d="M633.2,789c0.7,0.1,1.4,0.1,2.1,0c0.1,0,0.3-0.1,0.3-0.3l1-2.3c1,0.1,2.4,0.3,3.4,0.3l0.6,2.4c0,0.2,0.2,0.3,0.4,0.4
		c0.2,0.1,5.9,1.3,8.9-0.6c0.2-0.1,0.3-0.3,0.2-0.5l-0.8-3.3c-0.1-0.2-0.3-0.4-0.5-0.4c-6.8,0.6-13.6,0-20.1-1.9
		c-0.2-0.1-0.5,0.1-0.6,0.3l-1.4,3c-0.1,0.2,0,0.4,0.1,0.6C628.1,788.2,631.2,788.7,633.2,789z M629.3,784.9c1.8,0.6,3.6,1,5.4,1.3
		l-0.4,0.9c-0.9,0.1-3.7,0.2-5.5-1.2L629.3,784.9L629.3,784.9z M642.2,787.9l-0.3-0.9c1.8,0.1,3.7,0,5.5-0.3l0.1,0l0.3,1.1
		C645.8,788.7,643.1,788.1,642.2,787.9L642.2,787.9z"/>
	<path class="st4" d="M638.9,821.9c-20-0.3-35.9-15.9-35.6-34.7c0.3-18.8,16.8-33.8,36.8-33.5c20,0.3,35.9,15.9,35.6,34.7
		C675.3,807.2,658.8,822.2,638.9,821.9z M640,756.6c-18.3-0.3-33.5,13.4-33.8,30.6c-0.3,17.2,14.4,31.4,32.7,31.7
		c18.3,0.3,33.5-13.4,33.8-30.6S658.3,756.9,640,756.6L640,756.6z"/>
	<path class="st4" d="M686.8,788.7c-3.6-0.2-6.3-3.3-6-6.9c0.2-3.6,3.3-6.3,6.9-6c3.4,0.2,6.1,3.1,6,6.6
		C693.6,786,690.5,788.8,686.8,788.7z M687,778c-2.3,0.1-4.1,2.1-3.9,4.4c0.1,2.3,2.1,4.1,4.4,3.9c2.2-0.1,3.9-1.9,3.9-4.1
		C691.4,779.9,689.4,778,687,778L687,778z"/>
	<path class="st4" d="M698.3,795.4c-2.1-0.1-3.7-2-3.5-4.1s2-3.7,4.1-3.5c2,0.1,3.6,1.8,3.6,3.9
		C702.3,793.8,700.5,795.5,698.3,795.4C698.3,795.4,698.3,795.4,698.3,795.4z M698.4,790.1c-0.8,0.1-1.5,0.8-1.4,1.6
		c0.1,0.8,0.8,1.5,1.6,1.4c0.8-0.1,1.4-0.7,1.4-1.5C700,790.8,699.3,790.1,698.4,790.1L698.4,790.1z"/>
	<path class="st4" d="M887.5,680c-19.2-0.3-34.6-15.3-34.3-33.4s16.2-32.6,35.4-32.3c19.2,0.3,34.6,15.3,34.3,33.4
		S906.7,680.3,887.5,680z M888.5,617.1c-17.7-0.3-32.2,12.9-32.5,29.5s13.9,30.2,31.5,30.5c17.6,0.3,32.2-12.9,32.5-29.5
		S906.2,617.4,888.5,617.1L888.5,617.1z"/>
	<path class="st4" d="M865.2,693.3c-3.6-0.2-6.3-3.3-6-6.9c0.2-3.6,3.3-6.3,6.9-6c3.4,0.2,6.1,3.1,6,6.6
		C872,690.6,868.9,693.5,865.2,693.3z M865.4,682.7c-2.3,0.1-4.1,2.1-3.9,4.4c0.1,2.3,2.1,4.1,4.4,3.9c2.2-0.1,3.9-1.9,3.9-4.1
		C869.8,684.5,867.8,682.6,865.4,682.7C865.4,682.6,865.4,682.6,865.4,682.7L865.4,682.7z"/>
	<path class="st4" d="M852.5,699.1c-2.1-0.1-3.7-2-3.5-4.1c0.1-2.1,2-3.7,4.1-3.5c2,0.1,3.6,1.8,3.6,3.9
		C856.5,697.5,854.6,699.1,852.5,699.1C852.5,699.1,852.5,699.1,852.5,699.1z M852.6,693.7c-0.8,0.1-1.5,0.8-1.4,1.6
		c0.1,0.8,0.8,1.5,1.6,1.4c0.8-0.1,1.4-0.7,1.4-1.5C854.2,694.4,853.4,693.7,852.6,693.7L852.6,693.7z"/>
	<path class="st5" d="M871.4,727.1c-1.7-6.6-3-11.6-3.3-12.4c-2.4-6-8.3-6.1-11.1-5.2s-3.7,3.9-5.8,5.6c-0.4,0.3-0.8,0.5-1.3,0.6
		c1-8-4.7-15.2-12.7-16.2c-8-1-15.2,4.7-16.2,12.7c-1,8,4.7,15.2,12.7,16.2c6.9,0.8,13.4-3.3,15.6-9.9c3.3-1.3,6-3.7,7.6-4.7
		c1.7-1.2,4.1-0.7,5.2,1c0.1,0.2,0.2,0.3,0.3,0.5c0.3,0.5,1.9,6.5,3.9,14.4l0.3-0.4C867.9,727.9,869.6,727.1,871.4,727.1"/>
	<path class="st5" d="M842.2,737.6l-0.4-0.2l0,0c-2.5-1.5-5.6-0.7-7.1,1.8c-1,1.7-1,3.9,0.2,5.6c0.4,0.6,1,1.1,1.6,1.5
		c4,2.2,8.5,3.3,13.1,3.4l0,0l0.7,0c1.6,0,3.3-0.2,4.9-0.5c2.3-0.4,4.6-1.1,6.8-2.1c2.7-1.2,5.2-2.7,7.5-4.6
		c1.6-1.3,3.2-2.8,4.6-4.3c0.4-0.4,0.8-0.8,1.2-1.3c1.9-2.2,1.7-5.4-0.5-7.3c-2.2-1.9-5.4-1.7-7.3,0.5c-0.3,0.4-0.6,0.7-0.9,1
		c-2.5,2.7-5.5,4.9-8.8,6.5c-2.5,1.1-5.3,1.7-8,1.7c-0.4,0-0.8,0-1.1,0c-1.7-0.1-3.3-0.5-4.9-1C843.3,738.1,842.7,737.9,842.2,737.6
		"/>
	<path class="st5" d="M894.2,744l-10.9-7.6c-0.6-0.5-1.6-0.4-2.1,0.2c-0.5,0.6-0.4,1.6,0.2,2.1l0,0c0.8,3.8-0.2,12-0.2,14.2
		c0,2.4,1.8,9.5,0.4,9.9c-0.4,0.1-1.3-2.5-2.5-6.6c1.8-2.2,1.5-5.5-0.8-7.3c-0.5-0.4-1-0.7-1.5-0.8c-0.7-2.7-1.5-5.5-2.2-8.3
		c-1.5,1.5-3,2.9-4.7,4.2l1.3,5c-2.9,1.1-5.9,1.7-9,1.7c-1.5,0-3-0.2-4.5-0.6c-2.4,0.6-4.8,0.9-7.2,1l-0.9,0l0,0
		c-4.4-0.1-8.8-1.1-12.7-3c-0.4-0.2-0.7-0.3-0.9-0.5l0,0l-0.1,0c-3.1-1.7-4.3-5.7-2.6-8.8c1.7-3.1,5.7-4.3,8.8-2.6
		c0.1,0.1,0.2,0.1,0.4,0.2l0.2,0.1c0.5,0.2,1,0.4,1.5,0.6c1.3,0.4,2.6,0.7,3.9,0.9c-1.9-4.2-5.4-7.3-9.4-6.9
		c-5.7,0.5-12.3,6-12.3,16c0.1,13.8,2,22.1,8.3,35.1c2.7,4.7,5.9,6.6,9.1,7.2c0.8,4.7,1.1,9.5,1,14.3c-0.1,8.8-1.5,20.6-5.5,35.5
		c-1.2,4.3,1.4,8.8,5.7,9.9c0.7,0.2,1.3,0.3,2,0.3c3.7,0.1,7-2.4,7.9-6c4.3-16.1,5.9-29.2,6.1-39.4c0.2-7.4-0.5-14.9-2.2-22.1
		c-0.2-1.9-0.8-3.8-1.6-5.6c-2.6-5.5-4.4-11.2-5.3-17.2c3.3,1.2,6.7,1.9,10.2,2l0,0c4,0,8-0.6,11.8-2c2.4,9.3,4.4,16.9,5.1,18.3
		c1.8,4.2,7.7,4.8,10.7,1.7s0.7-11.9-1.3-21.5c-1.5-7.3,2.2-10.1,4.1-11l0,0c0.7,0.5,1.6,0.3,2.1-0.4
		C895,745.4,894.8,744.5,894.2,744L894.2,744"/>
	<path d="M894.6,666.3c-0.8,0.3-0.8,1.1-1.3,1.6c-0.6,0.7-1.5,1.2-2.5,1.3c-0.4,0-0.8,0.1-1.1,0.2c-1.4,0-2.8-0.7-3.7-1.8
		c-0.2-0.2-0.4-0.4,0.2-0.4c0.4,0,0.8-0.4,1.1-0.7c0.7-0.6,1.6-0.9,2.5-0.7c0.2,0,0.3,0,0.5-0.1c0.7-0.3,1.5-0.3,2.2,0
		C893.2,666.1,893.9,666.3,894.6,666.3z"/>
	<path d="M906,631.8c-0.1-0.3-0.3-0.5-0.6-0.6c-0.3-0.1-0.6,0-0.9,0.2l0,0c-0.1,0-0.2,0.1-0.3,0.2l-0.1,0.1l-0.1,0
		c-0.1,0-0.1,0-0.1-0.1c0-0.1,0-0.1,0.1-0.2l0,0c0.2-0.1,0.4-0.2,0.6-0.3c0.3-0.3,0.4-0.7,0.4-1.1c0-0.2,0-0.4-0.2-0.6
		c-0.3-0.3-0.7-0.3-1.2,0l0,0c0,0-0.1,0.1-0.1,0.2c-0.1,0-0.3,0.1-0.4,0.2c0,0-0.1,0.1-0.2,0.1c-0.2,0.1-0.3,0.2-0.4,0.4
		c-0.1,0.1-0.2,0.2-0.3,0.3c0-0.1,0-0.1,0-0.1c-0.6-0.2-0.6-0.7-0.6-1.3c0-0.6-0.5-1.2-1.2-1.2c-0.3,0-0.5-0.1-0.5-0.2
		c0-0.1,0-0.3,0.1-0.5c0.1-0.2,0.2-0.4,0.4-0.5c0.4-0.5,0.1-1-0.1-1.3c-0.3-0.4-0.8-0.5-1.2-0.3c-0.3,0.1-0.5,0.3-0.7,0.5l-0.6,0.2
		c-1-0.8-2-0.7-3.3-0.3c0.2-0.5,0.4-0.9,0.7-1.2c0.2-0.3,0.3-0.6,0.3-0.9c-0.1-0.3-0.3-0.6-0.6-0.7c-0.2-0.1-0.5-0.2-0.7-0.2
		c-0.3,0.1-0.6,0.3-0.8,0.6c-0.2,0.3-0.3,0.5-0.4,0.8l-0.2,0.3c-0.7-0.7-1.8-0.9-2.7-0.5c-0.3,0.1-0.7,0.2-1,0.4
		c-0.5,0.2-0.8,0-1.2-0.3c-0.3-0.3-0.2-0.4,0-0.7l0-0.1c0.1-0.2,0.2-0.5,0.3-0.7c0.1-0.4,0-0.8-0.2-1.1c-0.1-0.2-0.3-0.4-0.6-0.5
		c-0.7-0.3-1.6,0.1-1.8,0.9c-0.1,0.3-0.1,0.7,0,1.1c0.2,1.1-0.5,2.2-1.6,2.5c-0.2,0.1-0.4,0.1-0.4,0s-0.1-0.2-0.1-0.4s0-0.8-0.6-0.8
		c-0.2,0-0.4-0.1-0.5-0.2c-0.1-0.1-0.1-0.3,0-0.5c0-0.1,0-0.2,0-0.3l0-0.1l0,0c-0.2-0.8-0.4-0.9-1.2-0.8c-0.4,0.1-0.8,0.3-1,0.7
		c-0.2,0.5-0.1,1,0.2,1.5l0,0l0.1,0.1c0,0.1,0.1,0.2,0.2,0.3c0.1,0.1,0.2,0.3,0.2,0.5c-0.1,0.2-0.2,0.4-0.5,0.3c-0.1,0-0.3,0-0.4,0
		l-0.2,0c-0.2-0.1-0.3-0.3-0.3-0.5c-0.1-0.1-0.1-0.3-0.2-0.4c-0.3-0.5-1-0.7-1.5-0.3c0,0,0,0-0.1,0c-0.3,0.2-0.6,0.5-0.7,0.9
		c0,0.3,0,0.6,0.2,0.8c0.2,0.3,0.1,0.4-0.1,0.6c-0.5,0.5-0.9,1.1-1,1.8c-0.1,0-0.1-0.1-0.2-0.3l0-0.1c-0.1-0.4-0.4-0.7-0.7-0.9
		c-0.3-0.8-0.6-1-1.4-0.8c-0.5,0.1-1,0.4-1.3,0.9c-0.1,0.1-0.2,0.3-0.1,0.5c0,0.1,0.1,0.2,0.2,0.3l0.1,0.1c0.3,0.2,0.6,0.3,0.9,0.4
		c0.7,0.1,1.2,0.7,1.3,1.4c-0.2,0-0.3,0-0.5,0c-0.5-0.1-1,0.2-1.4,0.6c-0.1-0.1-0.2-0.1-0.3-0.1c-0.1,0-0.2,0.2-0.2,0.3l0,0
		c-0.1,0.1-0.1,0.2-0.2,0.3c-0.1,0-0.2,0-0.3-0.1c-0.4-0.2-1-0.2-1.4,0c-0.3,0.1-0.7,0.3-0.7,0.7s0.1,0.9,0.6,1
		c0.2,0.1,0.4,0.3,0.6,0.5l0.2,0.2c0.1,0.1,0.1,0.2,0.1,0.2c0,0,0,0.1-0.2,0.1c-0.4,0.1-0.8,0.3-1.1,0.6l0,0
		c-0.1,0.1-0.2,0.3-0.1,0.4c0.5,0.4,1.1,0.6,1.7,0.7c0.1-0.1,0.3-0.1,0.4,0c0.1,0.1,0.2,0.3,0.2,0.4c0.1,0.6,0.4,1.2,0.8,1.7
		c0.2,0.3,0.4,0.7,0.6,1c0.1,0.1,0.1,0.3,0.2,0.4c0.2,0.3,0.3,0.7,0.3,1.1c-0.6,1.9-0.9,3.8-0.7,5.8c0.1,1.2,0.2,2.4,0.4,3.6l0,0.2
		c0,0.7,0,1.4,0.1,2.1c0.9,8.2,9.2,21.9,16.2,21.4l0.1,0c2.1-0.2,4.4-1.6,6.6-4.2c4.4-5.1,7.5-13.5,7.1-19.1l0,0
		c0-0.2,0-0.6-0.1-1.1c-0.1-1.3-0.3-3.5-0.3-6.2c0-2.1-0.5-4.2-1.4-6.2c0,0,0.1-0.1,0.1-0.1c0.1-0.3,0.3-0.6,0.5-0.9
		c0.3-0.5,0.6-1,0.7-1.5c0.2-0.8,0.9-1,1.7-1.3l0.4-0.2c0.2,0,0.3-0.1,0.4-0.3C906,632,906,631.9,906,631.8z M904,631.4L904,631.4z
		 M898.7,633.1c-0.1-0.1-0.2-0.1-0.3-0.1l-0.2-0.1c-0.1-0.1-0.3-0.2-0.4-0.3c0.1-0.1,0.3,0,0.5,0
		C898.4,632.7,898.6,632.9,898.7,633.1L898.7,633.1z M897.6,631.2c0.1,0.1,0.3,0.2,0.3,0.3s-0.1,0.1-0.3,0.1l-0.1,0
		c-0.2,0-0.3,0.1-0.5,0.2c-0.2,0.1-0.4,0.3-0.6,0.2c0.3-0.3,0.6-0.5,1-0.7L897.6,631.2L897.6,631.2z M894.4,626.9L894.4,626.9
		c0.6-0.3,1.3-0.4,1.9-0.2c0.7,0.3,1,0.7,0.8,1.6c-0.5-0.6-1.1-1.1-1.8-1.3c-0.1,0-0.3,0-0.4,0l-0.2,0l-0.2,0c-0.1,0-0.2,0-0.2-0.1
		C894.3,626.9,894.3,626.9,894.4,626.9z M893.3,629.6c0.1-0.2,0.3-0.2,0.5-0.3l0.2,0c0.2,0,0.3,0,0.4-0.1c0.1-0.1,0-0.2-0.2-0.4
		c0,0-0.1-0.1-0.1-0.2c0-0.1,0.1-0.1,0.2-0.2c0.1,0,0.3-0.1,0.4-0.1l0.2,0l0.2,0l0.3,0c0.1,0.1,0.2,0.2,0.3,0.2c0.6,0.3,1,1,1,1.7
		c-0.1,0.2-0.2,0.3-0.4,0.4l-0.1,0.1c-0.3,0-0.6-0.1-0.8-0.3c-0.1-0.3-0.1-0.7,0-1c0,0,0-0.1,0-0.1c0.1-0.1,0.2-0.3-0.1-0.4
		c-0.1,0-0.1-0.1-0.2-0.1c-0.1,0-0.3,0.1-0.4,0.2c-0.1,0.1-0.2,0.2-0.3,0.3c-0.1,0.1-0.2,0.3-0.3,0.3c-0.2,0.2-0.5,0.2-0.8,0.1l0,0
		C893.3,629.8,893.2,629.7,893.3,629.6L893.3,629.6z M894.1,630.9c0,0.1,0,0.1-0.1,0.1l-0.6-0.2l0.1,0
		C893.8,630.7,894,630.6,894.1,630.9z M889.8,625.6c0.4-0.5,0.9-0.8,1.5-0.8c0.1,0.1,0.1,0.1,0.2,0.1c0,0.1,0.1,0.1,0.2,0.1l0.1,0.1
		l0,0c0.2,0.2,0.2,0.5,0.1,0.8c0,0.2-0.1,0.4,0,0.6l-0.1,0c-0.1,0-0.2,0-0.2,0l0,0l-0.1-0.1l-0.3-0.3c0,0-0.1-0.1-0.1-0.1
		c-0.1-0.1-0.2-0.3-0.4-0.1c-0.2,0.2-0.3,0.4-0.2,0.6c0.1,0.3,0.4,0.6,0.7,0.8c0.2,0.1,0.3,0.2,0.2,0.5c-0.1,0.3-0.3,0.4-0.6,0.4
		c-0.6-0.1-1.1-0.5-1.2-1.1C889.4,626.6,889.5,626,889.8,625.6z M888.4,628.7c0-0.2,0-0.4,0.1-0.6l0,0c0.2,0.3,0.4,0.6,0.7,0.9
		c0.6,0.7,1.6,0.8,2.4,0.3c0.1-0.1,0.2-0.2,0.2-0.3c0.1-0.1,0.2-0.2,0.2-0.3c0.1,0,0.1-0.1,0.2-0.2c0-0.1,0-0.1,0-0.2l0,0
		c0.1-0.1,0.1-0.2,0.1-0.3c0-0.1,0-0.2,0.1-0.2c0.1,0,0.1,0,0.2,0c0.2,0,0.2,0.1,0.2,0.4c0,0.1,0,0.2,0.1,0.3c0,0.1,0,0.1,0,0.1
		c0,0-0.1,0-0.2,0.1l0,0c-0.2,0-0.4,0-0.4,0.2c-0.3,0.5-0.8,0.8-1.3,0.9c-0.4,0.1-0.8,0.3-1.1,0.6c-0.1,0.1-0.3,0.1-0.5,0.1l-0.3,0
		l-0.2-0.1l-0.4-0.4l-0.1-0.5C888.4,629.1,888.4,628.9,888.4,628.7L888.4,628.7z M886.7,627.4c0.1,0,0.1,0.3,0.1,0.7l0,0.2
		c0,0.6,0.2,1.1,0.6,1.6c-0.3,0.3-0.7,0.4-1.1,0.2c-0.2-0.4-0.5-0.6-0.9-0.8l0.1,0c0.4,0,0.6-0.1,0.9-0.6c0,0,0,0,0-0.1
		c-0.1-0.1-0.2-0.2-0.3-0.1l-0.1,0c-0.2,0-0.4-0.1-0.5-0.3c-0.1-0.3-0.1-0.3,0.3-0.5l0,0l0,0l0,0
		C886.4,627.4,886.6,627.3,886.7,627.4L886.7,627.4z M884.1,629c0-0.5,0-0.9-0.1-1.4c0-0.2,0-0.4,0-0.6c-0.1-0.4,0.1-0.6,0.5-0.8
		c0.2-0.1,0.4-0.2,0.6-0.3c0.2-0.1,0.3-0.2,0.5-0.2l0,0c0.2-0.1,0.4-0.1,0.5,0c0.1,0.1,0,0.3-0.1,0.4l-0.1,0.1
		c-0.6,0.1-1.2,0.5-1.4,1.1c-0.2,0.4-0.2,0.8,0,1.2c0.1,0.2,0.3,0.4,0.6,0.5c-0.2,0-0.4,0-0.5,0l-0.3,0l-0.1,0
		C884.2,629.2,884.1,629.2,884.1,629L884.1,629z M884.4,630.7c0.1-0.1,0.2-0.1,0.3-0.1l0.1,0c0.1,0,0.2,0.1,0.3,0.2
		c0.1,0.2,0.1,0.2,0.1,0.3c0,0-0.1,0.1-0.3,0.1c-0.2,0-0.5,0.1-0.8,0.1l-0.3,0C884.1,631.1,884.2,630.9,884.4,630.7L884.4,630.7z
		 M883.1,631.2L883.1,631.2c0.1,0,0.2,0.1,0.2,0.2c0,0.1,0,0.2-0.2,0.2l-0.9,0.3l0,0c0-0.3,0.1-0.5,0.4-0.7c0.1,0,0.1-0.1,0.2-0.1
		C882.9,631.1,883,631.1,883.1,631.2L883.1,631.2z M880.8,626.9c0-0.1,0-0.1,0-0.2c0.4-0.1,0.8,0,1.1,0.2c0.3,0.3,0.5,0.8,0.5,1.3
		c0,0.2,0,0.5-0.1,0.7l0,0.1c0,0.2-0.1,0.4-0.1,0.5c-0.1,0-0.2-0.1-0.5-0.2c0.3-0.8,0-1.6-0.8-2
		C880.7,627.2,880.7,627.1,880.8,626.9z M879.9,630.4c0.1-0.2,0.2-0.3,0.4-0.4c0,0.1,0.2,0.1,0.2,0.1c0.1,0.2,0.3,0.3,0.6,0.4
		l0.2,0.1c0.2,0.1,0.2,0.2,0.1,0.5c-0.2,0.7-0.7,1.2-1.3,1.4c-0.7,0.1-1.4-0.1-1.9-0.6c-0.1-0.1-0.1-0.2-0.1-0.2c0,0,0,0,0.2-0.1
		c0.4-0.1,0.8-0.3,1.1-0.6c0.1,0,0.2-0.1,0.3-0.3C879.7,630.7,879.8,630.6,879.9,630.4L879.9,630.4z M877.1,629.7c0,0,0-0.1,0-0.2
		c0.1-0.1,0.1-0.3,0.1-0.4c0.1-0.2,0.3-0.5,0.4-0.8c0.1-0.4,0.3-0.7,0.6-1l0.1-0.1c0.1-0.1,0.1-0.2,0.2-0.2c0,0.2-0.1,0.4-0.2,0.6
		l0,0.1c-0.1,0.2-0.2,0.4,0,0.6l0,0c0.1,0.2,0.3,0.2,0.5,0.1l0.1,0l0.2,0c0.2,0,0.3-0.1,0.4,0c0.1,0.1,0.1,0.2,0,0.4l0,0.1l0,0.1
		c0,0.1,0,0.2,0,0.3l0,0c0,0,0,0.1,0,0.1c-0.1,0-0.2,0.1-0.2,0.3c0,0-0.1,0-0.1,0.1c0,0,0,0,0,0.1c-0.2,0.1-0.5,0.2-0.6,0.4
		c-0.1,0.1-0.3,0.2-0.4,0.3l-0.1,0c-0.2,0.1-0.4,0.2-0.6,0.1S877,630,877.1,629.7L877.1,629.7z M873,631.7c-0.1,0.1-0.1,0.2-0.1,0.3
		c0,0.1,0.1,0.2,0.2,0.3l0.1,0.3c0,0.1,0,0.2,0.1,0.3c0.2,0.3,0,0.5-0.3,0.7l-0.1,0c0,0-0.1,0-0.1,0c-0.1-0.1-0.1-0.1-0.1-0.2
		c0-0.2,0-0.5,0-0.7c-0.1-0.6,0.1-1.1,0.6-1.5c0.2-0.2,0.5-0.3,0.7-0.3c0.3,0,0.6,0,0.8,0.1l0.2,0.1l0.2,0.1
		c0.3,0.1,0.4,0.2,0.4,0.3s0,0.2-0.3,0.3c-0.6,0.3-1.3,0.3-1.8-0.1l0,0C873.4,631.7,873.2,631.5,873,631.7z M873.5,634.9
		c0-0.1,0-0.2,0-0.3c0-0.1,0.1-0.2,0.1-0.3c0-0.3,0.1-0.6,0.4-0.6l0.2,0c0.3,0,0.7,0.1,0.9-0.4c0.7-0.1,1.3-0.6,1.5-1.3
		c0.1,0.1,0.2,0.2,0.4,0.3c0.3,0.1,0.5,0.5,0.4,0.8c0,0,0,0.1,0,0.1c-0.2,0.5-0.4,0.7-0.8,0.8l0,0c-0.1,0-0.1,0-0.2,0
		c-0.2-0.2-0.3-0.4-0.4-0.4c-0.1,0-0.3,0.2-0.4,0.4l-0.1,0.1c-0.3,0.4-0.8,0.7-1.4,0.8C873.8,635,873.6,635,873.5,634.9L873.5,634.9
		z M896.2,668.4c-2,2.4-4.2,3.8-6.1,3.9l0,0c-2.9,0.2-6.4-2.4-9.7-7.2c-2.8-3.9-4.7-8.4-5.6-13.2c0.8,0.5,1.6,1,2.4,1.4l0,0
		c0.7,0.5,1.4,1,2.1,1.4c1.5,0.9,3.3,1.2,5,0.9c1.2-0.4,2.6,0,3.4,1c0.2,0.4,0.5,0.8,0.6,1.2c0-1.3-0.1-2.5-0.5-3.8
		c-0.3-1.3-0.5-1.3-1.6-2.3s-4.1-0.4-7.5-2c-1.4-0.6-2.7-1.4-3.8-2.4c0.3-1.3,1-2.4,1.8-3.4c2.2-2.7,6.1-4.4,10.8-4.8l0,0
		c8.9-0.7,12.8,2.6,14.4,6.6c-0.8,1.3-2,2.4-3.4,3.1c-0.9,0.4-1.8,0.7-2.8,1c-1.5,0.3-3,0.9-4.2,1.9c-0.8,0.5-1.2,1.4-1.2,2.4
		c0.1,0.9,0.1,1.9,0.1,2.8c0,0.2,0,0.5,0.2,0.7c0.4-2.1,0.6-2.3,2.7-2.4c0.1,0,0.2,0,0.4,0c1.7,0.2,3.3-0.2,4.7-1.1l0,0
		c0.2-0.1,0.3-0.2,0.5-0.4c1.4-1,2.7-2.1,3.9-3.4C903.4,655.7,900.4,663.6,896.2,668.4L896.2,668.4z M901.9,633.3
		c0,0.5-0.3,0.9-0.7,1.1l-0.2,0c-0.3-0.3-0.5-0.6-0.7-0.9c-0.3-0.4-0.5-0.8-0.9-1.1l0.1-0.2c0.1,0,0.3-0.1,0.4-0.3
		c0.2-0.1,0.3-0.3,0.4-0.5c0.1-0.1,0.1-0.2,0.2-0.3c0-0.1,0-0.1-0.1-0.2c-0.1-0.1-0.2-0.1-0.3-0.1c-0.1,0-0.1,0.1-0.2,0.2l-0.1,0
		l-0.2,0c-0.3,0-0.5,0-0.7-0.2c-0.1-0.1-0.2-0.3-0.2-0.5c0-0.5,0.4-0.9,0.9-1l0,0l0.4,0l0.2,0l0.2,0.2c0.2,0.1,0.4,0.3,0.6,0.5
		c0.1,0.3,0,0.6-0.1,0.8c-0.1,0.1-0.1,0.3-0.2,0.4c0,0.3-0.1,0.5,0.1,0.6c0.1,0.1,0.3,0.1,0.5,0c0.3-0.1,0.2,0,0.2,0
		C901.8,632.3,902,632.8,901.9,633.3z"/>
</g>
<title>Artboard 1 copy 2</title>
<path class="st6" d="M276.3,349.2l0.8-188.2c0.1-12.9,7-24.8,18.2-31.2l163.4-93.4c11.2-6.4,25-6.3,36.1,0.2l162.6,94.8
	c11.2,6.5,18,18.5,17.9,31.4L674.5,351c-0.1,12.9-7,24.8-18.2,31.2l-163.4,93.4c-11.2,6.4-25,6.3-36.1-0.2l-162.6-94.8
	C283,374.1,276.2,362.1,276.3,349.2z"/>
<path class="st6" d="M20.4,816.3l0.8-188.2c0.1-12.9,7-24.8,18.2-31.2l163.4-93.4c11.2-6.4,25-6.3,36.1,0.2l162.6,94.8
	c11.2,6.5,18,18.5,17.9,31.4l-0.8,188.2c-0.1,12.9-7,24.8-18.2,31.2L237,942.7c-11.2,6.4-25,6.3-36.1-0.2L38.3,847.6
	C27.2,841.1,20.3,829.2,20.4,816.3z"/>
<g>
	<path d="M76,710.1l-24.8,59.9c-3.1,7.5,0.5,16.1,8,19.2l126.7,52.3c7.5,3.1,16.1-0.5,19.2-8l24.8-60.1c3.1-7.5-0.5-16.1-8-19.2
		L95.3,701.9C87.7,698.9,79,702.6,76,710.1z M70.6,753.9l7.5-18.3c0.5-1.1,1.9-1.6,3-1.1c1.1,0.5,1.6,1.7,1.2,2.8l-7.5,18.3
		c-0.5,1.1-1.8,1.7-3,1.2C70.8,756.3,70.2,755,70.6,753.9L70.6,753.9z M208.3,799.9c-1.1,2.8-4.3,4.1-7.1,2.9
		c-2.8-1.1-4.1-4.3-2.9-7.1c1.1-2.8,4.3-4.1,7.1-2.9C208.1,794,209.3,797.1,208.3,799.9L208.3,799.9z M206,755.3l-30.7,74.3
		l-101.7-42l30.7-74.4L206,755.3z"/>
	<path d="M147.8,743.4c0,0-6.6,9-9.1,8.5c-1.2-0.3-2.3-0.7-3.4-1.2c-2.2-1-4.4-1.7-6.8-2.2l0,0c-2.3-0.6-4.7-1-7-1.2
		c-1.2-0.1-2.4-0.2-3.6-0.5c-2.4-0.7-4.2-11.7-4.2-11.7s-4.6,15.4-6.3,22.8c-1.1,5.1-1.8,6.9-2.3,11.1c-1.3,9.3-0.1,21,11.6,28.1
		l0,0c13.5-0.9,20-10.7,23.1-19.6c1.4-3.9,1.7-5.9,3-10.9C144.8,759.2,147.8,743.4,147.8,743.4z M127.7,771.3l7.7-0.5
		c0.3,0,0.5,0.2,0.6,0.5c0,0.1,0,0.2-0.1,0.3c-0.1,0.1-2.3,3.2-4.9,3.4c-0.5,0-1,0-1.5-0.1c-0.5-0.1-0.9-0.4-1.3-0.7
		c-0.6-0.7-1-1.6-0.9-2.5C127.2,771.5,127.4,771.3,127.7,771.3z M128.5,748.5L128.5,748.5C128.5,748.5,128.5,748.5,128.5,748.5z
		 M111.6,765.1c0.2-0.1,0.4-0.1,0.6,0l6.6,4c0.2,0.1,0.3,0.4,0.2,0.7c-0.4,0.9-1.1,1.5-2,1.8c-0.5,0.1-1,0.1-1.5,0
		c-0.5-0.1-0.9-0.3-1.4-0.6c-2.2-1.4-2.8-5.1-2.8-5.3C111.3,765.5,111.4,765.3,111.6,765.1z M132.9,785.6c-3.2,5.8-6.7,7.2-11.4,9.2
		c-0.8,0.3-1.6,0.6-2.4,0.8c-1.3,0.5-2.9,0.2-3.8-0.9c-0.6-0.6-1.2-1.2-1.8-1.8c-3.3-3.9-5.7-6.8-5.9-13.4c0.1-1.6-0.1-3.2-0.4-4.7
		c2.3,0.6,4.6,1.4,6.8,2.4c2.4,1.2,6.4,4.9,6.4,4.9s5.2-1.4,7.9-1.3c2.4,0.2,4.8,0.6,7.2,1.1C134.4,782.9,133.5,784.2,132.9,785.6
		L132.9,785.6z"/>
	<path class="st4" d="M178.4,756.9l-6.6-3.2c-0.4-0.2-0.9,0.1-1.1,0.5c-0.1,0.4,0,0.8,0.3,1l-1.8,2c-0.1,0.1-0.1,0.1-0.1,0.2
		c-0.3,0.6-0.3,1.3-0.1,2l0.1,0.1l-3.9,6c-1,1.5-4,5.6-6.1,6c-2,0.5-3.6,1.8-4.6,3.6l-12,25c-0.8,1.8-0.1,3.9,1.7,4.8l11.5,5.5
		c1.8,0.8,3.9,0.1,4.8-1.7l12-25c0.8-1.9,0.7-3.9-0.1-5.8c-0.9-1.9,0.4-6.8,0.9-8.5l2.3-6.7l0.1,0c0.7-0.2,1.2-0.7,1.5-1.4
		c0-0.1,0.1-0.1,0.1-0.2l0.5-2.6c0.4,0.1,0.9-0.1,1-0.6C178.9,757.6,178.7,757.2,178.4,756.9L178.4,756.9z M165.4,794.5l-0.8,1.6
		l-2.7-1.3c-3.1,1.7-6.9,0.6-8.7-2.4c-0.4-0.7-0.6-1.4-0.7-2.1l-2.7-1.3l0.8-1.6l1.9,0.9c0.1-0.6,0.3-1.2,0.5-1.8
		c0.1-0.2,0.2-0.3,0.3-0.5c0-0.1,0.1-0.1,0.1-0.2c0-0.1,0-0.1,0-0.1l-1.7-0.8l0.8-1.6l2.2,1.1c2.7-2.2,6.7-1.8,8.9,1
		c0.9,1.1,1.4,2.6,1.4,4l2.2,1.1l-0.8,1.6l-1.7-0.8l0,0.1c0,0.1-0.1,0.1-0.1,0.2c-0.1,0.2-0.1,0.3-0.2,0.5l0,0.1
		c-0.3,0.5-0.6,1-1,1.4L165.4,794.5z M160.8,803.9l-0.8,1.6l-14.7-7.1l0.8-1.6L160.8,803.9z"/>
	<path class="st4" d="M160.8,785.2c-2.3-1.1-5-0.1-6.1,2.1c-1.1,2.3-0.1,5,2.1,6.1c2.3,1.1,5,0.1,6.1-2.1c0,0,0,0,0,0
		C164,789,163,786.3,160.8,785.2z M160.2,790.2l-0.5,2.3l-1.5-1.9l-2.4,0l1.5-1.9l-0.5-2.5l2,1l1.6-1.1l0.1,1.9l2,1L160.2,790.2z"/>
	<path class="st4" d="M347.3,763.2l0.2-0.1l0,0c3.4-0.9,5.9-3.9,6.1-7.4c0.3-3.5-0.6-12.8-0.7-13.9l0-0.5c0-0.2-0.2-0.3-0.3-0.4
		l-14.5-1.2c-0.2,0-0.4,0.1-0.4,0.3l-0.1,0.5c-0.3,1-2.7,10.1-3,13.6c-0.4,3.5,1.6,6.8,4.8,8.3l0,0l0.2,0.1c0.7,0.3,1.3,0.8,1.9,1.3
		c0.6,0.8,0.8,1.9,0.6,2.9l-0.5,6c-0.4,2-4.2,2.3-5.6,2.2c-0.4,0-0.8,0.3-0.8,0.7c0,0.4,0.3,0.8,0.7,0.8l13,1.1
		c0.4,0,0.7-0.4,0.7-0.8c0-0.4-0.3-0.7-0.6-0.7l0,0c-1.4-0.2-5.1-1.2-5.2-3.1l0.5-6c0-1,0.4-2,1.1-2.7
		C345.9,763.7,346.6,763.4,347.3,763.2z M351.1,742.9c0.1,1.4,0.4,4.6,0.6,7.7c-1.7-0.2-3.4-0.2-5,0.1c-0.8,0.1-1.6,0.3-2.4,0.5
		c-2.6,0.8-5.6-0.2-7.1-0.9c0.6-3.1,1.6-6.7,2-8.4L351.1,742.9z"/>
	<path class="st7" d="M325.8,764.8c-0.4-4.8-0.8-9.6-1.3-14.3c0-0.5,0.1-1,0.4-1.3c3.5-5.5,4.1-11.2,0.9-17
		c-1.7-3.1-4.7-4.6-8.1-5.2c-3.8-0.7-7.8-0.4-11.4,1.1c-4.1,1.5-7.3,4.9-8.6,9.1c-0.2,0.6-0.6,1.1-1.1,1.4c-2.5,1.5-4.6,3.6-6.1,6
		c-0.6,1-0.9,2.2-0.9,3.4c0.1,0.8,0.2,0.8,0.8,0.4c1.8-1.2,4-1.7,6.1-1.3c-0.1,0.2-0.2,0.4-0.3,0.6c-0.3,0.4-0.2,0.6,0.3,0.8
		c0.6,0.2,1.2,0.6,1.9,0.8c0.6,0.3,0.7,0.3,0.5,1c-0.3,1.2-0.2,2.6,0.3,3.7c0.4,0.7,0.4,1.5-0.1,2.1c-0.3,0.4-0.5,0.9-0.5,1.5
		c-0.2,0.9,0.3,1.8,1.2,2.1c0.7,0.3,1.4,0.5,2.2,0.5c0.2,0,0.4,0,0.7,0c1,0.1,1.9,0.2,2.9,0.1c0.6,0,0.7,0.2,0.8,0.8
		c0.2,2-0.2,3.5-2.3,4.7c-3.6,2.1-8.9,7.6-8.7,8.6c0.2,1,31.1,1.8,31.5,1.4C327.2,775.5,326.2,768.5,325.8,764.8z M300.2,741.1
		c1.2-0.9,2.5-1.7,3.7-2.6l0.2,0.2c-0.6,1.6-1.9,2.7-3.5,3.1c-0.5,0.1-1.1,0.6-1.4,0.1C299,741.7,299.8,741.4,300.2,741.1
		L300.2,741.1z M300.2,758.8c-0.5-0.2-0.6-0.4-0.6-1c0-0.3,0.1-0.7,0.3-1c0.7-0.9,0.8-2.2,0.2-3.2c-0.4-1-0.5-2-0.3-3
		c0.4-0.9,0-1.9-0.9-2.3c-0.1,0-0.2-0.1-0.3-0.1c-0.3-0.1-0.5-0.2-0.8-0.4l-0.5-0.2l0.2-0.5l2.2,0c1.5,0,2.9,0,4.4,0.1l2.1,0.1
		l0.3,0c2.3,0.4,3.8,2.5,3.5,4.8c0,0,0,0,0,0c-0.3,1.1-0.8,2.1-1.6,2.9c-1.5,1.6-3.3,2.9-5.3,3.9l-0.5,0.3l-0.1,0
		c-0.2,0-0.4,0-0.6,0C301.4,759.2,300.8,759,300.2,758.8L300.2,758.8z"/>
	<path d="M364,770.6l3.5-42.2c0.5-6.2-4.1-11.6-10.2-12.1l-64.1-5.3c-6.2-0.5-11.6,4.1-12.1,10.2l-3.5,42.2
		c-5.1-0.1-9.4,3.7-9.9,8.8l-3.7,44.4c-0.2,2,0.3,3.9,1.3,5.6l38.4-19.7l0.1,0c1.5-0.8,3.4-0.2,4.2,1.4c0.2,0.5,0.3,1.1,0.3,1.6
		c0,0.4-0.2,0.8-0.3,1.2c-0.1,0.1-0.1,0.3-0.2,0.4c-0.1,0.1-0.2,0.2-0.3,0.3c-0.2,0.3-0.5,0.5-0.8,0.6l0,0l-36.1,18.5
		c0.8,0.3,1.6,0.4,2.4,0.5l85.3,7.1c0.9,0.1,1.7,0,2.6-0.1l0,0l-32.5-24.2l0,0l0,0c-0.3-0.2-0.5-0.5-0.7-0.8
		c-0.1-0.1-0.1-0.2-0.2-0.4c-0.1-0.1-0.1-0.3-0.1-0.4c-0.1-0.4-0.2-0.8-0.1-1.2l0,0c0-0.6,0.2-1.1,0.5-1.6c1-1.4,2.9-1.7,4.3-0.6
		c0,0,0,0,0,0l0,0l0.1,0l34.4,25.6c1.2-1.5,1.9-3.3,2.1-5.2l3.7-44.4C372.7,775.8,369.1,771.3,364,770.6z M357.9,784.5l-30.7,12.3
		c-8.6,3.1-9.6,3.1-17-1.2l-28.8-18.2l4.7-55.9c0.3-3.4,3.3-6,6.7-5.7l64.1,5.3c3.4,0.3,6,3.3,5.7,6.7L357.9,784.5z"/>
	<path class="st4" d="M277.8,625.9c-0.4-1.5-1.5-2.8-2.9-3.6c0.4-1.4,0.1-3-0.7-4.2c-0.9-1.1-2.1-1.8-3.5-1.9
		c0.1-1.5-0.5-3.1-1.6-4.1c-1.1-1.1-2.6-1.7-4.2-1.6c-0.5-1.4-1.5-2.6-2.9-3.3c-1.9-0.7-3.9-0.5-5.7,0.4c-1.3-1.2-3.1-1.7-4.9-1.4
		c-1.6,0.4-2.9,1.4-3.8,2.8c-1.3-0.5-2.8-0.5-4.2,0c-1.5,0.8-2.5,2.2-2.9,3.8c-1.1,0.4-2.1,1.1-2.7,2.2c-1,1.7-0.4,3.8,0.4,5
		c-0.4,5.4-1,11.7-1.4,16.8c-0.3,3.7-0.6,7.4-0.9,11.1c-0.1,0.9,0.4,1.7,1.1,2.1c2.5,1.5,5.1,2.8,7.8,3.8c4,1.5,8.2,2.4,12.5,2.6
		c1.1,0.1,2.2-0.4,2.6-1.4c1.9-3.3,3.8-6.5,5.7-9.8c2.4-4.2,5.5-9.4,8.1-13.8c1.1-0.3,2.1-1.1,2.9-2
		C277.6,628.4,278,627.1,277.8,625.9z M240.8,648.5c0.1-0.9,5.1-24.1,5.1-24.1l5.2,2.4c0.8,0.4-5.9,23.8-5.9,23.8
		S240.7,649.5,240.8,648.5L240.8,648.5z M255.8,653.3c-0.4,0.8-4.8-0.7-4.8-0.7s8.2-23.1,8.8-22.9c1.1,0.2,5.7,1,5.7,1
		S256.3,652.5,255.8,653.3L255.8,653.3z M240.5,618.3c-0.4-0.5-0.4-1.1-0.2-1.7c0.5-0.9,1.1-0.8,1.3-0.8l1.5,0.1l0.1-1.6
		c0,0,0.2-2,1.6-2.7c0.8-0.4,2.3,0.2,3,0.5l1.4,0.8l0.5-1.5c0.4-1.1,1.3-2,2.4-2.3c1.6-0.4,3,1.3,3,1.3l0.9,1.1l1.1-0.9
		c1-1,2.4-1.3,3.7-0.9c1.1,0.5,1.9,1.5,2,2.6l0.2,1.8l1.5-0.6c0.9-0.4,1.9-0.1,2.5,0.5c0.9,0.7,1.2,1.9,0.9,2.9l-0.8,1.4l1.8,0.2
		c1.1,0,2.2,0.5,2.9,1.3c0.4,0.8,0.4,1.8,0,2.6l-0.7,1.3l1.4,0.6c0.7,0.3,2.3,0.7,2.5,1.9c0.1,1.3-0.6,2.5-1.8,2.9L240.5,618.3z"/>
	<path d="M199.6,612.2c-1.3-0.1-2.5,0.8-2.7,2.2c-0.1,1.3,0.8,2.5,2.2,2.7s2.5-0.8,2.7-2.2C201.9,613.5,200.9,612.3,199.6,612.2z
		 M199.8,615.1c-0.6,0-1-0.5-0.9-1.1c0-0.6,0.5-1,1.1-0.9s1,0.5,0.9,1.1S200.3,615.2,199.8,615.1z"/>
	<path d="M215.5,609.3c-3.8-0.4-7.1,2.4-7.5,6.1s2.4,7.1,6.1,7.5c3.8,0.4,7.1-2.4,7.5-6.1c0,0,0,0,0,0
		C222,613,219.3,609.7,215.5,609.3C215.5,609.3,215.5,609.3,215.5,609.3z M214.4,620.5c-2.4-0.2-4.2-2.4-3.9-4.8
		c0.2-2.4,2.4-4.2,4.8-3.9c2.4,0.2,4.2,2.4,3.9,4.8C219,619,216.8,620.7,214.4,620.5C214.4,620.5,214.4,620.5,214.4,620.5
		L214.4,620.5z"/>
	<path d="M200,607.8c-3.8-0.4-7.1,2.4-7.5,6.1s2.4,7.1,6.1,7.5c3.8,0.4,7.1-2.4,7.5-6.1c0,0,0,0,0,0
		C206.5,611.5,203.8,608.2,200,607.8z M198.9,619c-2.4-0.2-4.2-2.4-4-4.8c0.2-2.4,2.4-4.2,4.8-4c2.4,0.2,4.2,2.4,4,4.8c0,0,0,0,0,0
		C203.4,617.4,201.3,619.2,198.9,619L198.9,619z"/>
	<path d="M226.8,614.3c0.5-10-6.7-18.8-16.7-20.2c-10.5-1-20,6.1-22.1,16.5l3.3,0.3c2-4.4,7.3-6.3,11.6-4.2c2,1,3.6,2.6,4.5,4.7
		c2.6-4.1,8-5.3,12.1-2.7c1.9,1.2,3.3,3.1,3.8,5.3L226.8,614.3z"/>
	<path d="M226.4,618.2l0.2-1.9l0,0l-3-0.2c0,0.6,0,1.3-0.2,1.9L226.4,618.2z"/>
	<path d="M215.1,613.7c-1.3-0.1-2.5,0.9-2.7,2.2c-0.1,1.3,0.9,2.5,2.2,2.7c1.3,0.1,2.5-0.8,2.7-2.2
		C217.4,615,216.5,613.8,215.1,613.7C215.1,613.7,215.1,613.7,215.1,613.7z M215.3,616.7c-0.6,0-1-0.5-0.9-1.1c0-0.6,0.5-1,1.1-0.9
		s1,0.5,0.9,1.1C216.3,616.3,215.8,616.7,215.3,616.7L215.3,616.7z"/>
	<path d="M194.4,630.8c0.1,1,0.3,2,0.6,2.9l20.3,2c0.5-0.9,1-1.8,1.2-2.8L194.4,630.8L194.4,630.8z"/>
	<path d="M204.6,641.1c3.5,0.3,6.9-1,9.3-3.5l-17.9-1.8C197.9,638.8,201.1,640.7,204.6,641.1z"/>
	<path d="M187.8,612.5l-0.2,1.9l3,0.2c0-0.6,0-1.3,0.2-1.9L187.8,612.5z"/>
	<path d="M223.6,647.1L223.6,647.1l2.6-27l-3.4-0.3c-2.1,4.4-7.3,6.3-11.7,4.2c-2-0.9-3.6-2.6-4.4-4.7c-2.6,4.1-8,5.3-12.1,2.6
		c-1.9-1.2-3.2-3.1-3.8-5.3l-3.4-0.3l-2.6,27l0,0c-0.1,1.1,0.7,2,1.7,2.2l34.9,3.4c1.1,0.1,2-0.7,2.2-1.7l0,0L223.6,647.1z
		 M193.4,628.7L193.4,628.7l24.4,2.4c0.6,0,1,0.5,0.9,1.1c-1.4,7.2-8.3,11.9-15.5,10.5c-6.3-1.2-10.8-6.7-10.8-13.1
		C192.5,629.1,192.9,628.8,193.4,628.7L193.4,628.7z"/>
	<path d="M162,695.5c1.3-4,2.5-7.7,3.7-11.4c2.1-6.3,4.1-12.7,6.4-19c1-2.4,0.8-5.1-0.6-7.4c-5.3-9.5-7.9-20.2-7.6-31
		c0.9-33.4,24-57.9,53.6-62.9c36.8-6.2,69.1,18.3,74.8,53.2c5.8,35.1-17.9,68.3-53,74.1c-0.1,0-0.3,0-0.4,0.1
		c-13.2,2.2-26.8,0.2-38.8-5.8c-1.8-0.9-3.8-1-5.7-0.3c-9.9,3.3-19.8,6.5-29.7,9.7C163.9,695,163.2,695.2,162,695.5z M178.1,679.6
		c1.6-0.5,2.5-0.7,3.3-0.9c5-1.6,10.1-3.2,15.1-4.9c1.5-0.6,3.3-0.4,4.6,0.5c10.7,6.4,23.3,8.8,35.6,6.9
		c29.5-4.2,50.6-33.2,45.5-62.6c-5.3-30.3-34.7-50.5-64.7-44.1c-35,7.5-53.7,45.7-37,77.8c3.1,5.9,3.9,10.6,1.1,16.5
		C180.1,671.8,179.4,675.5,178.1,679.6z"/>
</g>
<path d="M646.7,513.8l11.6-42.5c0.3-1.2,0.2-2.4-0.4-3.5l-13.1-22.9c-1.3-2.2-4.1-3-6.3-1.7c-1.1,0.6-1.8,1.6-2.2,2.8L626,484
	l-38-10.4c-2.4-0.7-5,0.8-5.6,3.2c-0.3,1.2-0.2,2.4,0.4,3.5l13.1,22.9c0.6,1.1,1.6,1.8,2.8,2.1l42.5,11.6
	C643.5,517.6,646.1,516.2,646.7,513.8C646.7,513.8,646.7,513.8,646.7,513.8z"/>
<path d="M455.8,733.6l31.2,31c0.9,0.9,2,1.3,3.2,1.3l26.4-0.1c2.5,0,4.6-2.1,4.6-4.6c0-1.2-0.5-2.4-1.4-3.2l-28-27.8l27.8-27.9
	c1.8-1.8,1.8-4.7,0-6.5c-0.9-0.9-2-1.3-3.2-1.3l-26.4,0c-1.2,0-2.4,0.5-3.2,1.4l-31,31.2C454,728.9,454,731.8,455.8,733.6
	C455.8,733.6,455.8,733.6,455.8,733.6z"/>
<path d="M367.5,460.7L325,472.3c-1.2,0.3-2.2,1.1-2.8,2.2l-13.1,23c-1.3,2.2-0.5,5,1.7,6.3c1.1,0.6,2.3,0.8,3.5,0.4l38-10.5l10.4,38
	c0.7,2.4,3.2,3.9,5.6,3.2c1.2-0.3,2.2-1.1,2.8-2.2l13.1-23c0.6-1.1,0.8-2.3,0.4-3.5l-11.6-42.4C372.5,461.4,369.9,460,367.5,460.7
	C367.5,460.6,367.5,460.6,367.5,460.7z"/>
<path class="st6" d="M551.8,817.3l0.8-188.2c0.1-12.9,7-24.8,18.2-31.2l163.4-93.4c11.2-6.4,25-6.3,36.1,0.2L933,599.5
	c11.2,6.5,18,18.5,17.9,31.4l-0.8,188.2c-0.1,12.9-7,24.8-18.2,31.2l-163.4,93.4c-11.2,6.4-25,6.3-36.1-0.2l-162.6-94.8
	C558.6,842.2,551.8,830.2,551.8,817.3z"/>
<g>
	<path class="st4" d="M608.6,202.9l-3.3-4.1c-0.9-1.2-2.7-1.3-3.8-0.4l-1.6,1.3c-0.5,0.5-0.8,1.2-0.5,1.9c0.4,1,0,2.1-0.8,2.8
		c-0.8,0.7-2,0.7-2.9,0.2c-0.6-0.4-1.4-0.4-2,0.1l-1.6,1.3c-1.2,0.9-1.3,2.7-0.4,3.8l3.3,4.1l1.1-0.9l1.3,1.6l-1.1,0.9l10.4,12.8
		c0.9,1.2,2.7,1.3,3.8,0.4l1.2-1c0.6-0.5,0.8-1.3,0.5-2c-0.6-1.2,0-2.7,1.2-3.3c0.8-0.4,1.8-0.3,2.5,0.3c0.6,0.5,1.5,0.5,2.1,0
		l1.8-1.4c1.2-0.9,1.3-2.7,0.4-3.8l-10.3-12.9l-1.2,1l-1.3-1.6L608.6,202.9z M602.3,207.9l1.5-1.2l1.3,1.6l-1.5,1.2L602.3,207.9z
		 M599.8,210l1.5-1.2l1.3,1.6l-1.5,1.2L599.8,210z M597.2,212.1l1.5-1.2l1.3,1.6l-1.5,1.2L597.2,212.1z M611.9,215.5l-5.3,4.3
		c-0.4,0.4-1.1,0.3-1.4-0.2c-0.4-0.4-0.3-1.1,0.2-1.4l5.3-4.3c0.4-0.4,1.1-0.3,1.4,0.2C612.4,214.5,612.3,215.1,611.9,215.5
		L611.9,215.5L611.9,215.5z M609.7,212.8l-5.3,4.3c-0.4,0.4-1.1,0.3-1.4-0.2c-0.4-0.4-0.3-1.1,0.2-1.4l0,0l5.3-4.3
		c0.4-0.4,1.1-0.3,1.4,0.1c0,0,0,0,0,0c0.4,0.4,0.4,0.9,0,1.3C609.8,212.7,609.8,212.8,609.7,212.8z M607.6,206.3l-1.5,1.2l-1.3-1.6
		l1.5-1.2L607.6,206.3z"/>
	<path class="st4" d="M636.2,252.7l1.3-5.1c0.3-1.5-0.5-2.9-2-3.3l-2-0.5c-0.7-0.2-1.4,0.1-1.8,0.7c-0.6,0.9-1.6,1.3-2.7,1.1
		c-1-0.2-1.8-1.1-1.9-2.2c-0.1-0.7-0.6-1.3-1.3-1.5l-2-0.5c-1.5-0.3-2.9,0.5-3.3,2l-1.2,5.1l1.4,0.3l-0.5,2l-1.4-0.3l-3.9,16
		c-0.3,1.5,0.5,2.9,2,3.3l1.5,0.4c0.8,0.2,1.5-0.2,1.9-0.9c0.6-1.2,2.1-1.7,3.4-1c0.8,0.4,1.3,1.2,1.3,2.1c0,0.8,0.5,1.4,1.3,1.6
		l2.2,0.5c1.5,0.3,2.9-0.5,3.3-2l3.9-16l-1.4-0.3l0.5-2L636.2,252.7z M628.4,250.8l1.9,0.5l-0.5,2l-1.9-0.5L628.4,250.8z M625.2,250
		l1.9,0.5l-0.5,2l-1.9-0.5L625.2,250z M622,249.2l1.9,0.5l-0.5,2l-1.9-0.5L622,249.2z M628.2,263l-6.6-1.6c-0.5-0.1-0.9-0.7-0.8-1.2
		c0.1-0.5,0.7-0.9,1.2-0.8l6.6,1.6c0.5,0.1,0.9,0.7,0.8,1.2C629.3,262.8,628.8,263.1,628.2,263z M629,259.7l-6.6-1.6
		c-0.5-0.1-0.9-0.7-0.8-1.2c0.1-0.5,0.7-0.9,1.2-0.8l6.6,1.6c0.5,0.1,0.9,0.7,0.8,1.2c0,0,0,0,0,0c-0.1,0.5-0.6,0.8-1.1,0.8
		C629.1,259.6,629.1,259.6,629,259.7L629,259.7z M633,254l-1.9-0.5l0.5-2l1.9,0.5L633,254z"/>
	<path class="st4" d="M594.8,231.5l-4.6-2.5c-1.3-0.7-3-0.2-3.7,1.1l-1,1.8c-0.3,0.6-0.2,1.4,0.3,1.9c0.7,0.8,0.9,1.9,0.4,2.8
		c-0.5,0.9-1.5,1.4-2.6,1.3c-0.7-0.1-1.4,0.2-1.8,0.9l-1,1.8c-0.7,1.3-0.2,3,1.1,3.7l4.6,2.5l0.7-1.2l1.8,1l-0.7,1.2l14.6,7.8
		c1.3,0.7,3,0.2,3.7-1.1l0.7-1.4c0.3-0.7,0.2-1.5-0.4-2c-1-0.9-1.1-2.5-0.2-3.5c0.6-0.7,1.5-1,2.4-0.7c0.8,0.2,1.5-0.2,1.9-0.8l1-2
		c0.7-1.3,0.2-3-1.1-3.7l-14.5-7.9l-0.7,1.3l-1.8-1L594.8,231.5z M591.1,238.5l0.9-1.7l1.8,1l-0.9,1.7L591.1,238.5z M589.5,241.5
		l0.9-1.7l1.8,1l-0.9,1.7L589.5,241.5z M587.9,244.4l0.9-1.7l1.8,1l-0.9,1.7L587.9,244.4z M602.8,241.8l-3.2,5.9
		c-0.3,0.5-0.9,0.7-1.4,0.4c-0.5-0.3-0.7-0.9-0.4-1.4l3.2-5.9c0.3-0.5,0.9-0.7,1.4-0.4C602.8,240.7,603,241.3,602.8,241.8z
		 M599.8,240.2l-3.2,6c-0.3,0.5-0.9,0.7-1.4,0.4c-0.5-0.3-0.7-0.9-0.4-1.4l0,0l3.2-5.9c0.3-0.5,0.9-0.7,1.3-0.4c0,0,0,0,0,0
		C599.8,239.1,600,239.7,599.8,240.2C599.7,240.1,599.7,240.1,599.8,240.2L599.8,240.2z M595.3,235l-0.9,1.7l-1.8-1l0.9-1.7
		L595.3,235z"/>
	<path class="st4" d="M595.9,275.5l3.8-3.5c1.1-1,1.2-2.7,0.1-3.8l-1.4-1.5c-0.5-0.5-1.3-0.7-1.9-0.4c-1,0.4-2.1,0.2-2.8-0.6
		c-0.7-0.8-0.9-1.9-0.4-2.8c0.3-0.6,0.2-1.4-0.2-1.9l-1.4-1.6c-1-1.1-2.7-1.2-3.8-0.1l-3.8,3.6l1,1l-1.5,1.4l-1-1l-12.1,11.2
		c-1.1,1-1.2,2.7-0.1,3.8l1.1,1.2c0.5,0.6,1.4,0.7,2.1,0.3c1.2-0.7,2.7-0.2,3.4,1c0.4,0.8,0.4,1.8-0.1,2.5c-0.4,0.7-0.4,1.5,0.2,2.1
		l1.5,1.7c1,1.1,2.7,1.2,3.8,0.1l12.1-11.2l-1-1.1l1.5-1.4L595.9,275.5z M590.4,269.6l1.3,1.4l-1.5,1.4l-1.3-1.4L590.4,269.6z
		 M588.1,267.1l1.3,1.4l-1.5,1.4l-1.3-1.4L588.1,267.1z M585.9,264.7l1.3,1.4l-1.5,1.4l-1.3-1.4L585.9,264.7z M583.5,279.6l-4.6-5
		c-0.4-0.4-0.4-1,0.1-1.4c0.4-0.4,1-0.4,1.4,0.1l4.6,5c0.4,0.4,0.4,1-0.1,1.4C584.5,280,583.9,280,583.5,279.6z M586,277.3l-4.6-5
		c-0.4-0.4-0.4-1,0.1-1.4c0.4-0.4,1-0.4,1.4,0.1l4.6,5c0.4,0.4,0.4,1,0,1.4c0,0,0,0,0,0c-0.3,0.4-0.9,0.4-1.3,0.1
		C586.1,277.3,586.1,277.3,586,277.3L586,277.3z M592.4,274.7l-1.3-1.4l1.5-1.4l1.3,1.4L592.4,274.7z"/>
	<path class="st4" d="M431.7,184.5c0.1-2.4-1.8-4.4-4.2-4.5c-2.4-0.1-4.4,1.8-4.5,4.2c0,0.9,0.2,1.7,0.7,2.5
		c0.5,0.8,1.3,1.4,2.2,1.7l-0.2-1.4c-0.4-0.3-0.7-0.6-1-1c-1-1.4-0.7-3.4,0.7-4.4c1.4-1,3.4-0.7,4.4,0.7c0.1,0.1,0.1,0.2,0.2,0.3
		c0.2,0.4,0.4,0.8,0.5,1.2L431.7,184.5z"/>
	<path class="st4" d="M426.4,191.8l-0.2-1.3c-1.7-0.3-3.2-1.3-4.1-2.7c-1.9-2.9-1.1-6.8,1.8-8.7s6.8-1.1,8.7,1.8
		c0.9,1.4,1.2,3.1,0.9,4.7l1.1,0.7c1.1-4-1.3-8.1-5.3-9.2c-4-1.1-8.1,1.3-9.2,5.3c-0.6,2.1-0.2,4.3,1,6.1
		C422.3,190.3,424.3,191.5,426.4,191.8z"/>
	<path class="st4" d="M427.5,183.4c-0.3-0.2-0.6-0.1-0.8,0.2c-0.1,0.1-0.1,0.3-0.1,0.4l1.7,12.5c0,0.4,0.4,0.6,0.8,0.6
		c0.2,0,0.3-0.1,0.4-0.2l1.9-2.4l3.6,5.5c0.2,0.3,0.6,0.4,0.9,0.2l2.7-1.8c0.3-0.2,0.4-0.6,0.2-0.9l-3.6-5.5l3-0.8
		c0.4-0.1,0.6-0.5,0.5-0.8c0-0.2-0.2-0.3-0.3-0.4L427.5,183.4z"/>
	<path class="st4" d="M453,179c-0.1-2.4-2.1-4.3-4.6-4.2c-2.4,0.1-4.3,2.1-4.2,4.6c0,0.9,0.4,1.8,1,2.5c0.6,0.8,1.5,1.3,2.4,1.5
		l-0.3-1.4c-0.4-0.2-0.8-0.5-1.1-0.9c-1.2-1.3-1.2-3.2,0.1-4.4s3.2-1.2,4.4,0.1c0.1,0.1,0.2,0.3,0.3,0.4c0.3,0.3,0.5,0.7,0.6,1.1
		L453,179z"/>
	<path class="st4" d="M448.4,186.8l-0.3-1.2c-1.7-0.1-3.3-1-4.4-2.3c-2.2-2.7-1.7-6.7,1-8.9c2.7-2.2,6.7-1.7,8.9,1
		c1,1.3,1.5,3,1.4,4.6l1.1,0.6c0.7-4.1-2.1-8-6.2-8.7c-4.1-0.7-8,2.1-8.7,6.2c-0.4,2.1,0.2,4.3,1.6,6
		C444.2,185.7,446.2,186.7,448.4,186.8z"/>
	<path class="st4" d="M448.7,178.4c-0.3-0.1-0.6,0-0.8,0.3c-0.1,0.1-0.1,0.2,0,0.4l2.8,12.3c0.1,0.4,0.4,0.6,0.8,0.5
		c0.2,0,0.3-0.1,0.4-0.3l1.7-2.6l4.2,5.2c0.2,0.3,0.6,0.3,0.9,0.1l2.5-2c0.3-0.2,0.3-0.6,0.1-0.9l-4.1-5.2l2.9-1.1
		c0.3-0.1,0.5-0.5,0.4-0.9c-0.1-0.2-0.2-0.3-0.3-0.4L448.7,178.4z"/>
	<path class="st4" d="M453.1,204.9c-1.2-2.1-3.8-2.8-5.9-1.7s-2.8,3.8-1.7,5.9c0.5,0.8,1.2,1.4,2,1.8c0.9,0.4,1.9,0.5,2.8,0.3
		l-0.9-1.1c-0.5,0-1-0.1-1.4-0.3c-1.6-0.7-2.4-2.5-1.7-4.1c0.7-1.6,2.5-2.4,4.1-1.7c0.1,0,0.2,0.1,0.2,0.1c0.4,0.2,0.7,0.4,1,0.7
		L453.1,204.9z"/>
	<path class="st4" d="M452.5,213.8l-0.8-1c-1.6,0.7-3.4,0.6-4.9-0.1c-3.2-1.4-4.6-5.2-3.1-8.3c1.4-3.2,5.2-4.6,8.3-3.1
		c1.5,0.7,2.7,2,3.3,3.5l1.3,0c-1.2-4-5.4-6.2-9.4-5c-4,1.2-6.2,5.4-5,9.4c0.6,2.1,2.1,3.7,4.1,4.6
		C448.3,214.8,450.6,214.8,452.5,213.8z"/>
	<path class="st4" d="M449,206.2c-0.3,0-0.6,0.3-0.6,0.6c0,0.2,0.1,0.3,0.2,0.4l8.1,9.7c0.2,0.3,0.7,0.3,0.9,0.1
		c0.1-0.1,0.2-0.3,0.2-0.4l0.3-3.1l6,2.7c0.3,0.1,0.7,0,0.9-0.3l1.3-3c0.1-0.3,0-0.7-0.3-0.9l-6-2.7l2-2.3c0.2-0.3,0.2-0.7,0-0.9
		c-0.1-0.1-0.3-0.2-0.5-0.2L449,206.2z"/>
	<path class="st4" d="M424.3,205.3c-1.2-2.1-3.8-2.9-5.9-1.7c-2.1,1.2-2.9,3.8-1.7,5.9c0.4,0.8,1.1,1.5,2,1.9
		c0.9,0.4,1.9,0.5,2.8,0.3l-0.9-1.1c-0.5,0-1-0.1-1.4-0.3c-1.5-0.8-2.1-2.7-1.3-4.3c0.8-1.4,2.4-2,3.9-1.4c0.4,0.2,0.7,0.4,1,0.8
		L424.3,205.3z"/>
	<path class="st4" d="M423.6,214.2l-0.8-1c-1.6,0.6-3.4,0.6-4.9-0.2c-3.2-1.5-4.5-5.2-3.1-8.4c1.5-3.2,5.2-4.5,8.4-3.1
		c1.5,0.7,2.7,2,3.3,3.6l1.3,0c-1.2-4-5.4-6.2-9.4-5.1c-4,1.2-6.2,5.4-5.1,9.4c0.6,2.1,2.1,3.8,4,4.7
		C419.3,215.1,421.6,215.1,423.6,214.2z"/>
	<path class="st4" d="M420.1,206.6c-0.3,0-0.6,0.2-0.6,0.6c0,0.2,0.1,0.3,0.2,0.4l8,9.8c0.2,0.3,0.7,0.3,0.9,0.1
		c0.1-0.1,0.2-0.3,0.2-0.4l0.4-3.1l6,2.8c0.3,0.1,0.7,0,0.9-0.3l1.4-3c0.1-0.3,0-0.7-0.3-0.9l-6-2.8l2.1-2.3c0.2-0.3,0.2-0.7,0-0.9
		c-0.1-0.1-0.3-0.2-0.5-0.2L420.1,206.6z"/>
	<path class="st4" d="M478.5,200.5c0.3-2.4-1.4-4.6-3.8-4.9s-4.6,1.4-4.9,3.8c-0.1,0.9,0.1,1.9,0.5,2.7c0.5,0.8,1.2,1.5,2.1,1.9
		l-0.1-1.4c-0.4-0.3-0.7-0.6-1-1c-0.9-1.5-0.5-3.4,0.9-4.3s3.4-0.5,4.3,0.9c0.1,0.1,0.1,0.2,0.2,0.4c0.2,0.4,0.3,0.8,0.4,1.2
		L478.5,200.5z"/>
	<path class="st4" d="M472.7,207.3l-0.1-1.3c-1.7-0.4-3.1-1.5-3.9-3c-1.7-3-0.6-6.9,2.4-8.6c3-1.7,6.9-0.6,8.6,2.4
		c0.8,1.5,1,3.2,0.6,4.8l1,0.7c1.4-3.9-0.7-8.2-4.7-9.6c-3.9-1.4-8.2,0.7-9.6,4.7c-0.7,2-0.5,4.3,0.6,6.2
		C468.7,205.6,470.6,206.9,472.7,207.3z"/>
	<path class="st4" d="M474.4,199.1c-0.3-0.2-0.6-0.1-0.8,0.2c-0.1,0.1-0.1,0.2-0.1,0.4l0.8,12.6c0,0.4,0.3,0.7,0.7,0.6
		c0.2,0,0.3-0.1,0.5-0.2l2-2.3l3.3,5.8c0.2,0.3,0.6,0.4,0.9,0.2l2.8-1.6c0.3-0.2,0.4-0.6,0.2-0.9l-3.3-5.8l3-0.6
		c0.4-0.1,0.6-0.4,0.5-0.8c0-0.2-0.1-0.3-0.3-0.4L474.4,199.1z"/>
	<path class="st4" d="M529.8,262.6c-0.3-2.4-2.5-4.1-4.9-3.7c-2.4,0.3-4.1,2.5-3.7,4.9c0.1,0.9,0.5,1.8,1.2,2.4
		c0.7,0.7,1.6,1.2,2.5,1.3l-0.5-1.4c-0.5-0.2-0.9-0.4-1.2-0.8c-1.1-1.3-0.9-3.3,0.4-4.4c1.2-1,3-1,4.1,0.1c0.3,0.3,0.5,0.7,0.7,1.1
		L529.8,262.6z"/>
	<path class="st4" d="M525.9,270.7l-0.4-1.2c-1.7,0-3.4-0.7-4.6-1.9c-2.4-2.5-2.3-6.5,0.2-8.9c2.5-2.4,6.5-2.3,8.9,0.2
		c1.2,1.2,1.8,2.8,1.8,4.5l1.2,0.5c0.3-4.1-2.8-7.8-6.9-8.1c-4.1-0.3-7.8,2.8-8.1,6.9c-0.2,2.1,0.6,4.3,2.1,5.8
		C521.6,270,523.8,270.8,525.9,270.7z"/>
	<path class="st4" d="M525.5,262.3c-0.3-0.1-0.6,0-0.8,0.4c0,0.1,0,0.3,0,0.4l3.9,12c0.1,0.4,0.5,0.5,0.8,0.4
		c0.2-0.1,0.3-0.2,0.4-0.3l1.4-2.7l4.6,4.8c0.3,0.3,0.7,0.3,0.9,0l2.3-2.3c0.3-0.3,0.3-0.7,0-0.9l-4.6-4.8l2.8-1.3
		c0.3-0.2,0.5-0.6,0.3-0.9c-0.1-0.2-0.2-0.3-0.4-0.3L525.5,262.3z"/>
	<path class="st4" d="M520,235.1c0.6-2.3-0.9-4.7-3.2-5.2c-2.3-0.6-4.7,0.9-5.2,3.2c-0.2,0.9-0.1,1.9,0.2,2.7
		c0.4,0.9,1.1,1.6,1.9,2.1l0-1.4c-0.4-0.3-0.7-0.7-0.8-1.1c-0.8-1.6-0.1-3.4,1.5-4.2c1.6-0.8,3.4-0.1,4.2,1.5c0,0.1,0.1,0.2,0.1,0.3
		c0.2,0.4,0.3,0.8,0.3,1.3L520,235.1z"/>
	<path class="st4" d="M513.5,241.3l0-1.3c-1.6-0.6-2.9-1.8-3.6-3.4c-1.4-3.2,0.1-6.9,3.3-8.3c3.2-1.4,6.9,0.1,8.3,3.3
		c0.7,1.5,0.7,3.3,0,4.8l1,0.8c1.8-3.8,0.2-8.2-3.6-10c-3.8-1.8-8.2-0.2-10,3.6c-0.9,1.9-1,4.2-0.1,6.2
		C509.7,239.1,511.4,240.6,513.5,241.3z"/>
	<path class="st4" d="M516.1,233.3c-0.2-0.2-0.6-0.2-0.8,0c-0.1,0.1-0.2,0.3-0.2,0.4l-0.6,12.6c0,0.4,0.3,0.7,0.6,0.7
		c0.2,0,0.3,0,0.5-0.2l2.3-2l2.6,6.1c0.1,0.3,0.5,0.5,0.9,0.3l3-1.3c0.3-0.1,0.5-0.5,0.3-0.9l-2.6-6.1l3.1-0.3
		c0.4,0,0.6-0.4,0.6-0.7c0-0.2-0.1-0.3-0.2-0.4L516.1,233.3z"/>
	<path class="st4" d="M490.9,225.4c-0.9-2.2-3.4-3.3-5.7-2.4c-2.2,0.9-3.3,3.4-2.4,5.7c0.3,0.9,1,1.6,1.8,2.1
		c0.8,0.5,1.8,0.7,2.8,0.6l-0.8-1.2c-0.5,0-0.9-0.2-1.3-0.5c-1.5-0.9-1.9-2.9-1-4.3s2.9-1.9,4.3-1c0.4,0.2,0.7,0.5,0.9,0.9
		L490.9,225.4z"/>
	<path class="st4" d="M489.1,234.2l-0.7-1.1c-1.7,0.4-3.4,0.2-4.9-0.8c-3-1.8-3.9-5.7-2-8.7c1.8-3,5.7-3.9,8.7-2
		c1.4,0.9,2.4,2.3,2.8,3.9l1.3,0.1c-0.7-4.1-4.6-6.8-8.7-6.1c-4.1,0.7-6.8,4.6-6.1,8.7c0.4,2.1,1.6,4,3.4,5.1
		C484.7,234.6,487,234.8,489.1,234.2z"/>
	<path class="st4" d="M486.6,226.2c-0.3,0-0.6,0.2-0.6,0.5c0,0.1,0,0.3,0.1,0.4l6.7,10.7c0.2,0.3,0.6,0.4,0.9,0.2
		c0.1-0.1,0.2-0.2,0.3-0.4l0.7-3l5.6,3.5c0.3,0.2,0.7,0.1,0.9-0.2l1.7-2.8c0.2-0.3,0.1-0.7-0.2-0.9l-5.6-3.5l2.4-2
		c0.3-0.2,0.3-0.7,0.1-0.9c-0.1-0.1-0.3-0.2-0.4-0.2L486.6,226.2z"/>
	<path class="st4" d="M423.5,265.5c0.2-1.5,0.4-3.1,0.6-4.6c0.2-1.5,0.4-3.1,0.7-4.6c0,0.2,0.1-0.8,0.2-1.4l-5.7-0.8
		c-0.4-0.1-0.9,0.1-1.2,0.5l-0.1,0.2l-1.4,9.7c0.1,0.2,0.1,0.3,0.2,0.5c0.2,0.2,0.4,0.4,0.7,0.4l5.9,0.8L423.5,265.5z"/>
	<path class="st4" d="M440.9,257.3c0-0.6-0.4-1.1-0.9-1.4c-0.3-0.1-0.6-0.2-0.9-0.3c-1.7-0.3-3.4-0.5-5-0.7c-0.2,0-0.2,0-0.2-0.3
		c0.2-0.6,0.4-1.2,0.6-1.8c0.3-0.8,0.4-1.6,0.3-2.5c-0.1-0.8-0.3-1.5-0.5-2.3c-0.1-0.4-0.3-0.8-0.7-1c-0.7-0.4-1.5-0.5-2.3-0.3
		c-0.5,0.1-0.9,0.6-0.9,1.1c-0.1,0.8-0.2,1.6-0.3,2.4c0,0.3-0.1,0.5-0.3,0.7c-0.8,1-1.5,2-2.3,2.9c-0.4,0.5-0.9,0.9-1.3,1.3l0,0
		l-0.3,2.1c-0.4,2.7-0.8,5.4-1.2,8.1c0.5,0.4,1,0.6,1.6,0.7c2.9,0.4,5.7,0.8,8.6,1.2c0.5,0.1,1,0.1,1.5,0c1-0.1,1.7-0.9,1.9-1.8
		c0.1-0.4,0.1-0.8,0-1.1c0-0.1,0-0.1,0.1-0.2c0.5-0.4,0.7-1,0.8-1.6c0-0.2,0-0.5-0.1-0.7c0-0.1,0-0.2,0.1-0.3
		c0.4-0.4,0.7-0.9,0.8-1.5c0-0.3,0-0.6,0-0.8c0-0.1,0-0.2,0-0.2c0.3-0.3,0.6-0.7,0.7-1.1l0,0l0.1-0.6
		C441,257.5,441,257.4,440.9,257.3z"/>
	<path class="st4" d="M347,310.2c-0.2-1.5-0.4-3.1-0.6-4.6c-0.2-1.6-0.4-3.1-0.6-4.6c0,0.2-0.1-0.8-0.2-1.4l-5.7,0.7
		c-0.5,0-0.9,0.3-1,0.8c0,0.1,0,0.1-0.1,0.2l1.2,9.8c0.1,0.2,0.2,0.3,0.3,0.4c0.2,0.2,0.5,0.3,0.8,0.2l5.9-0.7L347,310.2z"/>
	<path class="st4" d="M361.7,297.7c-0.2-0.6-0.6-1-1.2-1.1c-0.3-0.1-0.7-0.1-1,0c-1.7,0.2-3.4,0.4-5,0.6c-0.2,0-0.2,0-0.2-0.2
		c0-0.6,0-1.2,0-1.9c0.1-0.8,0-1.7-0.4-2.4c-0.3-0.7-0.7-1.4-1.1-2c-0.2-0.4-0.5-0.7-0.9-0.8c-0.8-0.2-1.6-0.1-2.3,0.3
		c-0.4,0.3-0.7,0.8-0.6,1.3c0.1,0.8,0.2,1.6,0.4,2.4c0,0.3,0,0.5-0.1,0.7c-0.5,1.1-0.9,2.3-1.4,3.4c-0.3,0.6-0.6,1.1-0.9,1.6l0,0.1
		l0.3,2.1c0.3,2.7,0.7,5.4,1,8.1c0.6,0.3,1.2,0.4,1.8,0.3c2.9-0.4,5.7-0.7,8.6-1.1c0.5,0,1-0.2,1.4-0.4c0.9-0.4,1.4-1.3,1.4-2.3
		c0-0.4-0.1-0.8-0.3-1.1c0-0.1,0-0.1,0-0.2c0.3-0.5,0.5-1.2,0.4-1.8c0-0.2-0.1-0.4-0.2-0.6c-0.1-0.1-0.1-0.2,0-0.3
		c0.3-0.5,0.4-1,0.4-1.6c-0.1-0.3-0.2-0.5-0.3-0.8c0-0.1,0-0.2,0-0.2c0.3-0.4,0.4-0.8,0.4-1.3l0,0l-0.1-0.6L361.7,297.7z"/>
	<path class="st4" d="M429.9,292.8c-0.1-1.6-0.1-3.1-0.2-4.7c-0.1-1.6-0.1-3.1-0.2-4.7c0,0.2,0-0.8,0-1.4l-5.8,0.2
		c-0.4,0-0.8,0.3-1,0.7l-0.1,0.2l0.4,9.8c0.1,0.2,0.2,0.3,0.3,0.5c0.2,0.2,0.5,0.3,0.8,0.3l5.9-0.2L429.9,292.8z"/>
	<path class="st4" d="M445.6,281.6c-0.1-0.6-0.6-1-1.1-1.2c-0.3-0.1-0.6-0.1-0.9-0.1c-1.7,0-3.4,0.1-5.1,0.2c-0.2,0-0.2,0-0.2-0.2
		c0.1-0.6,0.1-1.2,0.2-1.9c0.2-0.8,0.1-1.7-0.2-2.5c-0.3-0.7-0.6-1.4-0.9-2.1c-0.1-0.4-0.5-0.7-0.9-0.8c-0.7-0.3-1.6-0.2-2.3,0.2
		c-0.5,0.2-0.7,0.7-0.7,1.2c0.1,0.8,0.1,1.6,0.2,2.4c0,0.3,0,0.5-0.1,0.7c-0.6,1.1-1.1,2.2-1.7,3.2c-0.3,0.5-0.7,1.1-1,1.6l0,0
		l0.1,2.2c0.1,2.7,0.2,5.4,0.3,8.2c0.5,0.3,1.1,0.4,1.7,0.4c2.9-0.1,5.8-0.2,8.7-0.3c0.5,0,1-0.1,1.5-0.2c0.9-0.3,1.5-1.2,1.6-2.1
		c0-0.4,0-0.8-0.2-1.1c0-0.1,0-0.1,0-0.2c0.4-0.5,0.6-1.1,0.5-1.7c0-0.2-0.1-0.4-0.2-0.7c-0.1-0.1-0.1-0.2,0-0.3
		c0.4-0.4,0.5-1,0.5-1.6c0-0.3-0.1-0.5-0.2-0.8c0-0.1,0-0.2,0-0.2c0.3-0.4,0.5-0.8,0.5-1.2l0,0l0-0.6L445.6,281.6z"/>
	<path class="st4" d="M484.6,297.2c-0.5-1.5-1-2.9-1.5-4.4c-0.5-1.5-0.9-3-1.5-4.4c0.1,0.2-0.2-0.7-0.4-1.3l-5.5,1.8
		c-0.5,0.1-0.8,0.5-0.8,1c0,0.1,0,0.2,0,0.2l3.1,9.3c0.1,0.1,0.3,0.3,0.4,0.4c0.2,0.1,0.5,0.2,0.8,0.1l5.6-1.9L484.6,297.2z"/>
	<path class="st4" d="M496.6,282c-0.3-0.5-0.8-0.8-1.4-0.9c-0.3,0-0.6,0.1-0.9,0.2c-1.6,0.5-3.2,1.1-4.8,1.6
		c-0.2,0.1-0.2,0.1-0.2-0.2c-0.1-0.6-0.2-1.2-0.3-1.9c-0.1-0.8-0.4-1.6-0.9-2.3c-0.5-0.6-1-1.2-1.4-1.8c-0.3-0.3-0.6-0.5-1.1-0.6
		c-0.8-0.1-1.6,0.2-2.1,0.8c-0.4,0.4-0.5,0.9-0.3,1.4c0.3,0.7,0.5,1.5,0.8,2.2c0.1,0.2,0.1,0.5,0.1,0.8c-0.3,1.2-0.5,2.4-0.8,3.6
		c-0.2,0.6-0.4,1.2-0.6,1.8l0,0.1l0.7,2c0.9,2.6,1.7,5.2,2.6,7.7c0.6,0.1,1.2,0.1,1.8-0.1c2.7-0.9,5.5-1.8,8.2-2.8
		c0.5-0.1,0.9-0.4,1.4-0.7c0.8-0.6,1.2-1.5,0.9-2.5c-0.1-0.4-0.2-0.7-0.5-1c0-0.1,0-0.1,0-0.2c0.2-0.6,0.2-1.2,0-1.8
		c-0.1-0.2-0.2-0.4-0.3-0.6c-0.1-0.1-0.1-0.2-0.1-0.3c0.2-0.5,0.2-1.1,0-1.7c-0.1-0.3-0.3-0.5-0.4-0.7c0-0.1-0.1-0.2-0.1-0.2
		c0.2-0.4,0.2-0.9,0.2-1.3c0,0,0,0,0,0l-0.2-0.6L496.6,282z"/>
	<path class="st4" d="M403.3,312.2c-0.4-1.5-0.8-3-1.1-4.5c-0.4-1.5-0.7-3-1.1-4.6c0,0.2-0.2-0.8-0.3-1.4l-5.6,1.4
		c-0.5,0.1-0.8,0.4-0.9,0.9c0,0.1,0,0.2,0,0.2l2.3,9.6c0.1,0.1,0.2,0.3,0.4,0.4c0.2,0.2,0.5,0.2,0.8,0.1l5.8-1.4L403.3,312.2z"/>
	<path class="st4" d="M416.4,298c-0.2-0.5-0.7-0.9-1.3-1c-0.3,0-0.6,0-1,0.1c-1.6,0.4-3.3,0.8-4.9,1.2c-0.2,0.1-0.2,0-0.2-0.2
		c0-0.6-0.1-1.3-0.1-1.9c0-0.8-0.2-1.6-0.7-2.4c-0.4-0.6-0.9-1.3-1.3-1.9c-0.2-0.4-0.6-0.6-1-0.7c-0.8-0.2-1.6,0.1-2.2,0.6
		c-0.4,0.3-0.6,0.9-0.4,1.4c0.2,0.8,0.4,1.5,0.6,2.3c0.1,0.2,0.1,0.5,0,0.8c-0.4,1.2-0.7,2.3-1.1,3.5c-0.2,0.6-0.5,1.2-0.7,1.7
		l0,0.1l0.5,2.1c0.6,2.6,1.3,5.3,1.9,7.9c0.6,0.2,1.2,0.2,1.8,0c2.8-0.7,5.6-1.4,8.4-2.1c0.5-0.1,1-0.3,1.4-0.5
		c0.8-0.5,1.3-1.4,1.1-2.4c0-0.4-0.2-0.7-0.4-1.1c0-0.1,0-0.1,0-0.2c0.3-0.6,0.3-1.2,0.1-1.8c-0.1-0.2-0.2-0.4-0.3-0.6
		c-0.1-0.1-0.1-0.2,0-0.3c0.3-0.5,0.3-1.1,0.2-1.6c-0.1-0.3-0.2-0.5-0.4-0.8c0-0.1-0.1-0.2,0-0.2c0.2-0.4,0.3-0.9,0.3-1.3
		c0,0,0,0,0,0l-0.1-0.6L416.4,298z"/>
	<path class="st4" d="M397.1,260.8l-5.8-1.2c-0.3-0.1-0.6,0-0.8,0.2c-0.1,0.1-0.3,0.3-0.4,0.4l-2.1,9.6c0,0.1,0,0.2,0,0.2
		c0.1,0.5,0.5,0.8,0.9,0.8l5.6,1.2c0.1-0.6,0.3-1.6,0.3-1.4c0.3-1.5,0.6-3.1,1-4.6c0.3-1.5,0.6-3,1-4.6L397.1,260.8z"/>
	<path class="st4" d="M410.7,274.5l0.1-0.6l0,0c0-0.5-0.1-0.9-0.3-1.3c0,0,0-0.1,0-0.2c0.1-0.2,0.2-0.5,0.3-0.8
		c0.1-0.6,0-1.1-0.2-1.6c-0.1-0.1-0.1-0.2,0-0.3c0.1-0.2,0.2-0.4,0.3-0.6c0.2-0.6,0.1-1.2-0.2-1.8c0-0.1,0-0.1,0-0.2
		c0.2-0.3,0.3-0.7,0.4-1.1c0.2-1-0.3-1.9-1.2-2.4c-0.4-0.2-0.9-0.4-1.4-0.5c-2.8-0.6-5.7-1.2-8.5-1.8c-0.6-0.1-1.2-0.1-1.8,0.1
		c-0.5,2.7-1.1,5.3-1.7,8l-0.4,2.1l0,0.1c0.3,0.6,0.6,1.1,0.8,1.7c0.4,1.1,0.8,2.3,1.2,3.5c0.1,0.2,0.1,0.5,0,0.7
		c-0.2,0.8-0.4,1.6-0.6,2.3c-0.1,0.5,0.1,1,0.5,1.3c0.6,0.5,1.4,0.7,2.2,0.5c0.4-0.1,0.8-0.3,1-0.7c0.4-0.7,0.8-1.3,1.2-2
		c0.4-0.7,0.6-1.6,0.6-2.4c0-0.6,0-1.2,0-1.9c0-0.2,0-0.2,0.2-0.2c1.7,0.4,3.3,0.7,5,1.1c0.3,0.1,0.7,0.1,1,0c0.6-0.1,1.1-0.4,1.3-1
		L410.7,274.5z"/>
	<path class="st4" d="M336.8,314.9l-5.9-0.6c-0.3,0-0.6,0.1-0.8,0.2c-0.1,0.1-0.2,0.3-0.3,0.4l-0.9,9.8l0.1,0.2
		c0.1,0.4,0.5,0.7,1,0.7l5.8,0.5c0-0.6,0.1-1.6,0.1-1.4c0.1-1.6,0.3-3.1,0.4-4.7c0.1-1.5,0.3-3.1,0.5-4.7L336.8,314.9z"/>
	<path class="st4" d="M351.9,326.8l0-0.6l0,0c0-0.5-0.2-0.9-0.5-1.3c0,0,0-0.1,0-0.2c0.1-0.3,0.2-0.5,0.2-0.8
		c0.1-0.6-0.1-1.1-0.4-1.6c-0.1-0.1-0.1-0.2,0-0.3c0.1-0.2,0.2-0.4,0.2-0.6c0.1-0.6-0.1-1.2-0.4-1.8c0-0.1,0-0.1,0-0.2
		c0.2-0.4,0.2-0.7,0.2-1.1c0-1-0.5-1.9-1.4-2.2c-0.5-0.2-1-0.3-1.5-0.3c-2.9-0.3-5.8-0.5-8.6-0.8c-0.6-0.1-1.2,0-1.8,0.3
		c-0.2,2.7-0.5,5.4-0.8,8.1l-0.2,2.2l0,0c0.4,0.5,0.7,1.1,1,1.6c0.5,1.1,1,2.2,1.5,3.3c0.1,0.2,0.1,0.5,0.1,0.8
		c-0.1,0.8-0.2,1.6-0.3,2.4c-0.1,0.5,0.2,1,0.6,1.3c0.7,0.4,1.5,0.6,2.3,0.3c0.4-0.1,0.7-0.4,0.9-0.8c0.3-0.7,0.7-1.4,1-2.1
		c0.3-0.8,0.4-1.6,0.3-2.5c-0.1-0.6-0.1-1.3-0.1-1.9c0-0.2,0-0.2,0.2-0.2c1.7,0.2,3.4,0.3,5.1,0.5c0.3,0,0.6,0,1-0.1
		c0.6-0.1,1-0.6,1.2-1.1L351.9,326.8z"/>
	<path class="st4" d="M457.6,263.3l-5.8,1c-0.3,0-0.5,0.2-0.7,0.4c-0.1,0.2-0.1,0.3-0.2,0.5l1.7,9.7l0.1,0.2
		c0.3,0.4,0.7,0.6,1.2,0.4l5.7-1c-0.1-0.6-0.3-1.6-0.3-1.4c-0.3-1.5-0.6-3.1-0.8-4.6c-0.3-1.5-0.6-3.1-0.8-4.6L457.6,263.3z"/>
	<path class="st4" d="M475.4,270.8l-0.1-0.6l0,0c-0.2-0.4-0.4-0.8-0.8-1.1c0,0,0-0.1,0-0.2c0-0.3,0-0.6,0-0.8
		c-0.1-0.6-0.4-1.1-0.8-1.4c-0.1-0.1-0.1-0.2-0.1-0.3c0-0.2,0-0.4,0-0.7c-0.1-0.6-0.4-1.2-0.9-1.6c-0.1,0-0.1-0.1-0.1-0.2
		c0.1-0.4,0-0.8-0.1-1.1c-0.2-0.9-1-1.6-2-1.7c-0.5-0.1-1,0-1.5,0.1c-2.8,0.5-5.7,1-8.6,1.5c-0.6,0.1-1.2,0.4-1.6,0.8
		c0.5,2.7,1,5.4,1.5,8l0.4,2.1l0,0c0.5,0.4,0.9,0.8,1.4,1.3c0.8,0.9,1.6,1.9,2.4,2.8c0.2,0.2,0.3,0.4,0.3,0.7
		c0.1,0.8,0.2,1.6,0.4,2.4c0.1,0.5,0.5,0.9,1,1c0.8,0.2,1.6,0.1,2.3-0.3c0.3-0.2,0.6-0.6,0.6-1c0.1-0.8,0.3-1.5,0.4-2.3
		c0.1-0.8,0-1.7-0.3-2.4c-0.2-0.6-0.4-1.2-0.6-1.8c-0.1-0.2-0.1-0.2,0.1-0.3c1.7-0.3,3.3-0.6,5-0.9c0.3-0.1,0.6-0.2,0.9-0.3
		c0.5-0.3,0.8-0.8,0.8-1.4C475.4,271,475.4,270.9,475.4,270.8z"/>
	<path d="M356.1,131c0.4-1.6,1.8-2.8,3.5-3.1c0.3,0,0.6-0.1,0.9-0.1l5.1,0.1c5.4-4,10.1-7.8,15.4-11.9c4.1-2.9,5.4-2.9,9.2,0.2
		c5.1,4.1,10,8.3,15.2,12.4l4.8,0.1c0.3,0,0.6,0,0.9,0.1c1.7,0.3,3,1.6,3.4,3.2l-0.2,0c0,0.1,0,0.2,0,0.3c0,0.3,0.1,0.5,0.1,0.8
		l-0.1,5.1c3.4,0.3,6.1,3.1,6,6.6l-0.6,30c0,1.3-0.4,2.5-1.2,3.6l-24.2-15.7l0,0l0,0c-1-0.6-2.3-0.3-2.9,0.7c-0.6,1-0.3,2.2,0.6,2.8
		l0,0l22.8,14.8c-0.6,0.1-1.1,0.2-1.7,0.2l-57.5-1.1c-0.5,0-1.1-0.1-1.6-0.2l23.4-14l0,0c1-0.6,1.2-1.9,0.6-2.9
		c-0.6-0.9-1.8-1.2-2.7-0.7l0,0l0,0l-24.9,14.9c-0.7-1.1-1.1-2.4-1.1-3.7l0.6-30c0.1-3.4,2.8-6.2,6.2-6.4l0.1-5.1
		c0-0.3,0-0.5,0.1-0.8c0-0.1,0-0.2,0.1-0.2L356.1,131L356.1,131z M411.2,135.5c0-2.3-0.5-3.4-3-3.5l-46-0.9c-2.5,0-3.1,1.1-3.1,3.4
		l-0.2,9.5l-4.4-0.1l24.8,13.5c5.1,2.5,5.8,2.5,11.4,0l24.9-11.9l-4.6-0.1C411,142.1,411.1,138.9,411.2,135.5L411.2,135.5z
		 M400.2,147.2l-30.7-0.6c-0.8,0-1.5,0.7-1.6,1.5c0,0.8,0.7,1.5,1.5,1.6l30.7,0.6c0.8,0,1.5-0.7,1.6-1.5
		C401.8,147.9,401.1,147.2,400.2,147.2C400.3,147.2,400.3,147.2,400.2,147.2L400.2,147.2L400.2,147.2z M400.4,138l-30.7-0.6
		c-0.8,0-1.5,0.7-1.6,1.5c0,0.8,0.7,1.5,1.5,1.6l30.7,0.6c0.8,0,1.5-0.7,1.6-1.5C402,138.7,401.3,138,400.4,138
		C400.4,138,400.4,138,400.4,138L400.4,138L400.4,138z"/>
	<path d="M549.1,293.4c-19.7-0.4-41.1,4.4-41.3,15.8l-1.2,65.3c-0.2,11.4,20.9,16.9,40.7,17.3c19.7,0.4,41.1-4.4,41.3-15.8l1.2-65.3
		C590,299.4,568.8,293.8,549.1,293.4z M580.7,354.1c0,1.9-10.4,8.1-32.9,7.7s-32.7-7-32.6-9l0.2-11.4c7.9,4.3,20.6,6.5,32.7,6.7
		s24.8-1.5,32.9-5.5L580.7,354.1z M581.1,332.4c0,1.9-10.4,8.1-32.9,7.7c-22.6-0.4-32.7-7-32.6-9l0.2-11.4
		c7.9,4.3,20.6,6.5,32.7,6.7c12.1,0.2,24.8-1.5,32.9-5.5L581.1,332.4z M548.9,301.7c22.6,0.4,32.7,7,32.6,9s-10.4,8.1-32.9,7.7
		s-32.7-7-32.6-9S526.4,301.2,548.9,301.7L548.9,301.7z M547.4,383.7c-22.6-0.4-32.7-7-32.6-9l0.2-11.4c7.9,4.3,20.6,6.5,32.7,6.7
		c12.1,0.2,24.8-1.5,32.9-5.5l-0.2,11.3C580.3,377.8,570,384,547.4,383.7L547.4,383.7z"/>
	
		<ellipse transform="matrix(1.872460e-02 -0.9998 0.9998 1.872460e-02 183.0174 842.5814)" cx="520.8" cy="328.1" rx="3.1" ry="3.1"/>
	
		<ellipse transform="matrix(1.872460e-02 -0.9998 0.9998 1.872460e-02 160.8652 863.5228)" cx="520.4" cy="349.8" rx="3.1" ry="3.1"/>
	
		<ellipse transform="matrix(1.872460e-02 -0.9998 0.9998 1.872460e-02 138.7028 884.4739)" cx="519.9" cy="371.6" rx="3.1" ry="3.1"/>
	<path d="M356.7,260.7l-37.3,6.3c-4.6,0.8-7.8,5.2-7,9.9l13.3,78.8c0.8,4.6,5.2,7.8,9.9,7l37.4-6.3c4.6-0.8,7.8-5.2,7-9.9
		l-13.3-78.8C365.8,263,361.4,259.9,356.7,260.7z M333.5,271.5l11.4-1.9c0.7-0.1,1.4,0.4,1.5,1.2c0.1,0.7-0.4,1.3-1,1.4l-11.4,1.9
		c-0.7,0.1-1.4-0.4-1.5-1.1C332.3,272.3,332.8,271.7,333.5,271.5L333.5,271.5z M353.3,353.8c-1.7,0.3-3.4-0.9-3.7-2.6
		s0.9-3.4,2.6-3.7c1.7-0.3,3.4,0.9,3.7,2.6c0,0,0,0,0,0C356.1,351.8,355,353.5,353.3,353.8L353.3,353.8z M374.5,338.9l-46.2,7.8
		l-10.7-63.2l46.2-7.8L374.5,338.9z"/>
	<path d="M599.4,170.4l-6.5-18.9l0.3-14c0.1-4-3.1-7.3-7.1-7.4l0,0l-27.3-0.5l0.1-6.8c0-1.7-1.3-3-2.9-3.1l-16.4-0.3
		c-1.7,0-3,1.3-3.1,2.9l-0.1,6.8l-0.7,0c-4-0.1-7.3,3.1-7.4,7.1l0,0l-0.3,14l-7.2,18.6c-0.5,1.4-0.8,2.9-0.9,4.4l-0.1,5.1
		c0,1.2,0.9,2.1,2.1,2.2l0,0l75.8,1.4c1.2,0,2.1-0.9,2.2-2.1c0,0,0,0,0,0l0.1-5.1C600.1,173.3,599.9,171.9,599.4,170.4z
		 M543.1,126.5l9.2,0.2l-0.2,12l-9.2-0.2L543.1,126.5z M541.5,165.5c0,0.2-0.1,0.3-0.3,0.5c-0.2,0.2-0.4,0.3-0.6,0.4
		c-0.3,0.1-0.5,0.2-0.8,0.3c-0.3,0.1-0.6,0.1-0.9,0.1l-6-0.1c-0.3,0-0.6,0-0.9-0.1c-0.2-0.1-0.5-0.2-0.7-0.3
		c-0.2-0.1-0.3-0.2-0.4-0.4c-0.1-0.2-0.1-0.3,0-0.5l0.9-3c0.1-0.2,0.2-0.3,0.3-0.4c0.2-0.1,0.4-0.3,0.6-0.3c0.3-0.1,0.6-0.2,0.8-0.3
		c0.3-0.1,0.6-0.1,0.9-0.1l5.6,0.1c0.3,0,0.6,0,0.8,0.1c0.2,0.1,0.4,0.1,0.6,0.3c0.2,0.1,0.3,0.2,0.4,0.4c0.1,0.1,0.1,0.3,0.1,0.4
		L541.5,165.5z M543.1,157.5c0,0.2-0.1,0.3-0.2,0.4c-0.2,0.1-0.3,0.2-0.5,0.3c-0.2,0.1-0.5,0.2-0.7,0.2c-0.3,0.1-0.6,0.1-0.9,0.1
		l-5.4-0.1c-0.3,0-0.5,0-0.8-0.1c-0.2,0-0.4-0.1-0.6-0.2c-0.1-0.1-0.3-0.2-0.4-0.3c-0.1-0.1-0.1-0.2-0.1-0.4l0.8-2.6
		c0.1-0.1,0.1-0.3,0.3-0.4c0.2-0.1,0.3-0.2,0.5-0.3c0.2-0.1,0.5-0.1,0.7-0.2c0.3,0,0.5,0,0.8,0l5.2,0.1c0.3,0,0.5,0,0.8,0.1
		c0.2,0,0.4,0.1,0.6,0.2c0.1,0.1,0.3,0.2,0.4,0.3c0.1,0.1,0.1,0.2,0.1,0.3L543.1,157.5z M557.3,165.7c0,0.2-0.1,0.3-0.2,0.5
		c-0.1,0.2-0.3,0.3-0.5,0.4c-0.2,0.1-0.5,0.2-0.7,0.3c-0.3,0.1-0.6,0.1-0.9,0.1l-5.9-0.1c-0.3,0-0.6,0-0.9-0.1
		c-0.2-0.1-0.5-0.2-0.7-0.3c-0.2-0.1-0.3-0.2-0.4-0.4c-0.1-0.1-0.1-0.3-0.1-0.5l0.4-3c0-0.2,0.1-0.3,0.2-0.4
		c0.2-0.1,0.3-0.3,0.5-0.3c0.2-0.1,0.5-0.2,0.7-0.2c0.3-0.1,0.6-0.1,0.9-0.1l5.6,0.1c0.3,0,0.6,0,0.9,0.1c0.2,0.1,0.5,0.1,0.7,0.3
		c0.2,0.1,0.3,0.2,0.5,0.4c0.1,0.1,0.2,0.3,0.2,0.4L557.3,165.7z M557.7,157.8c0,0.2-0.1,0.3-0.2,0.4c-0.1,0.1-0.3,0.2-0.5,0.3
		c-0.2,0.1-0.4,0.2-0.7,0.2c-0.3,0-0.6,0.1-0.8,0.1l-5.5-0.1c-0.3,0-0.5,0-0.8-0.1c-0.2,0-0.4-0.1-0.6-0.2c-0.2-0.1-0.3-0.2-0.4-0.3
		c-0.1-0.1-0.1-0.3-0.1-0.4l0.4-2.6c0-0.1,0.1-0.3,0.2-0.4c0.1-0.1,0.3-0.2,0.5-0.3c0.2-0.1,0.4-0.1,0.7-0.2c0.3,0,0.5-0.1,0.8-0.1
		l5.2,0.2c0.3,0,0.5,0,0.8,0.1c0.2,0,0.4,0.1,0.6,0.2c0.2,0.1,0.3,0.2,0.4,0.3c0.1,0.1,0.1,0.2,0.1,0.4L557.7,157.8z M563.8,139
		c0-0.9,0.7-1.6,1.6-1.6l0,0l19.2,0.4c0.9,0,1.6,0.7,1.6,1.6v0l-0.1,3.2c0,0.9-0.7,1.6-1.6,1.6l0,0l-19.2-0.4
		c-0.9,0-1.6-0.7-1.6-1.6v0L563.8,139z M562.7,155.2c0-0.1,0.1-0.3,0.2-0.3l0,0c0.1-0.1,0.3-0.2,0.4-0.3c0.2-0.1,0.4-0.2,0.6-0.2
		c0.3,0,0.5-0.1,0.8-0.1l5.2,0.1c0.3,0,0.5,0,0.8,0.1c0.2,0,0.4,0.1,0.7,0.2c0.2,0.1,0.3,0.2,0.5,0.3c0.1,0.1,0.2,0.2,0.2,0.4
		l0.3,2.6c0,0.1,0,0.3-0.1,0.4c-0.1,0.1-0.3,0.2-0.4,0.3c-0.2,0.1-0.4,0.2-0.7,0.2c-0.3,0-0.5,0.1-0.8,0.1l-5.4-0.1
		c-0.3,0-0.6,0-0.8-0.1c-0.2,0-0.5-0.1-0.7-0.2c-0.2-0.1-0.3-0.2-0.5-0.3c-0.1-0.1-0.2-0.3-0.2-0.4L562.7,155.2z M573,166.4
		L573,166.4c-0.1,0.2-0.3,0.3-0.4,0.4c-0.2,0.1-0.5,0.2-0.7,0.3c-0.3,0.1-0.6,0.1-0.9,0.1l-5.9-0.1c-0.3,0-0.6,0-0.9-0.1
		c-0.3-0.1-0.5-0.2-0.7-0.3c-0.2-0.1-0.4-0.2-0.5-0.4c-0.1-0.1-0.2-0.3-0.2-0.5l0-3c0-0.2,0.1-0.3,0.2-0.4c0.1-0.1,0.3-0.3,0.5-0.3
		c0.2-0.1,0.4-0.2,0.7-0.2c0.3-0.1,0.6-0.1,0.9-0.1l5.6,0.1c0.3,0,0.6,0,0.9,0.1c0.3,0.1,0.5,0.1,0.7,0.3c0.2,0.1,0.4,0.2,0.5,0.4
		c0.1,0.1,0.2,0.3,0.2,0.4l0.3,3C573.2,166.2,573.1,166.4,573,166.4L573,166.4z M588.9,166.7c-0.1,0.2-0.2,0.3-0.4,0.4
		c-0.2,0.1-0.4,0.2-0.7,0.3c-0.3,0.1-0.6,0.1-0.9,0.1l-5.9-0.1c-0.3,0-0.6,0-0.9-0.1c-0.3-0.1-0.5-0.2-0.8-0.3
		c-0.2-0.1-0.4-0.2-0.6-0.4c-0.1-0.1-0.2-0.3-0.2-0.5l-0.5-3c0-0.2,0-0.3,0.1-0.4c0.1-0.1,0.3-0.3,0.4-0.3c0.2-0.1,0.4-0.2,0.7-0.2
		c0.3-0.1,0.6-0.1,0.8-0.1l5.5,0.1c0.3,0,0.6,0,0.9,0.1c0.3,0.1,0.5,0.2,0.7,0.3l0,0c0.2,0.1,0.4,0.2,0.6,0.4
		c0.1,0.1,0.2,0.3,0.3,0.4l0.8,3C589,166.4,589,166.6,588.9,166.7L588.9,166.7z"/>
	<path class="st4" d="M370,282.4l-5.9,0.9c-0.3,0-0.5,0.2-0.7,0.4c-0.1,0.2-0.1,0.3-0.2,0.5l1.5,9.7l0.1,0.2
		c0.2,0.4,0.7,0.6,1.2,0.5l5.7-0.9c-0.1-0.6-0.3-1.6-0.2-1.4c-0.2-1.5-0.5-3.1-0.7-4.6s-0.5-3.1-0.7-4.6L370,282.4z"/>
	<path class="st4" d="M387.6,290.4l-0.1-0.6l0,0c-0.1-0.4-0.4-0.8-0.7-1.1c0,0,0-0.1,0-0.2c0-0.3,0-0.6,0-0.8
		c-0.1-0.6-0.4-1.1-0.8-1.5c-0.1-0.1-0.1-0.2-0.1-0.3c0-0.2,0-0.4,0-0.7c-0.1-0.6-0.4-1.2-0.8-1.6c0,0-0.1-0.1-0.1-0.2
		c0.1-0.4,0.1-0.8,0-1.1c-0.2-1-1-1.7-2-1.8c-0.5-0.1-1-0.1-1.5,0c-2.9,0.4-5.7,0.9-8.6,1.3c-0.6,0.1-1.2,0.3-1.6,0.7
		c0.4,2.7,0.8,5.3,1.2,8l0.3,2.1l0,0c0.5,0.4,0.9,0.9,1.3,1.3c0.8,0.9,1.5,1.9,2.3,2.9c0.2,0.2,0.3,0.4,0.3,0.7
		c0.1,0.8,0.2,1.6,0.3,2.4c0.1,0.5,0.4,0.9,0.9,1.1c0.8,0.3,1.6,0.2,2.3-0.3c0.4-0.2,0.6-0.6,0.7-1c0.2-0.8,0.3-1.5,0.5-2.3
		c0.1-0.8,0-1.7-0.3-2.5c-0.2-0.6-0.4-1.2-0.6-1.8c-0.1-0.2-0.1-0.2,0.2-0.2c1.7-0.2,3.4-0.5,5-0.8c0.3,0,0.6-0.1,0.9-0.3
		c0.5-0.3,0.8-0.8,0.9-1.4C387.6,290.6,387.6,290.5,387.6,290.4z"/>
	<path class="st4" d="M425.7,158.1c-0.7-2.3-3.1-3.6-5.4-2.9c-2.3,0.7-3.6,3.1-2.9,5.4c0.3,0.9,0.8,1.7,1.6,2.2
		c0.8,0.6,1.7,0.9,2.7,0.9l-0.7-1.3c-0.5-0.1-0.9-0.3-1.3-0.6c-1.5-1-1.9-2.9-0.9-4.3s2.9-1.9,4.3-0.9c0.1,0.1,0.2,0.2,0.3,0.2
		c0.3,0.3,0.6,0.6,0.9,1L425.7,158.1z"/>
	<path class="st4" d="M423.1,166.7l-0.6-1.1c-1.7,0.3-3.4-0.1-4.8-1.2c-2.8-2.1-3.3-6-1.3-8.8c2.1-2.8,6-3.3,8.8-1.3
		c1.3,1,2.2,2.5,2.5,4.2l1.3,0.3c-0.3-4.1-4-7.2-8.1-6.9c-4.1,0.3-7.2,4-6.9,8.1c0.2,2.1,1.3,4.1,3,5.4
		C418.8,166.7,421,167.2,423.1,166.7z"/>
	<path class="st4" d="M421.3,158.5c-0.3-0.1-0.6,0.1-0.7,0.5c0,0.1,0,0.3,0.1,0.4l5.8,11.2c0.2,0.3,0.6,0.5,0.9,0.3
		c0.2-0.1,0.3-0.2,0.3-0.4l1-2.9l5.3,4c0.3,0.2,0.7,0.2,0.9-0.1l1.9-2.6c0.2-0.3,0.2-0.7-0.1-0.9l-5.3-4l2.5-1.8
		c0.3-0.2,0.4-0.6,0.2-0.9c-0.1-0.1-0.3-0.2-0.4-0.3L421.3,158.5z"/>
	<path class="st4" d="M407.9,186.9c1.4-2,0.8-4.7-1.1-6.1c-2-1.4-4.7-0.8-6.1,1.1c-0.5,0.8-0.8,1.7-0.8,2.6c0,1,0.4,1.9,1,2.6
		l0.6-1.3c-0.2-0.4-0.4-0.9-0.4-1.4c0-1.7,1.5-3.1,3.2-3.1c1.6,0,2.9,1.3,3.1,2.8c0,0.4-0.1,0.9-0.2,1.3L407.9,186.9z"/>
	<path class="st4" d="M399.6,190.4l0.5-1.2c-1.3-1.1-2.1-2.8-2.1-4.5c-0.1-3.5,2.6-6.4,6.1-6.5c3.5-0.1,6.4,2.6,6.5,6.1
		c0.1,1.7-0.5,3.3-1.7,4.5l0.6,1.1c3-2.9,3.1-7.6,0.2-10.6s-7.6-3.1-10.6-0.2c-1.6,1.5-2.4,3.6-2.3,5.7
		C396.9,187,397.9,189,399.6,190.4z"/>
	<path class="st4" d="M404.8,183.8c-0.2-0.3-0.5-0.4-0.8-0.2c-0.1,0.1-0.2,0.2-0.3,0.3l-5.1,11.5c-0.2,0.3,0,0.7,0.3,0.9
		c0.2,0.1,0.3,0.1,0.5,0l2.9-1.1l0.2,6.6c0,0.4,0.3,0.6,0.7,0.6l3.2-0.1c0.4,0,0.6-0.3,0.6-0.7L407,195l3,0.9
		c0.4,0.1,0.7-0.1,0.8-0.4c0.1-0.2,0-0.4-0.1-0.5L404.8,183.8z"/>
	<path class="st4" d="M607.2,171.5l-4.7-2.4c-1.3-0.7-3-0.1-3.6,1.2l-0.9,1.8c-0.3,0.6-0.2,1.4,0.3,1.9c0.7,0.8,0.9,1.9,0.4,2.8
		c-0.5,0.9-1.5,1.5-2.5,1.3c-0.7-0.1-1.4,0.3-1.7,0.9l-1,1.9c-0.7,1.3-0.1,3,1.2,3.6l4.7,2.3l0.6-1.2l1.8,0.9l-0.6,1.2l14.8,7.4
		c1.3,0.7,3,0.1,3.6-1.2l0.7-1.4c0.3-0.7,0.1-1.5-0.4-2c-1-0.9-1.2-2.5-0.3-3.5c0.6-0.7,1.5-1,2.4-0.8c0.8,0.2,1.5-0.2,1.9-0.9l1-2
		c0.7-1.3,0.1-3-1.2-3.6l-14.7-7.4l-0.7,1.3l-1.8-0.9L607.2,171.5z M603.7,178.6l0.9-1.7l1.8,0.9l-0.9,1.7L603.7,178.6z
		 M602.1,181.6l0.9-1.7l1.8,0.9l-0.9,1.7L602.1,181.6z M600.7,184.6l0.9-1.7l1.8,0.9l-0.9,1.7L600.7,184.6z M615.5,181.6l-3,6.1
		c-0.2,0.5-0.9,0.7-1.4,0.4s-0.7-0.9-0.4-1.4l3-6.1c0.2-0.5,0.9-0.7,1.4-0.4C615.5,180.5,615.7,181.1,615.5,181.6z M612.4,180
		l-3.1,6.1c-0.2,0.5-0.9,0.7-1.4,0.4s-0.7-0.9-0.4-1.4l3-6.1c0.2-0.5,0.8-0.7,1.3-0.5c0,0,0,0,0,0c0.5,0.2,0.7,0.7,0.5,1.2
		C612.4,179.9,612.4,179.9,612.4,180z M607.7,174.9l-0.9,1.7l-1.8-0.9l0.9-1.7L607.7,174.9z"/>
	<path class="st4" d="M588.5,188.3l1.2-5.1c0.3-1.5-0.6-2.9-2-3.2l-2-0.4c-0.7-0.1-1.4,0.2-1.8,0.8c-0.6,0.9-1.6,1.3-2.6,1.1
		c-1-0.2-1.8-1.1-1.9-2.1c-0.1-0.7-0.6-1.3-1.3-1.5l-2-0.5c-1.5-0.3-2.9,0.6-3.2,2l-1.2,5.1l1.4,0.3l-0.4,2l-1.4-0.3l-3.6,16.1
		c-0.3,1.5,0.6,2.9,2,3.2l1.5,0.3c0.8,0.1,1.5-0.2,1.9-0.9c0.6-1.2,2.1-1.7,3.3-1.1c0.8,0.4,1.3,1.3,1.4,2.2c0,0.8,0.6,1.4,1.3,1.6
		l2.2,0.5c1.5,0.3,2.9-0.6,3.2-2l3.6-16l-1.5-0.3l0.4-2L588.5,188.3z M580.7,186.6l1.9,0.4l-0.4,2l-1.9-0.4L580.7,186.6z
		 M577.4,185.8l1.9,0.4l-0.4,2l-1.9-0.4L577.4,185.8z M574.2,185.1l1.9,0.4l-0.4,2l-1.9-0.4L574.2,185.1z M580.7,198.8l-6.6-1.5
		c-0.6-0.1-0.9-0.7-0.8-1.2c0.1-0.6,0.7-0.9,1.2-0.8l0,0l6.6,1.5c0.6,0.1,0.9,0.7,0.8,1.2C581.7,198.5,581.2,198.9,580.7,198.8
		L580.7,198.8z M581.4,195.4l-6.7-1.5c-0.6-0.1-0.9-0.7-0.8-1.2s0.7-0.9,1.2-0.8l6.6,1.5c0.5,0.1,0.9,0.6,0.8,1.2c0,0,0,0,0,0
		c0,0.5-0.5,0.9-1,0.8C581.6,195.4,581.5,195.4,581.4,195.4L581.4,195.4z M585.2,189.7l-1.9-0.4l0.5-2l1.9,0.4L585.2,189.7z"/>
	<path class="st4" d="M554.7,181.6l-1.5-5c-0.5-1.4-2-2.2-3.4-1.8l-1.9,0.6c-0.7,0.2-1.2,0.9-1.2,1.6c0,1-0.7,2-1.7,2.3
		c-1,0.3-2.1,0-2.7-0.9c-0.4-0.6-1.2-0.8-1.9-0.6l-2,0.6c-1.4,0.5-2.2,2-1.8,3.4l1.6,5l1.3-0.4l0.6,1.9l-1.3,0.4l4.9,15.7
		c0.5,1.4,2,2.2,3.4,1.8l1.5-0.5c0.7-0.3,1.2-1,1.2-1.7c-0.1-1.4,1-2.5,2.3-2.6c0.9,0,1.8,0.4,2.2,1.2c0.4,0.7,1.2,1,2,0.8l2.2-0.7
		c1.4-0.5,2.2-2,1.8-3.4l-4.9-15.7l-1.4,0.4l-0.6-1.9L554.7,181.6z M547.1,184l1.8-0.6l0.6,1.9l-1.8,0.6L547.1,184z M543.9,185
		l1.8-0.6l0.6,1.9l-1.8,0.6L543.9,185z M540.8,185.9l1.8-0.6l0.6,1.9l-1.8,0.6L540.8,185.9z M553.2,194.6l-6.5,2
		c-0.5,0.2-1.1-0.1-1.3-0.7c-0.2-0.5,0.1-1.1,0.7-1.3l6.5-2c0.5-0.2,1.1,0.1,1.3,0.7C554,193.9,553.7,194.4,553.2,194.6L553.2,194.6
		z M552.1,191.3l-6.5,2c-0.5,0.2-1.1-0.1-1.3-0.7c-0.2-0.5,0.1-1.1,0.7-1.3l6.5-2c0.5-0.2,1.1,0.1,1.3,0.6c0,0,0,0,0,0
		c0.2,0.5,0,1-0.5,1.2C552.2,191.2,552.2,191.2,552.1,191.3z M552.6,184.4l-1.8,0.6l-0.6-2l1.8-0.6L552.6,184.4z"/>
</g>
</svg>
