<?xml version="1.0" encoding="utf-8"?>
<!-- Generator: Adobe Illustrator 21.1.0, SVG Export Plug-In . SVG Version: 6.00 Build 0)  -->
<svg version="1.1" id="Layer_1" xmlns="http://www.w3.org/2000/svg" xmlns:xlink="http://www.w3.org/1999/xlink" x="0px" y="0px"
	 viewBox="0 0 128 128" style="enable-background:new 0 0 128 128;" xml:space="preserve">
<style type="text/css">
	.st0{fill:url(#SVGID_1_);}
	.st1{fill:#FFFFFF;}
</style>
<linearGradient id="SVGID_1_" gradientUnits="userSpaceOnUse" x1="64" y1="2" x2="64" y2="-126" gradientTransform="matrix(1 0 0 -1 0 2)">
	<stop  offset="0" style="stop-color:#1EE1D0"/>
	<stop  offset="0.5" style="stop-color:#78AAD8"/>
	<stop  offset="1" style="stop-color:#916DDE"/>
</linearGradient>
<path class="st0" d="M96,128H32c-17.6,0-32-14.4-32-32V32C0,14.4,14.4,0,32,0h64c17.6,0,32,14.4,32,32v64
	C128,113.6,113.6,128,96,128z"/>
<g>
	<path id="Fill-13" class="st1" d="M90.2,15c-0.1-0.2-0.3-0.4-0.4-0.5c-0.1-0.1-0.1-0.2-0.2-0.3C81.8,10.1,72.9,8,64,8
		c-3.8,0-7.5,0.4-11.2,1.1c0.3,0.1,0.6,0.2,0.9,0.3c0.1,0,0.2,0,0.2,0.1c0.3,0.1,0.5,0.2,0.8,0.2c0.1,0,0.1,0,0.2,0.1
		c0.3,0.1,0.6,0.2,1,0.3c0.1,0,0.1,0,0.2,0.1c0.3,0.1,0.5,0.2,0.8,0.3c0.1,0,0.2,0.1,0.2,0.1c0.3,0.1,0.6,0.2,1,0.3
		c0.1,0,0.1,0.1,0.2,0.1c0.3,0.1,0.5,0.2,0.8,0.3c0.1,0,0.2,0.1,0.2,0.1c0.3,0.1,0.6,0.3,0.9,0.4c0.1,0,0.1,0,0.2,0.1
		c0.3,0.1,0.5,0.2,0.8,0.4l0.2,0.1c0.3,0.1,0.6,0.3,0.9,0.4c0,0,0.1,0,0.1,0c0.3,0.1,0.6,0.3,0.8,0.4l0.2,0.1
		c0.3,0.2,0.6,0.3,0.9,0.5c0.3,0.2,0.7,0.4,1,0.5c0.1,0.1,0.2,0.1,0.3,0.2c0.2,0.1,0.4,0.2,0.7,0.4c0.1,0.1,0.3,0.1,0.4,0.2
		c0.2,0.1,0.4,0.2,0.6,0.3c0.1,0.1,0.3,0.2,0.4,0.2c0.2,0.1,0.4,0.2,0.5,0.3c0.1,0.1,0.3,0.2,0.4,0.3c0.2,0.1,0.4,0.2,0.5,0.3
		c0.1,0.1,0.3,0.2,0.4,0.3c0.2,0.1,0.3,0.2,0.5,0.3c0.1,0.1,0.3,0.2,0.4,0.3c0.2,0.1,0.3,0.2,0.5,0.4c0.1,0.1,0.3,0.2,0.4,0.3
		c0.2,0.1,0.3,0.2,0.5,0.4c0.1,0.1,0.3,0.2,0.4,0.3c0.2,0.1,0.3,0.2,0.5,0.4c0.1,0.1,0.3,0.2,0.4,0.3c0.2,0.1,0.3,0.2,0.5,0.4
		c0.1,0.1,0.3,0.2,0.4,0.3c0.2,0.1,0.3,0.3,0.5,0.4c0.1,0.1,0.3,0.2,0.4,0.3c0.2,0.1,0.3,0.3,0.5,0.4c0.1,0.1,0.3,0.2,0.4,0.3
		c0.1,0.1,0.3,0.3,0.4,0.4c0.1,0.1,0.3,0.2,0.4,0.4c0.1,0.1,0.3,0.3,0.4,0.4c0.1,0.1,0.3,0.2,0.4,0.4c0.1,0.1,0.3,0.3,0.4,0.4
		c0.1,0.1,0.2,0.2,0.4,0.4c0.1,0.1,0.3,0.3,0.4,0.4c0.1,0.1,0.2,0.3,0.4,0.4c0.1,0.1,0.3,0.3,0.4,0.4c0.1,0.1,0.2,0.3,0.4,0.4
		c0.1,0.1,0.3,0.3,0.4,0.4c0.1,0.1,0.2,0.3,0.3,0.4c0.1,0.1,0.3,0.3,0.4,0.4c0.1,0.1,0.2,0.3,0.3,0.4c0.1,0.1,0.3,0.3,0.4,0.5
		c0.1,0.1,0.2,0.3,0.3,0.4c0.1,0.2,0.3,0.3,0.4,0.5c0.1,0.1,0.2,0.3,0.3,0.4c0.1,0.2,0.2,0.3,0.4,0.5c0.1,0.1,0.2,0.3,0.3,0.4
		c0.1,0.2,0.2,0.3,0.4,0.5c0.1,0.1,0.2,0.3,0.3,0.4c0.1,0.2,0.2,0.3,0.3,0.5c0.1,0.1,0.2,0.3,0.3,0.4c0.1,0.2,0.2,0.3,0.3,0.5
		c0.1,0.1,0.2,0.3,0.3,0.4c0.1,0.2,0.2,0.3,0.3,0.5c0.1,0.1,0.2,0.3,0.3,0.4c0.1,0.2,0.2,0.3,0.3,0.5c0.1,0.2,0.2,0.3,0.3,0.5
		c0.1,0.2,0.2,0.3,0.3,0.5c0.1,0.2,0.2,0.3,0.3,0.5c0.1,0.2,0.2,0.3,0.3,0.5c0.1,0.2,0.2,0.3,0.3,0.5c0.1,0.2,0.2,0.3,0.3,0.5
		c0.1,0.2,0.2,0.3,0.3,0.5c0.1,0.2,0.2,0.3,0.3,0.5c0.1,0.2,0.2,0.3,0.2,0.5c0,0.1,0.1,0.2,0.1,0.3l0.6,1.3l1,2.4
		c0.3,0.7,0.6,1.4,0.8,2.1L98,59.9c0-0.1,0-0.2,0.1-0.3c0-0.1,0.1-0.3,0.1-0.4c0-0.2,0.1-0.4,0.1-0.6c0-0.1,0.1-0.3,0.1-0.4
		c0-0.2,0.1-0.4,0.1-0.6c0-0.1,0.1-0.3,0.1-0.4c0-0.2,0.1-0.4,0.1-0.7c0-0.1,0-0.2,0.1-0.3c0.1-0.3,0.1-0.7,0.2-1
		c0-0.1,0-0.2,0.1-0.3c0-0.2,0.1-0.5,0.1-0.7c0-0.1,0-0.3,0.1-0.4c0-0.2,0.1-0.4,0.1-0.6c0-0.1,0-0.3,0.1-0.4c0-0.2,0-0.4,0.1-0.6
		c0-0.1,0-0.3,0-0.4c0-0.2,0-0.4,0.1-0.6c0-0.1,0-0.3,0-0.4c0-0.2,0-0.4,0-0.6c0-0.1,0-0.3,0-0.4c0-0.2,0-0.4,0-0.6
		c0-0.1,0-0.3,0-0.4c0-0.2,0-0.4,0-0.7c0-0.1,0-0.2,0-0.4c0-0.3,0-0.7,0-1c0-0.1,0-0.2,0-0.3c0-0.2,0-0.5,0-0.7c0-0.1,0-0.3,0-0.4
		c0-0.2,0-0.4,0-0.6c0-0.1,0-0.3,0-0.4c0-0.2,0-0.4,0-0.6c0-0.2,0-0.3,0-0.5c0-0.2,0-0.4,0-0.6c0-0.2,0-0.3,0-0.5c0-0.2,0-0.4,0-0.6
		c0-0.2,0-0.3,0-0.5c0-0.2,0-0.4-0.1-0.6c0-0.1,0-0.3,0-0.4c0-0.2,0-0.4-0.1-0.6c0-0.1,0-0.3,0-0.4c0-0.3-0.1-0.6-0.1-0.9
		c0-0.1,0-0.3-0.1-0.4c0-0.2-0.1-0.5-0.1-0.7c0-0.1,0-0.3-0.1-0.4c0-0.2-0.1-0.4-0.1-0.6c0-0.2-0.1-0.3-0.1-0.5
		c0-0.2-0.1-0.4-0.1-0.5c0-0.2-0.1-0.3-0.1-0.5c0-0.2-0.1-0.3-0.1-0.5c0-0.2-0.1-0.3-0.1-0.5c0-0.2-0.1-0.3-0.1-0.5
		c0-0.2-0.1-0.3-0.1-0.5c0-0.2-0.1-0.3-0.1-0.5c0-0.2-0.1-0.3-0.1-0.5c0-0.2-0.1-0.4-0.1-0.5c0-0.1-0.1-0.3-0.1-0.4
		c-0.1-0.2-0.1-0.4-0.2-0.6c0-0.1-0.1-0.2-0.1-0.3c-0.3-1-0.6-2-1-2.9c0-0.1,0-0.1-0.1-0.2c-0.1-0.3-0.2-0.5-0.3-0.8
		c0-0.1-0.1-0.2-0.1-0.3c-0.1-0.2-0.2-0.5-0.3-0.7c0-0.1-0.1-0.2-0.1-0.3c-0.1-0.2-0.2-0.5-0.3-0.7c0-0.1-0.1-0.2-0.1-0.3
		c-0.1-0.2-0.2-0.4-0.3-0.7c-0.1-0.1-0.1-0.2-0.2-0.3c-0.1-0.2-0.2-0.4-0.3-0.6c-0.1-0.1-0.1-0.2-0.2-0.3c-0.1-0.2-0.2-0.4-0.3-0.6
		c-0.1-0.1-0.1-0.2-0.2-0.3c-0.1-0.2-0.2-0.4-0.3-0.6c-0.1-0.1-0.1-0.2-0.2-0.3c-0.1-0.2-0.2-0.4-0.3-0.6c-0.1-0.1-0.1-0.2-0.2-0.3
		c-0.1-0.2-0.2-0.4-0.4-0.6c-0.1-0.1-0.1-0.2-0.2-0.3c-0.1-0.2-0.2-0.4-0.4-0.6c-0.1-0.1-0.1-0.2-0.2-0.4c-0.1-0.2-0.2-0.4-0.4-0.6
		c-0.1-0.1-0.2-0.2-0.2-0.4c-0.1-0.2-0.3-0.4-0.4-0.6C90.4,15.2,90.3,15.1,90.2,15"/>
	<path id="Fill-16" class="st1" d="M17.3,33.1c0.1,0,0.1-0.1,0.2-0.1c0.3-0.2,0.6-0.3,0.8-0.5c0.1-0.1,0.2-0.1,0.3-0.2
		c0.4-0.2,0.8-0.4,1.2-0.6c0,0,0.1,0,0.1-0.1c0.4-0.2,0.7-0.4,1.1-0.5c0.1-0.1,0.2-0.1,0.4-0.2c0.3-0.1,0.6-0.3,0.9-0.4
		c0.1-0.1,0.2-0.1,0.4-0.2c0.4-0.2,0.8-0.4,1.2-0.5c0,0,0.1,0,0.1,0c0.4-0.2,0.8-0.3,1.1-0.5c0.1-0.1,0.3-0.1,0.4-0.1
		c0.3-0.1,0.6-0.2,0.9-0.3c0.1,0,0.3-0.1,0.4-0.1c0.4-0.1,0.8-0.3,1.2-0.4c0,0,0,0,0,0v0v0l0.9-0.3l0,0c0.1,0,0.1,0,0.2-0.1
		c0.3-0.1,0.6-0.2,0.9-0.3c0.1,0,0.3-0.1,0.4-0.1c0.2-0.1,0.4-0.1,0.7-0.2c0.2,0,0.3-0.1,0.5-0.1c0.2-0.1,0.4-0.1,0.6-0.2
		c0.2,0,0.3-0.1,0.5-0.1c0.2,0,0.4-0.1,0.6-0.1c0.2,0,0.3-0.1,0.5-0.1c0.2,0,0.4-0.1,0.6-0.1c0.2,0,0.3-0.1,0.5-0.1
		c0.2,0,0.4-0.1,0.6-0.1c0.2,0,0.4-0.1,0.5-0.1c0.2,0,0.4-0.1,0.6-0.1c0.2,0,0.4-0.1,0.5-0.1c0.2,0,0.4-0.1,0.6-0.1
		c0.2,0,0.4-0.1,0.5-0.1c0.2,0,0.4-0.1,0.6-0.1c0.2,0,0.4,0,0.5-0.1c0.2,0,0.4,0,0.6-0.1c0.2,0,0.4,0,0.5-0.1c0.2,0,0.4,0,0.6-0.1
		c0.2,0,0.4,0,0.6,0c0.2,0,0.4,0,0.6,0c0.2,0,0.4,0,0.6,0c0.2,0,0.4,0,0.6,0c0.2,0,0.4,0,0.6,0c0.2,0,0.4,0,0.6,0c0.2,0,0.4,0,0.6,0
		c0.2,0,0.4,0,0.6,0c0.2,0,0.4,0,0.6,0c0.2,0,0.4,0,0.6,0c0.2,0,0.4,0,0.6,0c0.2,0,0.4,0,0.6,0c0.2,0,0.4,0,0.6,0c0.2,0,0.4,0,0.6,0
		c0.2,0,0.4,0,0.6,0c0.2,0,0.4,0,0.6,0c0.2,0,0.4,0,0.6,0c0.2,0,0.4,0,0.6,0c0.2,0,0.4,0,0.6,0.1c0.2,0,0.4,0,0.6,0.1
		c0.2,0,0.4,0,0.6,0.1c0.2,0,0.4,0,0.6,0.1c0.2,0,0.4,0.1,0.6,0.1c0.2,0,0.4,0.1,0.6,0.1c0.2,0,0.4,0.1,0.6,0.1
		c0.2,0,0.4,0.1,0.6,0.1c0.2,0,0.4,0.1,0.6,0.1c0.2,0,0.4,0.1,0.5,0.1c0.2,0,0.4,0.1,0.6,0.1c0.2,0,0.4,0.1,0.5,0.1
		c0.2,0,0.4,0.1,0.5,0.1c0.2,0,0.4,0.1,0.5,0.1c0.2,0,0.4,0.1,0.5,0.1c0.2,0,0.4,0.1,0.5,0.1c0.2,0,0.4,0.1,0.5,0.1
		c0.2,0,0.4,0.1,0.5,0.1c0.2,0,0.4,0.1,0.5,0.2c0.2,0.1,0.4,0.1,0.5,0.2c0.2,0.1,0.4,0.1,0.5,0.2c0.2,0.1,0.4,0.1,0.5,0.2
		c0.2,0.1,0.4,0.1,0.5,0.2c0.1,0,0.2,0.1,0.3,0.1l1.5,0.5c1.4,0.5,2.8,1.1,4.2,1.8L85.2,37c0-0.1-0.1-0.2-0.1-0.3
		c-0.1-0.1-0.1-0.2-0.2-0.4c-0.1-0.2-0.2-0.3-0.3-0.5c-0.1-0.1-0.1-0.2-0.2-0.4c-0.1-0.2-0.2-0.4-0.3-0.5c-0.1-0.1-0.1-0.2-0.2-0.3
		c-0.1-0.2-0.3-0.4-0.4-0.6c0-0.1-0.1-0.1-0.1-0.2c-0.2-0.3-0.4-0.6-0.6-0.8c0-0.1-0.1-0.1-0.1-0.2c-0.2-0.2-0.3-0.4-0.5-0.7
		c-0.1-0.1-0.1-0.2-0.2-0.3c-0.1-0.2-0.3-0.4-0.4-0.5c-0.1-0.1-0.2-0.2-0.2-0.3c-0.1-0.2-0.3-0.3-0.4-0.5c-0.1-0.1-0.2-0.2-0.3-0.3
		c-0.1-0.2-0.3-0.3-0.4-0.5c-0.1-0.1-0.2-0.2-0.3-0.3c-0.1-0.2-0.3-0.3-0.4-0.5c-0.1-0.1-0.2-0.2-0.3-0.3c-0.1-0.2-0.3-0.3-0.4-0.5
		c-0.1-0.1-0.2-0.2-0.2-0.3c-0.2-0.2-0.3-0.4-0.5-0.6c-0.1-0.1-0.1-0.1-0.2-0.2c-0.2-0.2-0.5-0.5-0.7-0.7c0,0-0.1-0.1-0.1-0.1
		c-0.2-0.2-0.4-0.4-0.6-0.6c-0.1-0.1-0.2-0.2-0.2-0.2c-0.2-0.2-0.3-0.3-0.5-0.5c-0.1-0.1-0.2-0.2-0.3-0.3c-0.2-0.1-0.3-0.3-0.5-0.4
		c-0.1-0.1-0.2-0.2-0.3-0.3c-0.2-0.1-0.3-0.3-0.5-0.4c-0.1-0.1-0.2-0.2-0.3-0.3c-0.2-0.1-0.3-0.3-0.5-0.4c-0.1-0.1-0.2-0.2-0.3-0.3
		c-0.2-0.1-0.3-0.3-0.5-0.4c-0.1-0.1-0.2-0.2-0.3-0.2c-0.2-0.2-0.4-0.3-0.6-0.5c-0.1-0.1-0.2-0.1-0.2-0.2c-0.3-0.2-0.5-0.4-0.8-0.6
		c0,0,0,0-0.1,0c-0.2-0.2-0.5-0.4-0.8-0.6c-0.1-0.1-0.2-0.1-0.3-0.2c-0.2-0.1-0.4-0.3-0.6-0.4c-0.1-0.1-0.2-0.1-0.3-0.2
		c-0.2-0.1-0.3-0.2-0.5-0.4c-0.1-0.1-0.2-0.2-0.3-0.2c-0.2-0.1-0.3-0.2-0.5-0.3c-0.1-0.1-0.2-0.2-0.4-0.2c-0.2-0.1-0.3-0.2-0.5-0.3
		c-0.1-0.1-0.2-0.1-0.4-0.2c-0.2-0.1-0.4-0.2-0.5-0.3c-0.1-0.1-0.2-0.1-0.3-0.2c-0.2-0.1-0.4-0.2-0.6-0.3c-0.1-0.1-0.2-0.1-0.3-0.2
		c-0.3-0.2-0.6-0.3-0.9-0.5c-0.3-0.2-0.7-0.3-1-0.5c-0.1-0.1-0.2-0.1-0.3-0.2c-0.2-0.1-0.4-0.2-0.7-0.3C61.3,15.1,61.1,15,61,15
		c-0.2-0.1-0.4-0.2-0.6-0.3c-0.1-0.1-0.3-0.1-0.4-0.2c-0.2-0.1-0.4-0.2-0.6-0.3c-0.1-0.1-0.3-0.1-0.4-0.2c-0.2-0.1-0.4-0.2-0.6-0.2
		c-0.1-0.1-0.3-0.1-0.4-0.2c-0.2-0.1-0.4-0.1-0.6-0.2c-0.2-0.1-0.3-0.1-0.5-0.2c-0.2-0.1-0.4-0.1-0.6-0.2c-0.2-0.1-0.3-0.1-0.5-0.2
		c-0.2-0.1-0.4-0.1-0.6-0.2c-0.2-0.1-0.3-0.1-0.5-0.2c-0.2-0.1-0.4-0.1-0.6-0.2c-0.2,0-0.3-0.1-0.5-0.1c-0.2-0.1-0.4-0.1-0.6-0.2
		c-0.2,0-0.3-0.1-0.5-0.1c-0.2-0.1-0.4-0.1-0.6-0.2c-0.2,0-0.3-0.1-0.5-0.1c-0.2,0-0.4-0.1-0.6-0.1c-0.2,0-0.3-0.1-0.5-0.1
		c-0.2,0-0.4-0.1-0.6-0.1c-0.2,0-0.3-0.1-0.5-0.1c-0.2,0-0.4-0.1-0.6-0.1c-0.2,0-0.3-0.1-0.5-0.1c-0.2,0-0.4-0.1-0.6-0.1
		c-0.2,0-0.3-0.1-0.5-0.1c-0.1,0-0.3,0-0.4-0.1c-8.4,2.7-16.2,7.4-22.5,13.7C21.7,27.1,19.4,30,17.3,33.1"/>
	<path id="Fill-18" class="st1" d="M117,48.9c0-0.2,0.1-0.5,0.1-0.7c0-0.1,0-0.2,0.1-0.3c0-0.3,0.1-0.5,0.1-0.8l0-0.2
		c-2.7-8.4-7.4-16.2-13.7-22.5c-2.7-2.7-5.6-5-8.7-7.1c0.2,0.3,0.3,0.6,0.5,0.9c0,0,0,0.1,0.1,0.1c0.2,0.3,0.3,0.6,0.5,0.9l0,0.1
		c0.2,0.3,0.3,0.6,0.5,1l0.1,0.1c0.1,0.3,0.3,0.6,0.4,0.9c0,0,0,0.1,0.1,0.1c0.2,0.3,0.3,0.7,0.5,1c0,0,0,0.1,0,0.1
		c0.1,0.3,0.3,0.6,0.4,0.9c0,0.1,0,0.1,0.1,0.2c0.1,0.3,0.3,0.7,0.4,1c0,0,0,0,0,0c0.1,0.3,0.3,0.6,0.4,1c0,0.1,0,0.1,0.1,0.2
		c0.3,0.7,0.5,1.3,0.7,2c0,0.1,0,0.1,0.1,0.2c0.1,0.3,0.2,0.7,0.3,1c0.4,1.4,0.8,2.9,1.2,4.4c0,0,0,0,0,0.1c0.1,0.3,0.2,0.7,0.2,1
		c0,0.1,0,0.1,0,0.2c0.1,0.3,0.1,0.6,0.2,0.9c0,0.1,0,0.2,0,0.2c0.1,0.3,0.1,0.6,0.1,0.9c0,0.1,0,0.2,0,0.3c0,0.3,0.1,0.5,0.1,0.8
		c0,0.1,0,0.2,0,0.3c0,0.3,0.1,0.5,0.1,0.8c0,0.1,0,0.3,0,0.4c0,0.2,0.1,0.5,0.1,0.7c0,0.1,0,0.3,0,0.4c0,0.2,0,0.5,0.1,0.7
		c0,0.1,0,0.3,0,0.4c0,0.2,0,0.5,0.1,0.7c0,0.1,0,0.3,0,0.4c0,0.2,0,0.4,0,0.7c0,0.2,0,0.3,0,0.5c0,0.2,0,0.4,0,0.7
		c0,0.2,0,0.3,0,0.5c0,0.2,0,0.4,0,0.7c0,0.2,0,0.3,0,0.5c0,0.2,0,0.4,0,0.6c0,0.2,0,0.3,0,0.5c0,0.2,0,0.4,0,0.6c0,0.2,0,0.3,0,0.5
		c0,0.2,0,0.4,0,0.6c0,0.2,0,0.3,0,0.5c0,0.2,0,0.4,0,0.6c0,0.2,0,0.3,0,0.5c0,0.2,0,0.4-0.1,0.6c0,0.2,0,0.3-0.1,0.5
		c0,0.2,0,0.4-0.1,0.6c0,0.2,0,0.3-0.1,0.5c0,0.2,0,0.4-0.1,0.6c0,0.2,0,0.3-0.1,0.5c0,0.2-0.1,0.4-0.1,0.6c0,0.2-0.1,0.3-0.1,0.5
		c0,0.2-0.1,0.4-0.1,0.6c0,0.2-0.1,0.3-0.1,0.5c0,0.2-0.1,0.4-0.1,0.6c0,0.2-0.1,0.3-0.1,0.5c0,0.2-0.1,0.4-0.1,0.6
		c0,0.2-0.1,0.3-0.1,0.5c0,0.2-0.1,0.4-0.1,0.6c0,0.2-0.1,0.3-0.1,0.5c0,0.2-0.1,0.4-0.1,0.6c0,0.2-0.1,0.3-0.1,0.5
		c-0.1,0.2-1.2,4.4-1.2,4.4c-1,3.1-3.5,10.7-10.9,15.6c2.2,0.6,4,0.9,5.7,0.6c4.6-0.8,8.6-5.1,10.2-6.8c3-3.2,5.4-6.9,7.5-10.8
		l0.2-0.3c0.1-0.3,0.3-0.5,0.4-0.8l0.1-0.1c0.1-0.3,0.3-0.6,0.4-0.8c0-0.1,0.1-0.1,0.1-0.2c0.1-0.3,0.2-0.5,0.4-0.8
		c0-0.1,0.1-0.1,0.1-0.2c0.1-0.2,0.2-0.5,0.3-0.7c0-0.1,0.1-0.2,0.1-0.3c0.1-0.2,0.2-0.5,0.3-0.7c0-0.1,0.1-0.2,0.1-0.3
		c0.1-0.2,0.2-0.4,0.2-0.6c0-0.1,0.1-0.3,0.1-0.4c0.1-0.2,0.1-0.4,0.2-0.6c0.1-0.1,0.1-0.3,0.1-0.4c0.1-0.2,0.1-0.4,0.2-0.6
		c0.1-0.2,0.1-0.3,0.2-0.5c0.1-0.2,0.1-0.4,0.2-0.5c0.1-0.2,0.1-0.3,0.2-0.5c0.1-0.2,0.1-0.3,0.2-0.5c0.1-0.2,0.1-0.3,0.1-0.5
		c0-0.2,0.1-0.3,0.1-0.5c0-0.2,0.1-0.3,0.1-0.5c0-0.2,0.1-0.3,0.1-0.5c0-0.2,0.1-0.3,0.1-0.5c0-0.2,0.1-0.4,0.1-0.6
		c0-0.2,0.1-0.3,0.1-0.5c0-0.2,0.1-0.4,0.1-0.6C116.9,49.2,117,49,117,48.9"/>
	<path id="Fill-20" class="st1" d="M37.8,113c0.1,0.2,0.3,0.4,0.5,0.6c0,0.1,0.1,0.1,0.1,0.2c7.9,4.1,16.7,6.2,25.6,6.2
		c8.9,0,17.8-2.2,25.9-6.3c2.6-3.6,4.7-7.5,6.3-11.7c0.5-1.2,0.9-2.4,1.3-3.7c0,0,0,0,0,0c0,0,0,0,0,0c0.8-2.6,1.4-5.2,1.8-7.8
		c0.4-2.7,0.6-5.4,0.6-8.1v-0.1c0-0.1,0-0.2,0-0.3c-0.4,0.2-0.8,0.4-1.2,0.6c-0.7,0.3-1.4,0.6-2.1,0.8c0,0-0.1,0-0.1,0
		c-0.1,0.1-0.1,0.3-0.2,0.4c-0.3,0.7-0.8,1.4-1.2,2.1c-0.7,1-1.5,1.8-2.4,2.4c-0.6,0.4-2.8,1.8-4.8,1.3c-0.9-0.2-1.6-0.6-2.3-1
		c-0.3-0.2-0.6-0.4-0.9-0.5c-0.9-0.4-1.8-0.8-2.9-1.1c-2-0.6-4.2-0.9-6.3-1.2c-3.4-0.5-7-0.7-11.4-0.7c-2.1,0-3.9,0.1-5.7,0.2
		c-2,0.1-3.9,0.3-5.7,0.6c-2.2,0.3-4.3,0.6-6.3,1.2c-1.1,0.3-2,0.7-2.9,1.1c-0.3,0.1-0.6,0.3-0.9,0.5c-0.7,0.4-1.4,0.8-2.3,1
		c-2,0.5-4.2-0.9-4.8-1.3c-1.4-1-2.6-2.5-3.6-4.5c-1.7-3.5-2.4-7.4-2.8-10.6c0,0.2-0.1,0.4-0.1,0.5c0,0.2-0.1,0.4-0.1,0.7
		c0,0.2,0,0.3-0.1,0.5c0,0.2,0,0.3-0.1,0.5c0,0.2,0,0.3-0.1,0.5c0,0.2,0,0.3-0.1,0.5c0,0.2-0.1,0.5-0.1,0.7c0,0.2,0,0.3,0,0.5
		c0,0.2,0,0.3,0,0.5c0,0.2,0,0.3,0,0.5c0,0.2,0,0.3,0,0.5c0,0.1,0,0.3,0,0.4c0,0.3,0,0.6,0,0.9c0,0.1,0,0.3,0,0.4c0,0.2,0,0.4,0,0.6
		c0,0.1,0,0.3,0,0.4c0,0.2,0,0.4,0,0.6c0,0.1,0,0.2,0,0.3c0,0.3,0,0.6,0,0.9c0,0.1,0,0.2,0,0.3c0,0.2,0,0.5,0,0.7c0,0.1,0,0.2,0,0.3
		c0,0.2,0,0.5,0,0.7c0,0.1,0,0.1,0,0.2c0,0.3,0,0.6,0.1,1c0,0.1,0,0.1,0,0.2c0,0.3,0,0.5,0.1,0.8c0,0.1,0,0.2,0,0.2
		c0,0.3,0.1,0.6,0.1,0.9c0,0,0,0,0,0.1c0,0.3,0.1,0.7,0.1,1c0,0,0,0.1,0,0.1c0,0.3,0.1,0.6,0.1,0.9c0,0.1,0,0.1,0,0.2
		c0.1,0.7,0.2,1.3,0.4,2c0,0,0,0,0,0.1c0.1,0.3,0.1,0.6,0.2,1c0,0,0,0.1,0,0.1c0.2,0.7,0.3,1.4,0.5,2.1c0,0,0,0,0,0
		c0.1,0.3,0.2,0.7,0.3,1c0,0,0,0,0,0c0.1,0.3,0.2,0.7,0.3,1c0.3,1.1,0.7,2.1,1.1,3.1c0,0,0,0.1,0.1,0.1c0.1,0.3,0.2,0.6,0.3,0.9
		c0.1,0.1,0.1,0.3,0.2,0.4c0.1,0.2,0.2,0.4,0.3,0.6c0.1,0.2,0.1,0.3,0.2,0.5c0.1,0.2,0.1,0.3,0.2,0.5c0.1,0.2,0.2,0.4,0.3,0.6
		c0.1,0.1,0.1,0.3,0.2,0.4c0.1,0.2,0.2,0.4,0.3,0.6c0.1,0.1,0.1,0.2,0.2,0.4c0.1,0.2,0.2,0.4,0.3,0.6c0.1,0.1,0.1,0.2,0.2,0.3
		c0.1,0.2,0.2,0.4,0.3,0.6c0.1,0.1,0.1,0.2,0.2,0.3c0.1,0.2,0.2,0.4,0.4,0.6c0.1,0.1,0.1,0.2,0.2,0.3c0.1,0.2,0.3,0.4,0.4,0.6
		c0.1,0.1,0.1,0.2,0.2,0.3c0.1,0.2,0.3,0.4,0.4,0.6c0.1,0.1,0.1,0.2,0.2,0.3c0.1,0.2,0.3,0.4,0.4,0.6c0.1,0.1,0.1,0.2,0.2,0.3
		c0.1,0.2,0.3,0.4,0.4,0.6C37.7,112.8,37.7,112.9,37.8,113"/>
	<path id="Fill-23" class="st1" d="M16.8,36.6c-0.2,0.1-0.3,0.2-0.5,0.3c-0.2,0.1-0.3,0.2-0.5,0.3c-0.2,0.1-0.3,0.2-0.5,0.3
		c-0.2,0.1-0.3,0.2-0.5,0.3c-0.1,0.1-0.3,0.2-0.4,0.3c-0.1,0.1-0.2,0.2-0.3,0.2C10.1,46.2,8,55.1,8,64c0,3.8,0.4,7.5,1.1,11.2
		c0.1-0.3,0.2-0.6,0.3-0.9c0-0.1,0-0.2,0.1-0.2c0.1-0.3,0.2-0.5,0.2-0.8c0-0.1,0-0.1,0.1-0.2c0.1-0.3,0.2-0.6,0.3-1
		c0-0.1,0.1-0.1,0.1-0.2c0.1-0.3,0.2-0.5,0.3-0.8c0-0.1,0.1-0.1,0.1-0.2c0.1-0.3,0.2-0.6,0.3-1c0-0.1,0-0.1,0.1-0.2
		c0.1-0.3,0.2-0.5,0.3-0.8l0.1-0.2c0.1-0.3,0.3-0.6,0.4-0.9c0-0.1,0-0.1,0.1-0.2c0.1-0.3,0.2-0.5,0.4-0.8c0-0.1,0.1-0.2,0.1-0.2
		c0.1-0.3,0.3-0.6,0.4-0.9c0,0,0-0.1,0-0.1c0.1-0.3,0.3-0.6,0.4-0.8c0-0.1,0.1-0.2,0.1-0.2c0.2-0.3,0.3-0.6,0.5-0.9
		c0.2-0.3,0.4-0.7,0.5-1c0.1-0.1,0.1-0.2,0.2-0.3c0.1-0.2,0.2-0.4,0.4-0.7c0.1-0.1,0.2-0.3,0.2-0.4c0.1-0.2,0.2-0.4,0.3-0.6
		c0.1-0.1,0.2-0.3,0.2-0.4c0.1-0.2,0.2-0.4,0.3-0.6c0.1-0.1,0.2-0.3,0.3-0.4c0.1-0.2,0.2-0.4,0.3-0.5c0.1-0.1,0.2-0.3,0.3-0.4
		c0.1-0.2,0.2-0.3,0.3-0.5c0.1-0.1,0.2-0.3,0.3-0.4c0.1-0.2,0.2-0.3,0.4-0.5c0.1-0.1,0.2-0.3,0.3-0.4c0.1-0.2,0.2-0.3,0.4-0.5
		c0.1-0.1,0.2-0.3,0.3-0.4c0.1-0.2,0.2-0.3,0.4-0.5c0.1-0.1,0.2-0.3,0.3-0.4c0.1-0.2,0.3-0.3,0.4-0.5c0.1-0.1,0.2-0.3,0.3-0.4
		c0.1-0.2,0.3-0.3,0.4-0.5c0.1-0.1,0.2-0.3,0.3-0.4c0.1-0.2,0.3-0.3,0.4-0.5c0.1-0.1,0.2-0.3,0.3-0.4c0.1-0.2,0.3-0.3,0.4-0.5
		c0.1-0.1,0.2-0.3,0.3-0.4c0.1-0.1,0.3-0.3,0.4-0.4c0.1-0.1,0.2-0.2,0.4-0.4c0.1-0.1,0.3-0.3,0.4-0.4c0.1-0.1,0.2-0.2,0.4-0.4
		c0.1-0.1,0.3-0.3,0.4-0.4c0.1-0.1,0.2-0.2,0.4-0.4c0.1-0.1,0.3-0.3,0.4-0.4c0.1-0.1,0.3-0.2,0.4-0.4c0.1-0.1,0.3-0.3,0.4-0.4
		c0.1-0.1,0.3-0.2,0.4-0.3c0.1-0.1,0.3-0.3,0.4-0.4c0.1-0.1,0.3-0.2,0.4-0.3c0.2-0.1,0.3-0.3,0.5-0.4c0.1-0.1,0.3-0.2,0.4-0.3
		c0.2-0.1,0.3-0.3,0.5-0.4c0.1-0.1,0.3-0.2,0.4-0.3c0.2-0.1,0.3-0.2,0.5-0.4c0.1-0.1,0.3-0.2,0.4-0.3c0.2-0.1,0.3-0.2,0.5-0.4
		c0.1-0.1,0.3-0.2,0.4-0.3c0.2-0.1,0.3-0.2,0.5-0.3c0.1-0.1,0.3-0.2,0.4-0.3c0.2-0.1,0.3-0.2,0.5-0.3c0.1-0.1,0.3-0.2,0.4-0.3
		c0.2-0.1,0.3-0.2,0.5-0.3c0.1-0.1,0.3-0.2,0.5-0.3c0.2-0.1,0.3-0.2,0.5-0.3c0.2-0.1,0.3-0.2,0.5-0.3c0.2-0.1,0.3-0.2,0.5-0.3
		c0.2-0.1,0.3-0.2,0.5-0.3c0.2-0.1,0.3-0.2,0.5-0.3c0.2-0.1,0.3-0.2,0.5-0.3c0.2-0.1,0.3-0.2,0.5-0.3c0.2-0.1,0.3-0.2,0.5-0.3
		c0.2-0.1,0.3-0.2,0.5-0.3c0.2-0.1,0.3-0.2,0.5-0.3c0.1,0,0.2-0.1,0.3-0.1l1.3-0.6l2.3-1c0.7-0.3,1.4-0.5,2-0.8c0,0,0,0,0.1,0
		L59.9,30c-0.1,0-0.2,0-0.3-0.1c-0.1,0-0.3-0.1-0.4-0.1c-0.2,0-0.4-0.1-0.6-0.1c-0.1,0-0.3-0.1-0.4-0.1c-0.2,0-0.4-0.1-0.6-0.1
		c-0.1,0-0.3-0.1-0.4-0.1c-0.2,0-0.4-0.1-0.6-0.1c-0.1,0-0.2,0-0.3-0.1c-0.3-0.1-0.7-0.1-1-0.2c-0.1,0-0.1,0-0.2,0
		c-0.3,0-0.5-0.1-0.8-0.1c-0.1,0-0.3,0-0.4-0.1c-0.2,0-0.4-0.1-0.6-0.1c-0.1,0-0.3,0-0.4-0.1c-0.2,0-0.4-0.1-0.6-0.1
		c-0.1,0-0.3,0-0.4-0.1c-0.2,0-0.4,0-0.6-0.1c-0.1,0-0.3,0-0.4,0c-0.2,0-0.4,0-0.6,0c-0.1,0-0.3,0-0.4,0c-0.2,0-0.4,0-0.6,0
		c-0.1,0-0.3,0-0.4,0c-0.2,0-0.4,0-0.6,0c-0.1,0-0.3,0-0.4,0c-0.3,0-0.6,0-0.9,0c-0.1,0-0.2,0-0.3,0c-0.3,0-0.5,0-0.8,0
		c-0.1,0-0.3,0-0.4,0c-0.2,0-0.4,0-0.6,0c-0.1,0-0.3,0-0.4,0c-0.2,0-0.4,0-0.6,0c-0.1,0-0.3,0-0.4,0c-0.2,0-0.4,0-0.6,0
		c-0.1,0-0.3,0-0.4,0c-0.2,0-0.4,0-0.6,0c-0.1,0-0.3,0-0.4,0c-0.2,0-0.4,0-0.6,0.1c-0.1,0-0.3,0-0.4,0c-0.2,0-0.4,0-0.6,0.1
		c-0.1,0-0.2,0-0.4,0c-0.3,0-0.6,0.1-1,0.1c0,0-0.1,0-0.1,0c-0.3,0-0.6,0.1-0.9,0.1c-0.1,0-0.2,0-0.3,0.1c-0.2,0-0.4,0.1-0.7,0.1
		c-0.1,0-0.3,0-0.4,0.1c-0.2,0-0.4,0.1-0.6,0.1c-0.1,0-0.3,0.1-0.4,0.1c-0.2,0-0.4,0.1-0.6,0.1c-0.1,0-0.3,0.1-0.4,0.1
		c-0.2,0-0.4,0.1-0.6,0.1c-0.1,0-0.3,0.1-0.4,0.1c-0.2,0-0.4,0.1-0.6,0.1c-0.1,0-0.3,0.1-0.4,0.1c-0.2,0.1-0.4,0.1-0.7,0.2
		c-0.1,0-0.2,0.1-0.3,0.1c-0.3,0.1-0.6,0.2-1,0.3l-0.4,0.1c-0.4,0.1-0.7,0.2-1,0.3c-0.1,0-0.2,0.1-0.4,0.1c-0.2,0.1-0.4,0.2-0.7,0.2
		c-0.1,0.1-0.3,0.1-0.4,0.2c-0.2,0.1-0.4,0.1-0.6,0.2c-0.2,0.1-0.3,0.1-0.5,0.2c-0.2,0.1-0.4,0.1-0.6,0.2c-0.2,0.1-0.3,0.1-0.5,0.2
		c-0.2,0.1-0.4,0.1-0.5,0.2c-0.2,0.1-0.3,0.1-0.5,0.2c-0.2,0.1-0.4,0.2-0.5,0.2c-0.2,0.1-0.3,0.1-0.5,0.2c-0.2,0.1-0.3,0.2-0.5,0.2
		c-0.2,0.1-0.3,0.2-0.5,0.2c-0.2,0.1-0.3,0.2-0.5,0.3c-0.2,0.1-0.3,0.2-0.5,0.2c-0.2,0.1-0.3,0.2-0.5,0.3c-0.2,0.1-0.3,0.2-0.5,0.3
		c-0.2,0.1-0.3,0.2-0.5,0.3c-0.2,0.1-0.3,0.2-0.5,0.3c-0.2,0.1-0.3,0.2-0.5,0.3c-0.2,0.1-0.3,0.2-0.5,0.3c-0.2,0.1-0.3,0.2-0.5,0.3
		c-0.2,0.1-0.3,0.2-0.5,0.3C17.1,36.4,17,36.5,16.8,36.6"/>
	<path id="Fill-26" class="st1" d="M113.7,89.9C117.8,82,120,73,120,64c0-3.8-0.4-7.5-1.1-11.2c-0.1,0.3-0.2,0.6-0.2,0.9
		c0,0.1,0,0.2-0.1,0.2c-0.1,0.3-0.2,0.6-0.2,0.8c0,0.1,0,0.1-0.1,0.2c-0.1,0.3-0.2,0.7-0.3,1c0,0.1,0,0.1-0.1,0.2
		c-0.1,0.3-0.2,0.6-0.3,0.9c0,0.1,0,0.1-0.1,0.2c-0.1,0.3-0.2,0.7-0.4,1l0,0.1c-0.1,0.3-0.3,0.7-0.4,1c0,0,0,0.1,0,0.1
		c-0.7,1.8-1.5,3.5-2.4,5.3l-0.4,0.7h0c0,0,0,0,0,0c-0.2,0.4-0.5,0.9-0.7,1.3c0,0,0,0.1-0.1,0.1c-0.2,0.4-0.5,0.8-0.8,1.3
		c0,0-0.1,0.1-0.1,0.1c-0.3,0.4-0.5,0.8-0.8,1.2c0,0.1-0.1,0.1-0.1,0.2c-0.3,0.4-0.5,0.8-0.8,1.2c0,0-0.1,0.1-0.1,0.1
		c-0.3,0.4-0.6,0.8-0.9,1.2c0,0-0.1,0.1-0.1,0.1c-0.3,0.4-0.6,0.8-0.9,1.2l0,0c-0.7,0.8-1.3,1.7-2.1,2.5c-0.4,0.5-0.8,0.9-1.3,1.4
		l-0.5,0.5c-0.2,0.2-0.3,0.3-0.5,0.5c-0.1,0.1-0.2,0.2-0.2,0.2c-0.1,0.1-0.2,0.2-0.3,0.3c-0.3,0.3-0.7,0.6-1,1c0,0.8,0,1.5,0,2.2v0
		v0v0.1c0,2.9-0.2,5.7-0.6,8.5c-0.4,2.8-1,5.6-1.9,8.2c0,0,0,0,0,0v0c0,0,0,0,0,0c0,0,0,0,0,0l0,0c0,0,0,0.1,0,0.1c0,0,0,0.1,0,0.1
		c0,0.2-0.1,0.3-0.2,0.5c-0.1,0.2-0.1,0.4-0.2,0.6c-0.1,0.3-0.2,0.5-0.3,0.8c-0.1,0.2-0.1,0.3-0.2,0.5c-0.1,0.2-0.2,0.4-0.2,0.7
		c-1.1,2.9-2.3,5.6-3.8,8.2c3-2,5.9-4.4,8.5-7C107.6,99.6,111,95,113.7,89.9"/>
	<path id="Fill-28" class="st1" d="M33.1,110.7c-0.2-0.3-0.3-0.6-0.5-0.9c0,0,0-0.1-0.1-0.1c-0.2-0.3-0.3-0.6-0.5-0.9
		c0,0,0-0.1,0-0.1c-0.2-0.3-0.3-0.6-0.5-1c0,0,0-0.1-0.1-0.1c-0.1-0.3-0.3-0.6-0.4-0.9c0,0,0-0.1-0.1-0.1c-0.2-0.3-0.3-0.6-0.4-1
		c0,0,0-0.1-0.1-0.1c-0.1-0.3-0.2-0.6-0.4-0.8c0-0.1-0.1-0.1-0.1-0.2c-0.1-0.3-0.3-0.6-0.4-0.9c0-0.1,0-0.1-0.1-0.2
		c-0.1-0.3-0.2-0.5-0.3-0.8c0-0.1-0.1-0.2-0.1-0.3c-0.1-0.3-0.2-0.6-0.3-0.9c0-0.1-0.1-0.2-0.1-0.3c-0.1-0.2-0.1-0.4-0.2-0.6
		c0-0.1-0.1-0.3-0.1-0.4c-0.1-0.2-0.1-0.4-0.2-0.5c0-0.1-0.1-0.2-0.1-0.4c-0.7-2.1-1.2-4.2-1.6-6.4c0,0,0-0.1,0-0.1
		c-0.1-0.3-0.1-0.6-0.1-0.9c0-0.1,0-0.2,0-0.3c0-0.3-0.1-0.5-0.1-0.8c0-0.1,0-0.2-0.1-0.4c0-0.2-0.1-0.4-0.1-0.7
		c0-0.1,0-0.3-0.1-0.4c0-0.2,0-0.4-0.1-0.6c0-0.2,0-0.3-0.1-0.5c0-0.2,0-0.4-0.1-0.6c0-0.2,0-0.4-0.1-0.6c0-0.2,0-0.3,0-0.5
		c0-0.2,0-0.4,0-0.6c0-0.2,0-0.3,0-0.5c0-0.2,0-0.4,0-0.7c0-0.1,0-0.3,0-0.4c0-0.2,0-0.5,0-0.7c0-0.1,0-0.3,0-0.4c0-0.2,0-0.5,0-0.7
		c0-0.1,0-0.2,0-0.4c0-0.3,0-0.5,0-0.8c0-0.1,0-0.2,0-0.3c0-0.3,0-0.5,0-0.8c0-0.1,0-0.2,0-0.3c0-0.3,0-0.5,0-0.8c0-0.1,0-0.2,0-0.3
		c0-0.3,0-0.5,0.1-0.8c0-0.1,0-0.2,0-0.3c0-0.3,0-0.5,0.1-0.8c0-0.1,0-0.2,0-0.3c0-0.3,0.1-0.5,0.1-0.8c0-0.1,0-0.2,0-0.3
		c0-0.3,0.1-0.5,0.1-0.8c0-0.1,0-0.2,0-0.3c0-0.3,0.1-0.5,0.1-0.8c0-0.1,0-0.2,0-0.3c0-0.3,0.1-0.5,0.1-0.8c0-0.1,0-0.2,0.1-0.3
		c0-0.3,0.1-0.5,0.1-0.8c0-0.1,0-0.2,0.1-0.3c0.1-0.3,0.1-0.5,0.2-0.8c0-0.1,0.1-0.2,0.1-0.4c0.1-0.2,0.1-0.5,0.2-0.7
		c0-0.1,0.1-0.2,0.1-0.4c0.1-0.2,0.1-0.5,0.2-0.7c0-0.1,0.1-0.3,0.1-0.4c0.1-0.2,0.1-0.5,0.2-0.7c0-0.1,0.1-0.3,0.1-0.4
		c0.1-0.2,0.1-0.4,0.2-0.6c0-0.2,0.1-0.3,0.1-0.5c0.1-0.2,0.1-0.4,0.2-0.6c0.1-0.2,0.1-0.3,0.2-0.5c0-0.1,0.1-0.2,0.1-0.3l0.6-1.6
		c0,0,0,0,0,0c0.5-1.4,1.1-2.8,1.7-4.2c0,0,0,0,0,0L37,42.8c-0.1,0-0.2,0.1-0.3,0.1c-0.1,0.1-0.2,0.1-0.4,0.2
		c-0.2,0.1-0.3,0.2-0.5,0.3c-0.1,0.1-0.2,0.1-0.4,0.2c-0.2,0.1-0.4,0.2-0.5,0.3c-0.1,0.1-0.2,0.1-0.3,0.2c-0.2,0.1-0.4,0.3-0.6,0.4
		c-0.1,0.1-0.2,0.1-0.2,0.2c-0.3,0.2-0.6,0.4-0.8,0.6c-0.1,0.1-0.1,0.1-0.2,0.2c-0.2,0.1-0.4,0.3-0.6,0.4c-0.1,0.1-0.2,0.2-0.3,0.2
		c-0.2,0.1-0.3,0.2-0.5,0.4c-0.1,0.1-0.2,0.2-0.3,0.3c-0.2,0.1-0.3,0.2-0.5,0.4c-0.1,0.1-0.2,0.2-0.3,0.3c-0.2,0.1-0.3,0.2-0.5,0.4
		c-0.1,0.1-0.2,0.2-0.3,0.3c-0.1,0.1-0.3,0.3-0.4,0.4c-0.1,0.1-0.2,0.2-0.3,0.3c-0.2,0.1-0.3,0.3-0.5,0.4c-0.1,0.1-0.2,0.2-0.3,0.3
		c-0.2,0.2-0.3,0.3-0.5,0.5c-0.1,0.1-0.2,0.2-0.2,0.2c-0.2,0.2-0.5,0.5-0.7,0.7c-0.1,0.1-0.1,0.1-0.2,0.2c-0.2,0.2-0.4,0.4-0.5,0.5
		c-0.1,0.1-0.2,0.2-0.3,0.3c-0.1,0.1-0.3,0.3-0.4,0.4c-0.1,0.1-0.2,0.2-0.3,0.3c-0.1,0.1-0.3,0.3-0.4,0.4c-0.1,0.1-0.2,0.2-0.3,0.3
		c-0.1,0.1-0.3,0.3-0.4,0.4c-0.1,0.1-0.2,0.2-0.3,0.3c-0.1,0.1-0.3,0.3-0.4,0.4c-0.1,0.1-0.2,0.2-0.3,0.3c-0.1,0.2-0.3,0.3-0.4,0.5
		c-0.1,0.1-0.2,0.2-0.3,0.3c-0.1,0.2-0.3,0.3-0.4,0.5c-0.1,0.1-0.1,0.2-0.2,0.3c-0.2,0.3-0.4,0.5-0.6,0.8c0,0-0.1,0.1-0.1,0.1
		c-0.2,0.2-0.3,0.5-0.5,0.7c-0.1,0.1-0.1,0.2-0.2,0.3c-0.1,0.2-0.3,0.4-0.4,0.5c-0.1,0.1-0.2,0.2-0.2,0.3c-0.1,0.2-0.2,0.3-0.3,0.5
		c-0.1,0.1-0.2,0.2-0.2,0.4c-0.1,0.2-0.2,0.3-0.3,0.5c-0.1,0.1-0.2,0.2-0.2,0.4c-0.1,0.2-0.2,0.3-0.3,0.5c-0.1,0.1-0.1,0.2-0.2,0.4
		c-0.1,0.2-0.2,0.4-0.3,0.5c-0.1,0.1-0.1,0.2-0.2,0.3c-0.1,0.2-0.2,0.4-0.3,0.6c-0.1,0.1-0.1,0.2-0.2,0.3c-0.2,0.3-0.3,0.6-0.5,0.9
		c-0.2,0.3-0.3,0.7-0.5,1c-0.1,0.1-0.1,0.2-0.2,0.3c-0.1,0.2-0.2,0.4-0.3,0.7c-0.1,0.1-0.1,0.3-0.2,0.4c-0.1,0.2-0.2,0.4-0.3,0.6
		c-0.1,0.1-0.1,0.3-0.2,0.4c-0.1,0.2-0.2,0.4-0.3,0.6c-0.1,0.1-0.1,0.3-0.2,0.5c-0.1,0.2-0.2,0.4-0.2,0.6c-0.1,0.2-0.1,0.3-0.2,0.5
		c-0.1,0.2-0.1,0.4-0.2,0.6c-0.1,0.2-0.1,0.3-0.2,0.5c-0.1,0.2-0.1,0.4-0.2,0.6c-0.1,0.2-0.1,0.3-0.2,0.5c-0.1,0.2-0.1,0.4-0.2,0.6
		c-0.1,0.2-0.1,0.3-0.2,0.5c-0.1,0.2-0.1,0.4-0.2,0.6c-0.1,0.2-0.1,0.3-0.1,0.5c-0.1,0.2-0.1,0.4-0.2,0.6c0,0.2-0.1,0.3-0.1,0.5
		c-0.1,0.2-0.1,0.4-0.2,0.6c0,0.2-0.1,0.3-0.1,0.5c0,0.2-0.1,0.4-0.1,0.6c0,0.2-0.1,0.3-0.1,0.5c0,0.2-0.1,0.4-0.1,0.6
		c0,0.2-0.1,0.3-0.1,0.5c0,0.2-0.1,0.4-0.1,0.6c0,0.2-0.1,0.3-0.1,0.5c0,0.2-0.1,0.4-0.1,0.6c0,0.2-0.1,0.3-0.1,0.5
		c0,0.1,0,0.3-0.1,0.4c2.7,8.4,7.4,16.2,13.7,22.5C27.1,106.3,30,108.6,33.1,110.7"/>
</g>
</svg>
