<?xml version="1.0" encoding="utf-8"?>
<!-- Generator: Adobe Illustrator 21.0.2, SVG Export Plug-In . SVG Version: 6.00 Build 0)  -->
<svg version="1.1" id="Layer_1" xmlns="http://www.w3.org/2000/svg" xmlns:xlink="http://www.w3.org/1999/xlink" x="0px" y="0px"
	 viewBox="0 0 128 128" style="enable-background:new 0 0 128 128;" xml:space="preserve">
<style type="text/css">
	.st0{fill:#D1AD54;}
</style>
<g>
	<path class="st0" d="M91.8,92.3c0.6,0,1.3,0.1,1.9,0.4c0.6,0.2,1.3,0.7,1.9,1.2l10.8,11.4c-4.7,6.2-10.7,10.8-17.8,14
		c-7.1,3.1-15.5,4.7-25.3,4.7c-8.9,0-16.9-1.5-24-4.6c-7.1-3-13.1-7.2-18-12.6c-4.9-5.3-8.7-11.7-11.3-19C7.5,80.5,6.1,72.6,6.1,64
		c0-8.8,1.5-16.8,4.5-24.1c3-7.3,7.2-13.7,12.6-19s11.9-9.5,19.4-12.4C50.2,5.5,58.5,4,67.6,4C72,4,76.1,4.4,80,5.2
		c3.9,0.8,7.5,1.9,10.9,3.2c3.4,1.4,6.5,3,9.3,4.9c2.8,1.9,5.4,4,7.6,6.3L98.7,32c-0.6,0.8-1.3,1.4-2.1,2.1
		c-0.8,0.6-1.9,0.9-3.4,0.9c-1,0-1.9-0.2-2.7-0.6c-0.9-0.4-1.8-1-2.7-1.6c-1-0.6-2-1.3-3.2-2c-1.2-0.7-2.5-1.4-4.1-2
		c-1.6-0.6-3.4-1.1-5.6-1.6c-2.1-0.4-4.6-0.6-7.5-0.6c-4.9,0-9.5,0.9-13.5,2.6c-4.1,1.7-7.6,4.2-10.5,7.5c-2.9,3.3-5.2,7.2-6.9,11.8
		C34.8,53,34,58.2,34,64c0,6,0.8,11.4,2.5,16c1.6,4.7,3.9,8.6,6.7,11.8c2.8,3.2,6.1,5.6,9.9,7.3c3.8,1.7,7.8,2.5,12.1,2.5
		c2.5,0,4.7-0.1,6.8-0.4c2-0.2,3.9-0.7,5.7-1.2c1.7-0.6,3.4-1.4,5-2.3c1.6-0.9,3.2-2.1,4.8-3.5c0.6-0.5,1.3-1,2.1-1.3
		C90.2,92.5,91,92.3,91.8,92.3z"/>
</g>
</svg>
