<?xml version="1.0" encoding="utf-8"?>
<!-- Generator: Adobe Illustrator 21.1.0, SVG Export Plug-In . SVG Version: 6.00 Build 0)  -->
<svg version="1.1" id="Layer_1" xmlns="http://www.w3.org/2000/svg" xmlns:xlink="http://www.w3.org/1999/xlink" x="0px" y="0px"
	 viewBox="0 0 142 125" style="enable-background:new 0 0 142 125;" xml:space="preserve">
<style type="text/css">
	.st0{fill:#B5BFCB;}
</style>
<g>
	<path id="path-1" class="st0" d="M110.4,0.6h31.4v18.1l-0.1,0c-1.8,0-3.1,1.3-3.1,3.1c0,1.8,1.3,3.1,3.1,3.1l0.1,0v4.7h-31.4V9.6
		h3.4v14.9h4.9V4.9h-8.3V0.6z M124.3,4.9v4.8h6.3l-6,15h5.6L136,9.1V4.9H124.3z M90.2,0.6l-8.6,21.7L72.8,0.6h-7v28.9h5.7V10.9
		l7.5,18.6H84l7.4-18.6v18.6h5.8V0.6H90.2z M41.3,0.6v28.9h16.4v-5.5H47V0.6H41.3z M24.6,29.5h5.7V0.6h-5.7V29.5z M0.4,0.6v28.9h5.7
		V18.9h9.8v-5.5H6.1V6.1h10.7V0.6H0.4z M96.8,45.6c0,3.3,1.1,5.6,4.9,7.8l4.3,2.7c1.4,0.9,2.2,1.9,2.2,3c0,1.6-1.3,2.9-3.8,2.9
		c-2.8,0-5.5-1.2-7.1-2.5v6.4c1.8,0.8,4.4,1.5,7.3,1.5c6.6,0,9.7-4.1,9.7-8.6c0-3.2-1.4-5.8-5.2-7.9l-4.4-2.6
		c-1.2-0.8-1.8-1.6-1.8-2.7c0-1.5,1.2-2.8,3.5-2.8c2.4,0,5,1,6.5,2.1v-6.1c-1.7-0.8-4-1.4-6.2-1.4C99.4,37.3,96.8,41.6,96.8,45.6z
		 M121.7,37.8v5.5h7.1v23.5h5.7V43.3h7.1v-5.5H121.7z M80.9,37.8v19.1L67.7,37.8h-6.8v0.4l2,3.2v25.4h5.7V49.5l12.3,17.3h5.7V37.8
		H80.9z M45.6,37.8v18.6c0,3.1-2,5.3-5.3,5.3c-3.2,0-5.3-2.2-5.3-5.3V37.8h-5.7V56c0,7.1,4.2,11.3,11,11.3c6.7,0,11-4.2,11-11.3
		V37.8H45.6z M14,37.8L6.1,49.9V37.8H0.4v28.9h5.7v-8.7l2.6-3.5l5.8,12.2h6.7l-8.4-17.1l8-11.8H14z M96.8,82.9
		c0,3.3,1.1,5.6,4.9,7.8l4.3,2.7c1.4,0.9,2.2,1.9,2.2,3c0,1.6-1.3,2.9-3.8,2.9c-2.8,0-5.5-1.2-7.1-2.5v6.4c1.8,0.8,4.4,1.5,7.3,1.5
		c6.6,0,9.7-4.1,9.7-8.6c0-3.2-1.4-5.8-5.2-7.9l-4.4-2.6c-1.2-0.8-1.8-1.6-1.8-2.7c0-1.5,1.2-2.8,3.5-2.8c2.4,0,5,1,6.5,2.1v-6.1
		c-1.7-0.8-4-1.4-6.2-1.4C99.4,74.6,96.8,78.9,96.8,82.9z M71,82.9c0,3.3,1.1,5.6,4.9,7.8l4.3,2.7c1.4,0.9,2.2,1.9,2.2,3
		c0,1.6-1.3,2.9-3.8,2.9c-2.8,0-5.5-1.2-7.1-2.5v6.4c1.8,0.8,4.4,1.5,7.3,1.5c6.6,0,9.7-4.1,9.7-8.6c0-3.2-1.4-5.8-5.2-7.9l-4.4-2.6
		c-1.2-0.8-1.8-1.6-1.8-2.7c0-1.5,1.2-2.8,3.5-2.8c2.4,0,5,1,6.5,2.1v-6.1c-1.7-0.8-4-1.4-6.2-1.4C73.5,74.6,71,78.9,71,82.9z
		 M123.4,75.1v28.9h16.4v-5.5h-10.7v-6.4h9.8v-5.5h-9.8v-6.1h10.7v-5.5H123.4z M44.2,75.1v28.9h16.4v-5.5H49.9v-6.4h9.8v-5.5h-9.8
		v-6.1h10.7v-5.5H44.2z M24.7,75.1l-8.6,21.7L7.3,75.1h-7v28.9h5.7V85.4l7.5,18.6h4.9l7.4-18.6v18.6h5.8V75.1H24.7z"/>
</g>
<title>Group 2</title>
<desc>Created with Sketch.</desc>
<g id="Page-1_1_">
	<g id="FKM2016_x2F_03_x5F_FILME-01-Copy-2" transform="translate(-529.000000, -44.000000)">
		<g id="Page-1" transform="translate(529.000000, 44.000000)">
			<g id="Group-2">
				<g>
					<g id="Group-25" transform="translate(0.358407, 114.559735)">
						<polygon id="Fill-1" class="st0" points="1.9,0.3 0,0.3 0,9.3 5.2,9.3 5.2,7.5 1.9,7.5 						"/>
						<polygon id="Fill-2" class="st0" points="6.9,9.3 12.1,9.3 12.1,7.5 8.8,7.5 8.8,5.7 11.8,5.7 11.8,3.9 8.8,3.9 8.8,2.1 
							12.1,2.1 12.1,0.3 6.9,0.3 						"/>
						<polygon id="Fill-3" class="st0" points="14.6,9.3 16.5,9.3 16.5,0.3 14.6,0.3 						"/>
						<path id="Fill-4" class="st0" d="M22.1,4.2c0.6,0,1.1-0.3,1.1-1c0-0.7-0.5-1-1.1-1h-1.2v2.1H22.1z M22.1,0.3
							c1.8,0,3,1.1,3,2.9c0,1.8-1.2,2.9-3,2.9h-1.2v3.3H19v-9H22.1z"/>
						<polygon id="Fill-6" class="st0" points="26.5,2.1 29.7,2.1 26.4,7.7 26.4,9.3 32,9.3 32,7.5 28.7,7.5 32,1.9 32,0.3 
							26.5,0.3 						"/>
						<polygon id="Fill-8" class="st0" points="34.4,9.3 36.3,9.3 36.3,0.3 34.4,0.3 						"/>
						<path id="Fill-10" class="st0" d="M42.7,3.7v1.7h2.3c0,0.1,0,0.1,0,0.2c0,1-0.9,2-2.3,2c-1.5,0-2.6-1.2-2.6-2.8
							c0-1.6,1.2-2.8,2.7-2.8c1,0,1.8,0.3,2.4,0.6v-2c-0.6-0.3-1.5-0.4-2.4-0.4c-2.7,0-4.7,2-4.7,4.7c0,2.6,1.9,4.7,4.5,4.7
							c2.9,0,4.4-2.1,4.4-4.5c0-0.5-0.1-1-0.1-1.3H42.7z"/>
						<polygon id="Fill-11" class="st0" points="54.2,4.8 49.6,4.8 49.6,6.3 54.2,6.3 56,6.3 60.6,6.3 60.6,4.8 56,4.8 						"/>
						<path id="Fill-12" class="st0" d="M68.2,2.8c0-1.3-0.8-2.6-2.9-2.6c-0.8,0-1.6,0.3-2.1,0.6v2.1C63.7,2.4,64.4,2,65.2,2
							c0.7,0,1.1,0.4,1.1,1.1c0,0.4-0.3,0.9-0.7,1.5l-2.5,3.1v1.6h5.1V7.5h-2.6l1.7-2.2C67.8,4.7,68.2,4,68.2,2.8"/>
						<path id="Fill-13" class="st0" d="M72.3,3.4l0.2-1.3h2.7V0.3h-4.4l-0.4,4.9h1.2c1,0,1.8,0.2,1.8,1.1c0,0.7-0.6,1.2-1.4,1.2
							c-0.9,0-1.6-0.4-2.1-0.9v2.3c0.5,0.3,1.4,0.5,2.2,0.5c1.8,0,3.2-1,3.2-3.1C75.3,4.6,74.1,3.5,72.3,3.4"/>
						<path id="Fill-14" class="st0" d="M78.1,7c-0.7,0-1.2,0.5-1.2,1.2c0,0.7,0.5,1.2,1.2,1.2c0.7,0,1.2-0.5,1.2-1.2
							C79.4,7.5,78.9,7,78.1,7"/>
						<polygon id="Fill-15" class="st0" points="80.9,6.3 87.3,6.3 87.3,4.8 80.9,4.8 						"/>
						<path id="Fill-16" class="st0" d="M94.1,2.8c0-1.3-0.8-2.6-2.9-2.6c-0.8,0-1.6,0.3-2.1,0.6v2.1C89.6,2.4,90.3,2,91,2
							c0.7,0,1.1,0.4,1.1,1.1c0,0.4-0.3,0.9-0.7,1.5l-2.5,3.1v1.6H94V7.5h-2.6l1.7-2.2C93.6,4.7,94.1,4,94.1,2.8"/>
						<path id="Fill-17" class="st0" d="M98.8,4.7c-0.8,0-1.3-0.6-1.3-1.3c0-0.8,0.6-1.4,1.3-1.4c0.7,0,1.3,0.6,1.3,1.4
							C100.1,4.2,99.6,4.7,98.8,4.7 M98.8,0.2c-1.8,0-3.2,1.4-3.2,3.3c0,1.8,1.4,3.1,3,3.2l-1.8,2.7H99l2.5-4
							c0.3-0.6,0.6-1.2,0.6-1.9C102.1,1.6,100.7,0.2,98.8,0.2"/>
						<path id="Fill-18" class="st0" d="M104.2,7c-0.7,0-1.2,0.5-1.2,1.2c0,0.7,0.5,1.2,1.2,1.2c0.7,0,1.2-0.5,1.2-1.2
							C105.5,7.5,105,7,104.2,7"/>
						<path id="Fill-19" class="st0" d="M112.1,6.2c0,0.9-0.5,1.5-1.4,1.5c-0.9,0-1.4-0.6-1.4-1.5V3.5c0-0.9,0.5-1.5,1.4-1.5
							c0.9,0,1.4,0.6,1.4,1.5V6.2z M110.7,0.2c-1.9,0-3.3,1.4-3.3,3.3v2.8c0,1.9,1.4,3.3,3.3,3.3c1.9,0,3.3-1.4,3.3-3.3V3.4
							C113.9,1.5,112.6,0.2,110.7,0.2L110.7,0.2z"/>
						<path id="Fill-20" class="st0" d="M118.8,4.7c-0.8,0-1.3-0.6-1.3-1.3c0-0.8,0.6-1.4,1.3-1.4c0.7,0,1.3,0.6,1.3,1.4
							C120.1,4.2,119.5,4.7,118.8,4.7 M118.8,0.2c-1.8,0-3.2,1.4-3.2,3.3c0,1.8,1.4,3.1,3,3.2l-1.8,2.7h2.3l2.5-4
							c0.3-0.6,0.6-1.2,0.6-1.9C122,1.6,120.6,0.2,118.8,0.2"/>
						<path id="Fill-21" class="st0" d="M123.6,7c-0.7,0-1.2,0.5-1.2,1.2c0,0.7,0.5,1.2,1.2,1.2c0.7,0,1.2-0.5,1.2-1.2
							C124.9,7.5,124.3,7,123.6,7"/>
						<polygon id="Fill-22" class="st0" points="131.1,0.3 127.5,0.3 127.5,2.1 129.2,2.1 129.2,7.5 127.1,7.5 127.1,9.3 132.8,9.3 
							132.8,7.5 131.1,7.5 						"/>
						<polygon id="Fill-23" class="st0" points="134,2.1 137.1,2.1 134.2,9.3 136.3,9.3 139.1,1.9 139.1,0.3 134,0.3 						"/>
					</g>
					<g id="Clip-27">
						<path id="path-1_1_" class="st0" d="M110.4,0.6h31.4v18.1l-0.1,0c-1.8,0-3.1,1.3-3.1,3.1c0,1.8,1.3,3.1,3.1,3.1l0.1,0v4.7
							h-31.4V9.6h3.4v14.9h4.9V4.9h-8.3V0.6z M124.3,4.9v4.8h6.3l-6,15h5.6L136,9.1V4.9H124.3z M90.2,0.6l-8.6,21.7L72.8,0.6h-7
							v28.9h5.7V10.9l7.5,18.6H84l7.4-18.6v18.6h5.8V0.6H90.2z M41.3,0.6v28.9h16.4v-5.5H47V0.6H41.3z M24.6,29.5h5.7V0.6h-5.7V29.5
							z M0.4,0.6v28.9h5.7V18.9h9.8v-5.5H6.1V6.1h10.7V0.6H0.4z M96.8,45.6c0,3.3,1.1,5.6,4.9,7.8l4.3,2.7c1.4,0.9,2.2,1.9,2.2,3
							c0,1.6-1.3,2.9-3.8,2.9c-2.8,0-5.5-1.2-7.1-2.5v6.4c1.8,0.8,4.4,1.5,7.3,1.5c6.6,0,9.7-4.1,9.7-8.6c0-3.2-1.4-5.8-5.2-7.9
							l-4.4-2.6c-1.2-0.8-1.8-1.6-1.8-2.7c0-1.5,1.2-2.8,3.5-2.8c2.4,0,5,1,6.5,2.1v-6.1c-1.7-0.8-4-1.4-6.2-1.4
							C99.4,37.3,96.8,41.6,96.8,45.6z M121.7,37.8v5.5h7.1v23.5h5.7V43.3h7.1v-5.5H121.7z M80.9,37.8v19.1L67.7,37.8h-6.8v0.4
							l2,3.2v25.4h5.7V49.5l12.3,17.3h5.7V37.8H80.9z M45.6,37.8v18.6c0,3.1-2,5.3-5.3,5.3c-3.2,0-5.3-2.2-5.3-5.3V37.8h-5.7V56
							c0,7.1,4.2,11.3,11,11.3c6.7,0,11-4.2,11-11.3V37.8H45.6z M14,37.8L6.1,49.9V37.8H0.4v28.9h5.7v-8.7l2.6-3.5l5.8,12.2h6.7
							l-8.4-17.1l8-11.8H14z M96.8,82.9c0,3.3,1.1,5.6,4.9,7.8l4.3,2.7c1.4,0.9,2.2,1.9,2.2,3c0,1.6-1.3,2.9-3.8,2.9
							c-2.8,0-5.5-1.2-7.1-2.5v6.4c1.8,0.8,4.4,1.5,7.3,1.5c6.6,0,9.7-4.1,9.7-8.6c0-3.2-1.4-5.8-5.2-7.9l-4.4-2.6
							c-1.2-0.8-1.8-1.6-1.8-2.7c0-1.5,1.2-2.8,3.5-2.8c2.4,0,5,1,6.5,2.1v-6.1c-1.7-0.8-4-1.4-6.2-1.4
							C99.4,74.6,96.8,78.9,96.8,82.9z M71,82.9c0,3.3,1.1,5.6,4.9,7.8l4.3,2.7c1.4,0.9,2.2,1.9,2.2,3c0,1.6-1.3,2.9-3.8,2.9
							c-2.8,0-5.5-1.2-7.1-2.5v6.4c1.8,0.8,4.4,1.5,7.3,1.5c6.6,0,9.7-4.1,9.7-8.6c0-3.2-1.4-5.8-5.2-7.9l-4.4-2.6
							c-1.2-0.8-1.8-1.6-1.8-2.7c0-1.5,1.2-2.8,3.5-2.8c2.4,0,5,1,6.5,2.1v-6.1c-1.7-0.8-4-1.4-6.2-1.4C73.5,74.6,71,78.9,71,82.9z
							 M123.4,75.1v28.9h16.4v-5.5h-10.7v-6.4h9.8v-5.5h-9.8v-6.1h10.7v-5.5H123.4z M44.2,75.1v28.9h16.4v-5.5H49.9v-6.4h9.8v-5.5
							h-9.8v-6.1h10.7v-5.5H44.2z M24.7,75.1l-8.6,21.7L7.3,75.1h-7v28.9h5.7V85.4l7.5,18.6h4.9l7.4-18.6v18.6h5.8V75.1H24.7z"/>
					</g>
				</g>
			</g>
		</g>
	</g>
</g>
</svg>
