<?xml version="1.0" encoding="utf-8"?>
<!-- Generator: Adobe Illustrator 21.0.2, SVG Export Plug-In . SVG Version: 6.00 Build 0)  -->
<svg version="1.1" id="Layer_1" xmlns="http://www.w3.org/2000/svg" xmlns:xlink="http://www.w3.org/1999/xlink" x="0px" y="0px"
	 viewBox="0 0 969 222.7" style="enable-background:new 0 0 969 222.7;" xml:space="preserve">
<style type="text/css">
	.st0{fill:#CCCCCC;}
</style>
<title>Artboard 1 copy 3</title>
<path d="M621.4,148.6c0.2-0.4,0.7-0.6,1.2-0.4s0.6,0.7,0.4,1.2c-0.2,0.5-0.7,0.6-1.2,0.4l0,0C621.4,149.5,621.2,149,621.4,148.6"/>
<path d="M628.7,154.7c0.4-0.3,0.9-0.2,1.2,0.1s0.2,0.9-0.1,1.2c-0.4,0.3-0.9,0.2-1.2-0.1l0,0C628.3,155.5,628.3,155,628.7,154.7"/>
<path d="M633.2,147.2c0.4-0.3,0.9-0.1,1.2,0.3s0.1,0.9-0.3,1.2s-0.9,0.1-1.2-0.3l0,0C632.6,148,632.8,147.5,633.2,147.2"/>
<path d="M610.6,147.9L610.6,147.9l0.4,0.2L610.6,147.9"/>
<path d="M611.7,147.6c0.6-0.2,1.2,0.1,1.4,0.8c0.2,0.6-0.1,1.2-0.8,1.4c-0.6,0.2-1.2-0.1-1.4-0.7
	C610.8,148.4,611.1,147.8,611.7,147.6L611.7,147.6"/>
<path d="M638.3,151.9c-0.2,0.4,0,1,0.4,1.2c0.2,0.1,0.4,0.1,0.6,0l-0.2-1.7C638.7,151.4,638.4,151.6,638.3,151.9"/>
<path d="M613.7,111.3c1.4-6,7.4-9.7,13.3-8.3c6,1.4,9.7,7.4,8.3,13.3s-7.4,9.7-13.3,8.3l0,0C616.1,123.2,612.4,117.2,613.7,111.3"/>
<path d="M635.2,162.4c0.2-0.4,0.7-0.5,1.1-0.3s0.5,0.7,0.3,1.1c-0.2,0.4-0.7,0.5-1.1,0.3l0,0C635.1,163.4,635,162.8,635.2,162.4"/>
<path d="M606.5,185.3c0.5-0.2,0.7-0.6,0.5-1.1c-0.1-0.4-0.6-0.7-1.1-0.6c-0.2,0.1-0.4,0.2-0.5,0.4l-0.1,0.5v0.1
	C605.6,185.1,606.1,185.4,606.5,185.3"/>
<path d="M619.5,163.3c0.2-0.9,1.1-1.4,2-1.2s1.4,1.1,1.2,2s-1.1,1.4-2,1.2S619.3,164.2,619.5,163.3L619.5,163.3"/>
<path d="M643.8,185L643.8,185l-0.2-0.1L643.8,185"/>
<path d="M611.3,142.5l-0.4,2.6c1.3-0.4,3,0.1,1.7,2.4c2.5-4.8,5.3,4.2,0.5,1.7c4.8,2.5-4.2,5.3-1.7,0.5c-0.5,0.9-1,1.3-1.4,1.4
	l-0.7,4.9c1.9,0.6,3.3,2.3,0.1,4.2c6.6-3.9,3.3,9.1-0.6,2.5c1.5,2.5,0.5,3.6-0.9,3.8l-2.1,15.1c0.9-0.1,1.7,0.4,0.9,2
	c1.9-3.6,4,3.2,0.4,1.3c3.6,1.9-3.2,4-1.3,0.4c-0.2,0.3-0.4,0.6-0.6,0.8l-1.3,9c0.1,0.7,0.2,1.4,0.2,2.1c0-12.5,15.4,2.9,2.9,2.9
	c12.5,0-2.9,15.4-2.9,2.9c0,2.9-0.8,4.3-2,4.8l-0.5,3.6c0,0,2.3,2.7,11.5,4v2c0,2.9,2.4,5.3,5.3,5.3c2.9,0,5.3-2.4,5.3-5.3v-1.2h1.8
	v1.2c0,2.9,2.4,5.3,5.3,5.3c2.9,0,5.3-2.4,5.3-5.3v-2c9.2-1.3,11.5-4,11.5-4l-0.7-4.9c-1.2,0.1-2.2-0.8-2.2-3.5
	c0,9-11.1-2.1-2.1-2.1c-9,0,2.1-11.1,2.1-2.1c-0.1-1,0.2-2.1,0.7-2.9l-1.3-9c-1,0.6-2.8,0.4-1.7-1.7c-1.9,3.6-4-3.2-0.4-1.3
	c-2.8-1.4,0.5-3,1.4-2.1l-1.2-8.9c-0.9,0.1-1.6-0.4-0.8-2c-1.9,3.6-4-3.2-0.4-1.3c-2.1-1.1-0.7-2.2,0.4-2.4l-1.8-12.8
	c-0.5,1.6-4.6-0.8-1.4-1.9c-3.9,1.4-0.8-5.1,0.6-1.2c-0.3-0.9-0.2-1.4,0.1-1.7l-1-7.2C629.1,140.4,620,140.4,611.3,142.5
	 M628.7,180.4c-8.8-1.7,4.2-10.5,2.5-1.7c0.9-4.5,3.6-3.3,4.8-1.3c0.8,1.2,1,2.8,0,3.5c-1,0.5-2.1,0.6-3.2,0.3
	c8.8,1.7-4.2,10.5-2.5,1.7c-0.9,4.6-3.7,3.3-4.9,1.2c-0.7-1.2-0.9-2.6,0-3.3C626,180.3,627,180.1,628.7,180.4 M625.4,191.4
	c1.7,0.6,2.9,2.3,0,4.1l-0.1,0.1l0.1-0.1c6-3.4,3.5,7.5,0,3.6c-0.3-0.3-0.5-0.7-0.8-1.1c1.5,2.6,0.5,3.7-1,3.8
	c-2.3,0.2-5.5-2-1.5-4.4c-6.6,3.9-3.3-9.1,0.6-2.5c-1.5-2.5-0.5-3.6,0.8-3.7C624.2,191.2,624.8,191.3,625.4,191.4 M615.2,208.9
	c-3.9,1.4-0.8-5.1,0.6-1.2c-1.4-3.9,5.1-0.8,1.2,0.6c3.9-1.4,0.8,5.1-0.6,1.2C617.8,213.3,611.3,210.2,615.2,208.9 M610.4,175.9
	c1,3.8-4.9,0.4-1.1-0.6c-3.8,1-0.4-4.9,0.6-1.1c-1-3.8,4.9-0.4,1.1,0.6C614.8,173.7,611.4,179.6,610.4,175.9 M613.1,182.9
	c0.7-0.1,1.3,0,1.9,0.4c-4.8-2.5,4.2-5.3,1.7-0.5c2.5-4.8,5.3,4.2,0.5,1.7c4.8,2.5-4.2,5.3-1.7,0.5c-0.9,1.7-1.8,1.6-2.4,1
	C612.3,185.1,612.1,183.3,613.1,182.9 M623.7,211.9c-0.7-0.4-1-1.2,0-1.8c0.2-0.1,0.4-0.2,0.6-0.3c-0.2,0.1-0.4,0.1-0.6,0.2
	c-2.1,0.3-1.2-2.5,0-2.6c0.4,0,0.9,0.3,1.2,1.2c-0.4-1.3,0-1.8,0.6-1.9c1.2-0.2,3.3,1.5,0.7,2.4c3.9-1.4,0.8,5.1-0.6,1.2
	c0.3,0.9,0.2,1.4-0.1,1.7C624.9,212.4,624.2,212.3,623.7,211.9 M636.1,209c-1,0.9-2.5,1-2.5-1.5c0,5.4-6.7-1.3-1.3-1.3
	c-5.4,0,1.3-6.7,1.3-1.3c0-2.6,1.5-2.4,2.5-1.5s1.4,2.1,0,2.6c-0.4,0.1-0.8,0.2-1.2,0.2c0.4,0,0.8,0,1.2,0.2
	C637.5,206.9,637,208.2,636.1,209 M636.8,162.6c3.8-1,0.4,4.9-0.6,1.1c1,3.8-4.9,0.4-1.1-0.6c-3.8,1-0.4-4.9,0.6-1.1
	C634.7,158.2,640.6,161.5,636.8,162.6 M632.7,147.7c-4-0.9,2.1-4.7,1.2-0.7c0.9-4,4.7,2.1,0.7,1.1c4,0.9-2.1,4.7-1.2,0.7
	C632.5,152.9,628.7,146.8,632.7,147.7 M629.3,154.4c0.5-3.9,4.7,1.5,0.8,1c3.9,0.5-1.5,4.7-1,0.8c-0.5,3.9-4.7-1.5-0.8-1
	C624.5,154.7,629.9,150.5,629.3,154.4 M622.1,165.3c3.9,6.6-9.1,3.3-2.5-0.6c-6.6,3.9-3.3-9.1,0.6-2.5c-3.9-6.6,9.1-3.3,2.5,0.6
	C629.3,158.9,626,171.9,622.1,165.3 M622.6,149.8c1.3,3.9-5.1,0.8-1.2-0.6c-3.9,1.4-0.8-5.1,0.6-1.2c-1.3-3.9,5.1-0.8,1.2,0.6
	C627,147.2,623.9,153.7,622.6,149.8"/>
<path d="M606,202.1c1-1,1-2.7,0-3.7c-0.6-0.6-1.5-0.9-2.4-0.7l-0.7,4.9C603.9,203.1,605.2,203,606,202.1"/>
<path d="M609.5,161.7c0.2-0.6-0.1-1.3-0.6-1.7l-0.4,2.8C609,162.6,609.3,162.2,609.5,161.7"/>
<path d="M643.2,199.7c-0.8,0.7-0.8,1.9-0.1,2.7s1.9,0.8,2.7,0.1l0.1-0.1c0.1-0.1,0.2-0.2,0.2-0.3l-0.3-2.5
	C645.1,199,643.9,199,643.2,199.7"/>
<path d="M643.5,183.1v-0.2c-0.1,0.2-0.2,0.5-0.3,0.7C643.3,183.4,643.4,183.3,643.5,183.1"/>
<path d="M642.5,183.6c0.5-0.1,0.9,0.1,1.1,0.6s-0.1,0.9-0.6,1.1c-0.5,0.1-0.9-0.1-1.1-0.6l0,0C641.8,184.2,642.1,183.8,642.5,183.6"
	/>
<path d="M640.9,170.4c0.1,0.4,0.5,0.7,0.9,0.6l-0.2-1.7h-0.1C641,169.4,640.8,169.9,640.9,170.4"/>
<path d="M609.4,174.6c0.2-0.4,0.7-0.5,1.1-0.3c0.4,0.2,0.5,0.7,0.3,1.1c-0.2,0.4-0.7,0.5-1.1,0.3l0,0
	C609.3,175.5,609.2,175,609.4,174.6"/>
<path d="M622.2,196.1c-0.2,0.9,0.3,1.8,1.2,2s1.8-0.3,2-1.2s-0.3-1.7-1.2-2c-0.2,0-0.3,0-0.5,0C623,195,622.4,195.5,622.2,196.1"/>
<path d="M615.3,208.2c0.2-0.4,0.7-0.6,1.2-0.4s0.6,0.7,0.4,1.2c-0.2,0.5-0.7,0.6-1.2,0.4l0,0C615.3,209.1,615.1,208.6,615.3,208.2"
	/>
<path d="M615.8,182.7c0.6-0.2,1.2,0.1,1.4,0.8c0.2,0.6-0.1,1.2-0.8,1.4c-0.6,0.2-1.2-0.1-1.4-0.7
	C614.9,183.6,615.2,182.9,615.8,182.7C615.8,182.8,615.8,182.8,615.8,182.7"/>
<path d="M626,209.9c0.2-0.4,0-1-0.4-1.2l-0.2-0.1c-0.5-0.1-0.9,0.2-1,0.6c-0.1,0.4,0.1,0.8,0.4,1C625.3,210.5,625.8,210.3,626,209.9
	"/>
<path d="M632.7,205.4c0.4-0.4,1.2-0.4,1.6,0s0.4,1.2,0,1.6c-0.4,0.4-1.2,0.4-1.6,0C632.3,206.6,632.3,205.9,632.7,205.4L632.7,205.4
	"/>
<path d="M631.8,182.4c0.9-0.6,1.1-1.8,0.5-2.6s-1.8-1.1-2.6-0.5c-0.9,0.6-1.1,1.8-0.5,2.6C629.8,182.8,631,183,631.8,182.4
	L631.8,182.4"/>
<path d="M655.3,167.8c-1.1-5.5-2.6-11-4.5-16.2c-0.8-2.1-1.7-4.2-2.6-6.2c-0.7-1.4-1.4-2.7-2.1-3.9c-2.2-3.9-5.2-7.3-8.8-10.1
	c-7.5-5.6-17.8-5.6-25.3,0c-4.7,3.4-8.2,8.4-10.9,14c-0.4,0.8-0.7,1.5-1.1,2.3c-0.6,1.3-1.1,2.6-1.6,3.9c-1.9,5.3-3.4,10.7-4.5,16.2
	c-0.5,1.8,0.6,3.7,2.5,4.2s3.7-0.6,4.2-2.5c0-0.1,0.1-0.2,0.1-0.4c0.5-2.7,1.2-5.5,2-8.3c0.2-0.7,0.4-1.4,0.6-2.1
	c1.4-4.8,3.3-9.4,5.8-13.8c0.5-0.8,1-1.6,1.5-2.3c0.3-0.4,0.6-0.9,0.9-1.3s0.4-0.5,0.6-0.8c4.1-0.9,8.3-1.4,12.5-1.4
	s8.4,0.4,12.5,1.3c0.2,0.3,0.4,0.5,0.6,0.8c0.2,0.3,0.6,0.8,0.9,1.3c1.7,2.4,3.1,5,4.3,7.8c2.5,6,4.4,12.3,5.6,18.7
	c0.4,1.9,2.2,3.1,4,2.7C654.5,171.5,655.7,169.7,655.3,167.8L655.3,167.8L655.3,167.8z"/>
<path d="M650.2,125.8c5.8,7.7,0.6,17.8-1.3,26.3c-1.8,8-0.9,15.6,4.3,21.8c-0.4,1.7,0.6,3.5,2.4,3.9c0.3,0.1,0.5,0.1,0.8,0.1
	c0.7,0,1.3-0.2,1.8-0.6l7.2-5v45.3c0,2.4,1.9,4.3,4.3,4.3c2.4,0,4.3-1.9,4.3-4.3v-22h1.6v22.1c0,2.4,1.9,4.3,4.3,4.3
	c2.4,0,4.3-1.9,4.3-4.3v-45.5c1.7,2.6,3.9,7.9,4.5,18.3c0.1,1.7,1.5,3.1,3.2,3.1h0.2c1.8-0.1,3.1-1.6,3-3.4
	c-0.6-11.7-3.2-18.2-5.9-22.1s-5.9-4.7-6.5-4.7l0,0c-0.3,0-0.5,0-0.8,0c-0.1,0-0.2,0-0.3,0h-13.4c-0.7,0-1.3,0.2-1.8,0.7
	c-0.1,0.1-0.2,0.1-0.4,0.2l-11.4,7.9c-0.4,0.3-0.7,0.6-0.9,1c-6.1-7.6-4.7-16.9-2.1-26.1c2-7,4.2-14.8-0.2-21
	c5.4-0.6,9.7-10.1,9.7-17.8c0-7.9-4.6-12.4-10.2-12.4c-5.6,0-10.2,4.5-10.2,12.4c0,7.6,4.3,17.1,9.7,17.7"/>
<path d="M684.3,151.3c0,5.2-4.2,9.4-9.4,9.4s-9.4-4.2-9.4-9.4s4.2-9.4,9.4-9.4l0,0C680,141.9,684.3,146.1,684.3,151.3"/>
<path class="st0" d="M647.1,77.2c0.2-1,0.3-1.9,0.5-2.8c0.3-1.6,0.5-3.2,0.9-4.7c0.1-0.6,0-1.2-0.4-1.7c-1.6-2.1-2.6-4.5-2.9-7.1
	c-1.1-8.5,4.8-16.3,13.3-17.4c8.5-1.1,16.3,4.8,17.4,13.3c1.1,8.5-4.8,16.3-13.3,17.4c-2.3,0.3-4.6,0.1-6.8-0.6
	c-0.4-0.2-0.9-0.1-1.4,0.1c-2.2,1.1-4.5,2.2-6.7,3.3L647.1,77.2z M650.4,72.8l0.8-0.3c1.1-0.6,2.3-1.1,3.4-1.7
	c0.4-0.2,0.8-0.2,1.1,0c2.8,1.1,5.8,1.3,8.7,0.4c6.8-2.3,10.5-9.6,8.2-16.4s-9.6-10.5-16.4-8.2c-6.7,2.4-10.2,9.8-7.8,16.5
	c0.4,1.1,1,2.2,1.7,3.2c0.9,1.1,1.3,2.5,0.8,3.9C650.6,71,650.5,71.9,650.4,72.8L650.4,72.8z"/>
<path class="st0" d="M665.8,65.7c-0.5,0-1,0-1.4-0.1c-4.8-0.7-8.3-3.3-11-7.2c-1.2-1.5-1.4-3.7-0.4-5.4c0.1-0.3,0.3-0.5,0.5-0.7
	c0.6-0.6,1.6-0.7,2.3-0.1c0.1,0.1,0.2,0.3,0.3,0.4c0.4,0.7,0.8,1.5,1.3,2.2c0.3,0.4,0.3,1,0,1.5l-0.2,0.3c-0.8,1.2-0.7,1.2,0.2,2.3
	c1.3,1.5,3.1,2.6,5,3.2c0.5,0.3,1.1,0.1,1.3-0.4l0,0c0.2-0.5,0.5-0.9,0.9-1.3c0.2-0.2,0.5-0.3,0.8-0.3c1.1,0.3,2.2,0.7,3.3,1.1
	c0.2,0.1,0.3,0.3,0.4,0.5c0.2,1-0.1,2.1-1,2.8C667.5,65.3,666.7,65.6,665.8,65.7z"/>
<path class="st0" d="M630.6,39.9l-16.3,2c-2,0.3-3.5,2.1-3.2,4.2l4.3,34.5c0.3,2,2.1,3.5,4.2,3.2l16.3-2c2-0.3,3.5-2.1,3.2-4.2
	l-4.3-34.5C634.5,41.1,632.7,39.6,630.6,39.9L630.6,39.9z M620.2,44.2l5-0.6c0.3,0,0.6,0.2,0.6,0.5s-0.2,0.6-0.5,0.6l-5,0.6
	c-0.3,0-0.6-0.2-0.7-0.5C619.7,44.5,619.9,44.2,620.2,44.2z M627.3,80.3c-0.8,0.1-1.4-0.4-1.5-1.2c-0.1-0.8,0.4-1.4,1.2-1.5
	s1.4,0.4,1.5,1.2C628.6,79.5,628.1,80.2,627.3,80.3L627.3,80.3z M636.9,74.2l-20.3,2.6l-3.5-27.7l20.2-2.5L636.9,74.2z"/>
<path class="st0" d="M631.2,59.9c-0.1-0.2-0.2-0.3-0.4-0.3l-3.6-0.1l-2-3c-0.2-0.2-0.4-0.3-0.7-0.1c-0.1,0.1-0.1,0.1-0.2,0.2
	l-1.2,3.4l-3.4,0.9c-0.2,0-0.3,0.2-0.3,0.4s0,0.4,0.2,0.5l2.8,2.1l-0.2,3.5c0,0.2,0.1,0.3,0.2,0.4c0.2,0.1,0.3,0.1,0.5,0l2.9-2
	l3.3,1.2c0.1,0,0.1,0,0.2,0s0.2-0.1,0.3-0.1c0.1-0.1,0.2-0.3,0.1-0.5l-1-3.4l2.2-2.8C631.2,60.2,631.3,60,631.2,59.9z"/>
<ellipse class="st0" cx="710.8" cy="133.1" rx="7.4" ry="6.9"/>
<ellipse class="st0" cx="695.7" cy="145.1" rx="3.7" ry="3.5"/>
<path class="st0" d="M731.5,93L731.5,93c-1.5-0.4-2.4-1.9-2.1-3.5c0.4-1.6,1.9-2.5,3.5-2.2c1.6,0.4,2.5,1.9,2.2,3.5
	c-0.3,1.4-1.6,2.3-3,2.3c3.9,0.4,7.4-2.5,7.8-6.4c0.4-3.9-2.5-7.4-6.4-7.8s-7.4,2.5-7.8,6.4C725.4,88.9,727.9,92.2,731.5,93
	L731.5,93z"/>
<path class="st0" d="M721.7,92c6.3,24,20.2,3.9,20.2,3.9C728.3,105.1,721.7,92,721.7,92z"/>
<path class="st0" d="M730.9,57c-19.7,0-35.7,15-35.7,33.6s16,33.6,35.7,33.6s35.7-15,35.7-33.6S750.7,57,730.9,57z M752.4,98.1
	c-0.3,1.8-2.1,3-3.9,2.7c-1.6-0.3-2.8-1.8-2.7-3.4c-1.9,4.3-5.7,7.5-10.3,8.6c1-0.1,1.9-0.1,2.9,0.1c2.8,0.5,4.9,2.1,4.6,3.4
	s-2.7,2-5.5,1.4s-4.9-2.1-4.6-3.4c0.1-0.6,0.7-1.1,1.6-1.4c-3.1,0.5-6.2,0.1-9-1.2c0.3,0.3,0.4,0.8,0.4,1.2c-0.3,1.3-2.7,2-5.5,1.4
	s-4.9-2.1-4.6-3.4s2.7-2,5.5-1.4c0.4,0.1,0.8,0.2,1.2,0.3c-3.5-2.8-5.6-6.9-5.7-11.3c-0.6,1.7-2.6,2.6-4.3,2s-2.6-2.6-2-4.3
	c0.6-1.7,2.6-2.6,4.3-2c1,0.4,1.7,1.2,2.1,2.2c0-0.4,0.1-0.9,0.2-1.3c0.4-2.3,1.4-4.4,2.8-6.2c-3.8-3.7,0.1-13.3,0.1-13.3
	c-1,5.3,4.6,9.1,4.6,9.1l-0.1,0.1c6.5-3.7,14.8-2.1,19.4,3.7v-0.1c0,0,6.7-1.4,7.7-6.7c0,0,0.1,10.3-4.9,12.4
	c0.6,2.2,0.7,4.6,0.2,6.8c-0.1,0.4-0.2,0.9-0.3,1.3c1.2-1.5,3.3-1.7,4.7-0.5C752.2,95.7,752.7,96.9,752.4,98.1L752.4,98.1z"/>
<path d="M494.5,121.9c-1.5-5.3-2.6-9.5-2.9-10.1c-1.4-3.6-5.5-5.4-9.1-4.1c-2.2,0.8-3,3.3-4.7,4.6c-0.3,0.2-0.7,0.4-1,0.5
	c0.7-6.5-4-12.4-10.6-13.1c-6.5-0.7-12.4,4-13.1,10.6s4,12.4,10.6,13.1c5.6,0.6,10.9-2.9,12.6-8.3c2.2-1.1,4.3-2.4,6.1-4
	c1.4-1,3.3-0.6,4.3,0.8c0.1,0.1,0.2,0.3,0.2,0.4c0.3,0.4,1.6,5.2,3.4,11.7l0.3-0.3C491.6,122.6,493,121.9,494.5,121.9"/>
<path d="M470.8,130.9l-0.3-0.1l0,0c-2-1.2-4.6-0.4-5.8,1.6c-0.8,1.4-0.7,3.2,0.2,4.6c0.4,0.5,0.8,0.9,1.3,1.2
	c3.3,1.7,7,2.6,10.7,2.6h0.6c1.3,0,2.7-0.2,4-0.4c1.9-0.4,3.8-1,5.5-1.8c2.2-1,4.2-2.3,6.1-3.9c1.4-1.1,2.6-2.3,3.8-3.6
	c0.3-0.4,0.6-0.7,0.9-1.1c1.5-1.8,1.2-4.5-0.6-5.9c-1.8-1.4-4.3-1.2-5.8,0.5c-0.2,0.3-0.5,0.6-0.8,0.9c-2,2.3-4.4,4.1-7.1,5.4
	c-2.1,1-4.3,1.5-6.6,1.5c-0.3,0-0.6,0-0.9,0c-1.4-0.1-2.7-0.3-4-0.8C471.7,131.3,471.3,131.1,470.8,130.9"/>
<path d="M513.3,135.4l-9.1-6.1c-0.5-0.4-1.3-0.3-1.7,0.3c-0.4,0.5-0.3,1.2,0.2,1.6c0.7,3.1,0,9.8,0,11.6s1.7,7.8,0.5,8.1
	c-0.3,0.1-1.1-2-2.1-5.3c1.4-1.8,1.1-4.5-0.7-5.9c-0.4-0.3-0.8-0.5-1.3-0.7c-0.6-2.2-1.3-4.5-1.9-6.8c-1.2,1.2-2.4,2.4-3.8,3.5
	l1.1,4.1c-2.3,1-4.8,1.5-7.3,1.5c-1.2,0-2.5-0.1-3.7-0.4c-1.9,0.5-3.9,0.8-5.9,0.9H477l0,0c-3.6,0-7.2-0.8-10.4-2.3l-0.7-0.4l0,0
	h-0.1c-2.6-1.4-3.5-4.6-2.1-7.2c1.4-2.6,4.6-3.5,7.2-2.1c0,0,0.1,0,0.1,0.1l0.2,0.1c0.4,0.2,0.8,0.3,1.2,0.5c1,0.3,2.1,0.6,3.2,0.7
	c-1.6-3.4-4.5-5.9-7.8-5.5c-4.6,0.5-9.9,5-9.8,13.2c0.3,11.3,1.9,18,7.2,28.6c2.3,3.8,4.9,5.3,7.5,5.7c0.7,3.9,1,7.8,1,11.7
	c-0.1,9.8-1.5,19.5-4,29c-0.9,3.5,1.3,7.1,4.8,8c0.5,0.1,1.1,0.2,1.6,0.2c3,0,5.7-2.1,6.4-5c2.8-10.5,4.3-21.4,4.4-32.3
	c0.1-6.1-0.6-12.1-2.1-18c-0.2-1.6-0.7-3.1-1.4-4.6c-2.2-4.4-3.7-9.1-4.6-14c2.7,1,5.5,1.5,8.4,1.4l0,0c3.3,0,6.5-0.6,9.6-1.8
	c2.1,7.6,3.9,13.7,4.4,14.9c1.5,3.4,6.3,3.8,8.8,1.2c2.5-2.6,0.4-9.7-1.3-17.5c-1.3-6,1.7-8.3,3.2-9l0,0c0.6,0.3,1.3,0.1,1.7-0.5
	C513.9,136.5,513.8,135.8,513.3,135.4"/>
<path class="st0" d="M482.5,51c-7.9,0.5-13.9,6.9-13.4,14.2c0.3,4.1,2.5,7.8,6,10l0.3,5.1l4.7-3c1.4,0.3,2.7,0.4,4.1,0.3
	c7.9-0.5,13.9-6.9,13.4-14.2S490.4,50.5,482.5,51z M485.1,68.8l-3.9-3.7l-6.8,4.4l7.2-8.8l4,3.7l6.7-4.3L485.1,68.8z"/>
<ellipse class="st0" cx="511" cy="93.3" rx="7.4" ry="6.9"/>
<ellipse class="st0" cx="495" cy="98.4" rx="3.7" ry="3.5"/>
<path d="M301.4,132.9c3.2-2.2,5.8-5.3,7.4-8.8h-17C294.2,127.8,297.5,130.8,301.4,132.9"/>
<path d="M285.3,163.8v52.3c0,3.6,2.9,6.5,6.5,6.5s6.5-2.9,6.5-6.5v-47.7h2.5v47.7c0,3.6,2.9,6.5,6.5,6.5s6.5-2.9,6.5-6.5v-79.2
	c0.4,0.7,0.7,1.5,0.9,2.2c1.5,4.1,2.7,10.9,2.7,21.5c0,2.9-0.1,6.1-0.3,9.6c-0.1,2.3,1.6,4.3,4,4.5l0,0h0.2c2.2,0,4.1-1.8,4.2-4
	c0.2-3.7,0.3-7,0.3-10.1c0-16-2.6-24.8-6-30.1c-1.4-2.2-3.3-4-5.6-5.3c-1-0.5-2.1-0.8-3.2-1c-0.4-0.1-0.8-0.2-1.2-0.3
	c-1.7,4-4.6,7.4-8.2,9.9c0,0-0.6,0.5-1.6,1.4c-1.3,1.2-2.5,2.4-3.6,3.8c-2.6,3.1-5.2,7.4-5.2,11.8c0,0.8,0.1,1.6,0.3,2.4l3.3-1
	c0.6-0.2,1.1,0.1,1.3,0.7L300,165c0.2,0.6-0.1,1.1-0.7,1.3l-8.1,2.5c-0.6,0.2-1.1-0.1-1.3-0.7l-0.9-3h0.4c2.3,0,4.2-1.9,4.2-4.2
	c0-1.7-1-3.2-2.6-3.9c-1.5-0.6-3-1.4-4.3-2.3c0.1,0,0.1-0.1,0.2-0.1l3.8-1.1c-0.2-0.9-0.3-1.8-0.3-2.7c0-8.2,7.9-15.3,10.2-17.3
	c-4.1-2.2-7.6-5.5-10-9.5h-1.2c-0.2,0-0.3,0-0.5,0h-0.2c-0.7,0-1.4,0.1-2,0.4c-0.8,0.3-1.5,0.7-2.2,1.2c-2.9,2.2-5.3,4.8-7.3,7.9
	c-2.7,3.8-4.2,8.3-4.4,13c0,3.7,1.2,7.4,3.5,10.3C278.8,159.7,281.8,162.1,285.3,163.8 M285.3,136.7v17c-0.8-0.6-1.5-1.4-2.1-2.1
	c-1.2-1.5-1.8-3.3-1.8-5.2C281.3,143.4,283,139.6,285.3,136.7"/>
<path d="M290.9,122.4c-1.6-3.2-2.6-6.7-2.8-10.3c1.6,6.4,8.1,10.2,14.5,8.6c4.3-1.1,7.6-4.5,8.6-8.8c0,0.2,0,0.4,0,0.6
	c0,3.4-0.6,6.7-1.7,9.9c-0.2,0.5-0.4,1.1-0.7,1.6h1.2c0.2-0.6,0.5-1.1,0.6-1.6c1.1-3.2,1.6-6.5,1.6-9.9c0-0.8,0-1.5-0.1-2
	c0.7-0.4,1-1.3,0.6-2.1c-0.3-0.5-0.8-0.8-1.3-0.8l0,0c-0.9-6.5-6.8-11.1-13.3-10.3c-5.4,0.7-9.6,4.9-10.3,10.3
	c-0.8-0.1-1.6,0.4-1.8,1.2c-0.1,0.7,0.3,1.4,0.9,1.7c0,0.1,0,0.2,0,0.4c0,4,0.9,7.9,2.7,11.5c0.3,0.5,0.6,1.1,0.9,1.6h1.2
	C291.5,123.5,291.2,122.9,290.9,122.4"/>
<path d="M277.5,108.2L277.5,108.2l-5.8-3.5c-0.4-0.4-1-0.4-1.4,0c-0.2,0.2-0.3,0.6-0.3,0.9l-0.3,8.2c-0.2,0-0.4-0.1-0.6-0.1
	c-0.7,0-1.4,0.2-2,0.5c-1.8,0.9-2.6,2.6-2,3.9s2.6,1.6,4.3,0.7c1.2-0.5,2.1-1.7,2.2-3.1l0,0l0.2-5.6c0-1,0.8-1.4,1.7-0.9l2.1,1.4
	c0.9,0.7,1.5,1.8,1.5,2.9l-0.2,4.4c-0.2,0-0.4-0.1-0.6-0.1c-0.7,0-1.4,0.2-2,0.5c-1.8,0.9-2.6,2.6-2,3.9s2.6,1.6,4.3,0.7
	c1.2-0.5,2.1-1.7,2.2-3.1l0,0l0.3-8.8C279.1,110,278.5,108.9,277.5,108.2"/>
<path class="st0" d="M271.2,96.8l-2.3-16.4l5.5-0.8l-0.1-6.5L268,74l-0.6-4.1c-0.3-1.8,0.1-3.2,2.7-3.6l3.4-0.5l-0.8-5.7
	c-1.7,0.1-3.3,0.2-5,0.4c-4.9,0.7-7.8,4.2-7,9.6l0.7,4.7l-5.5,0.8l0.9,6.4l5.5-0.8l2.3,16.4L271.2,96.8L271.2,96.8z"/>
<path class="st0" d="M306.8,47.4L291.5,45c-1.9-0.3-3.7,1-4,2.9l-5.1,32.3c-0.3,1.9,1,3.7,2.9,4l15.3,2.4c1.9,0.3,3.7-1,4-2.9
	l5.1-32.3C310.1,49.5,308.8,47.7,306.8,47.4L306.8,47.4z M296.4,48.6l4.7,0.7c0.3,0,0.5,0.3,0.4,0.6c0,0.3-0.3,0.5-0.6,0.4l-4.7-0.7
	c-0.3-0.1-0.5-0.3-0.5-0.6C295.8,48.7,296.1,48.5,296.4,48.6L296.4,48.6z M293.4,83.1c-0.7-0.1-1.2-0.8-1.1-1.5s0.8-1.2,1.5-1.1
	s1.2,0.8,1.1,1.5l0,0C294.7,82.7,294.1,83.2,293.4,83.1C293.4,83.1,293.3,83.1,293.4,83.1L293.4,83.1z M303.6,80.1l-19-3l4.1-25.9
	l19,3L303.6,80.1z"/>
<path class="st0" d="M302.2,65.6c0-0.2-0.2-0.3-0.3-0.4l-3.2-1l-1-3.2c-0.1-0.2-0.3-0.4-0.6-0.3c-0.1,0-0.2,0.1-0.2,0.2l-2,2.7
	l-3.3-0.1c-0.2,0-0.3,0.1-0.4,0.2c-0.1,0.2-0.1,0.3,0,0.5l2,2.7l-1.1,3.1c-0.1,0.1,0,0.3,0.1,0.4s0.3,0.2,0.5,0.1l3.1-1.1l2.7,2
	c0.1,0,0.1,0.1,0.2,0.1s0.2,0,0.3-0.1c0.2-0.1,0.2-0.2,0.2-0.4v-3.3l2.7-2C302.1,65.9,302.2,65.8,302.2,65.6z"/>
<ellipse class="st0" cx="338.6" cy="98.3" rx="7.4" ry="6.9"/>
<ellipse class="st0" cx="323.5" cy="109.3" rx="3.7" ry="3.5"/>
<path d="M887.9,161.8c-1.1-11.8-6-19.8-10.7-24.6c-2.7-2.8-5.9-5.1-9.5-6.7c-0.8-0.3-1.7-0.4-2.6-0.1h-0.3l-0.1,0.1
	c-3,3.4-7.7,4.9-12.2,3.8c-0.8-0.2-1.6-0.5-2.4-0.8c-1.6-0.7-3.1-1.8-4.2-3.2l-0.2-0.3h-0.1c-8.3,1.1-15.7,6-19.8,13.3
	c-2.2,4-3.5,8.3-3.9,12.9c-3.4,1.5-5.6,4.8-5.6,8.5v53.9c0,1.3,1.1,2.4,2.4,2.4s2.4-1.1,2.4-2.4v-53.9c0-1.2,0.5-2.3,1.3-3.2
	c0.7,1.1,2,1.8,3.3,1.9h0.2c1.2,0,2.4-0.6,3.2-1.5c0.6,0.8,1,1.8,1,2.8c0,1.3,1.1,2.4,2.4,2.4s2.4-1.1,2.4-2.4
	c0-3.3-1.7-6.3-4.5-7.9c0.3-3.2,1.3-6.4,2.8-9.3c1.8-3.2,4.5-5.7,7.8-7.3c-2.7,13.6-8.7,46-5,50.4c1.2,1.2,2.7,2,4.3,2.5
	c-0.3,6.1-0.5,13.3-0.5,21.8c0,3.4,2.7,6.1,6.1,6.1c3.4,0,6.1-2.7,6.1-6.1l0,0c0-7.5,0.2-13.9,0.4-19.4c1,0.1,2,0.2,3,0.2
	s2-0.1,3-0.2c0.3,5.5,0.4,11.9,0.4,19.4c0.3,3.3,3.3,5.8,6.6,5.5c2.9-0.3,5.2-2.6,5.5-5.5c0-8.5-0.2-15.7-0.5-21.8
	c1.6-0.5,3.1-1.3,4.3-2.5c3.5-4.2-1.8-33.9-4.6-48.4c0.4,0.4,0.8,0.8,1.3,1.2c3.4,3.7,7,9.5,8,19.1c0.2,2.2,2,3.8,4.2,3.8h0.4
	C886.4,166.2,888.1,164.1,887.9,161.8"/>
<path d="M858.3,110.1c1.2,0.3,2.4,0.7,3.5,1.4c-0.3-3.5-3.3-6.1-6.8-5.8c-3.1,0.2-5.6,2.7-5.8,5.8c1.9-1.1,4.1-1.7,6.3-1.7
	C856.4,109.8,857.4,109.9,858.3,110.1"/>
<path d="M847.5,130.4c0.7,0.6,1.4,1.2,2.2,1.7c5.5,3.2,12.5,1.4,15.7-4.1c3.2-5.5,1.4-12.5-4.1-15.7s-12.5-1.4-15.7,4.1
	C842.9,120.9,843.7,126.7,847.5,130.4L847.5,130.4"/>
<path class="st0" d="M845.4,59.2c-0.3,0-0.6,0-0.9,0.1l12,15.7c0.4,0.4,1,0.5,1.4,0.2l15.5-12.3c-0.3-0.2-0.6-0.3-0.9-0.3
	L845.4,59.2z M843.2,60.4c-0.2,0.4-0.3,0.8-0.4,1.2L840.7,79c-0.3,1.3,0.6,2.6,1.9,2.9l27.2,3.4c1.3,0,2.5-1,2.5-2.3l2.2-17.5
	c0.1-0.4,0-0.8-0.1-1.2l-15.6,12.4c-1,0.8-2.4,0.7-3.2-0.3l-0.1-0.1L843.2,60.4z"/>
<path class="st0" d="M430.1,67.9c-0.3,0.1-0.6,0.2-0.8,0.3L445,80.2c0.5,0.3,1.1,0.2,1.4-0.2l11.7-16c-0.3-0.1-0.7-0.1-0.9-0.1
	L430.1,67.9z M428.3,69.6c-0.1,0.4-0.1,0.9-0.1,1.3l2.6,17.3c0.1,1.3,1.3,2.3,2.6,2.3l27.1-4c1.3-0.3,2.1-1.6,1.8-2.9l-2.5-17.5
	c0-0.4-0.2-0.8-0.4-1.1l-11.7,16.1c-0.8,1-2.1,1.3-3.2,0.6l-0.1-0.1L428.3,69.6z"/>
<polygon class="st0" points="808.4,83.5 808.6,85.1 824.3,83.9 824.2,82.3 822.1,82.5 828.4,73 818.1,66.1 808.1,81.1 811.4,83.3 
	"/>
<polygon class="st0" points="834.8,98.1 834.1,87.9 827.2,77.7 826.2,79.1 831.2,86.5 802.1,88.7 806,80.5 806.6,80.5 807.7,78.8 
	804.9,79 799.5,90.5 800.3,100.8 "/>
<ellipse class="st0" cx="893.4" cy="106.1" rx="7.4" ry="6.9"/>
<ellipse class="st0" cx="881.4" cy="119.2" rx="3.7" ry="3.5"/>
<path class="st0" d="M934.6,51.9c-0.5,0.1-0.9-0.2-1-0.7s0.2-0.9,0.7-1l2.4-0.4c-0.6-2.2-1.8-4.3-3.6-5.7l-1.4,2
	c-0.3,0.4-0.8,0.5-1.2,0.2s-0.5-0.8-0.2-1.2l1.4-2c-2-1.2-4.3-1.7-6.6-1.5l0.4,2.4c0.1,0.5-0.2,0.9-0.7,1s-0.9-0.2-1-0.7l0,0
	l-0.4-2.4c-2.2,0.6-4.3,1.8-5.7,3.6l2,1.4c0.4,0.3,0.5,0.8,0.2,1.2s-0.8,0.5-1.2,0.2l-2-1.4c-1.2,2-1.7,4.3-1.5,6.6l2.4-0.4
	c0.5-0.1,0.9,0.2,1,0.7s-0.2,0.9-0.7,1l-2.4,0.4c0.6,2.2,1.8,4.3,3.6,5.7l1.4-2c0.3-0.4,0.8-0.5,1.2-0.2s0.5,0.8,0.2,1.2l-1,1.4l0,0
	l-0.5,0.7c2,1.2,4.3,1.7,6.6,1.5l-0.4-2.4c-0.1-0.5,0.2-0.9,0.7-1s0.9,0.2,1,0.7l0.4,2.4c2.2-0.6,4.3-1.8,5.7-3.6l-2-1.4
	c-0.4-0.3-0.5-0.8-0.2-1.2s0.8-0.5,1.2-0.2l2,1.4c1.2-2,1.7-4.3,1.5-6.6L934.6,51.9z M928.9,54.4c-1.1,1.5-3.2,1.9-4.7,0.8
	c-1.5-1.1-1.9-3.2-0.8-4.7c1.1-1.5,3.2-1.8,4.7-0.8C929.6,50.8,930,52.9,928.9,54.4L928.9,54.4z"/>
<path class="st0" d="M919.6,31c-19.7,0-35.7,15-35.7,33.6s16,33.6,35.7,33.6s35.7-15,35.7-33.6S939.3,31,919.6,31z M937.8,60.7
	c-3.2,4.6-8.9,6.8-14.4,5.8l-1.7,2.4l1.4,1c1.1-1.5,3.2-1.8,4.7-0.8c1.5,1.1,1.9,3.2,0.8,4.7l-1,1.4l-4.1-2.9l-1,1.4l4.1,2.9
	l-7.3,10.3l-0.7-0.5l-1.9,2.7l-1.4-1l-1.9,2.7c-0.3,0.4-0.8,0.5-1.2,0.2s-0.5-0.8-0.2-1.2l0,0l2-2.8l-1.4-1l1.9-2.7l-0.7-0.5
	l6.3-8.9l-1.4-1l-0.5,0.7c-0.9,1.3-2.3,2.1-3.8,2.4c-0.3,0.1-0.7,0.1-1,0.1l-1.1,1.6l-0.7-0.5l-2.1,3l-1.4-1l-0.6,0.8
	c-0.3,0.4-0.8,0.5-1.2,0.2s-0.5-0.8-0.2-1.2l0,0l0.6-0.8l-1.4-1l2.1-3l-0.7-0.5l1.1-1.6c-0.6-1.8-0.4-3.8,0.7-5.4L909,66l-1.4-1
	l-6.3,8.9l-0.7-0.5l-1.9,2.7l-1.4-1l-1.9,2.7c-0.3,0.4-0.8,0.5-1.2,0.2s-0.5-0.8-0.2-1.2l0,0l1.9-2.7l-1.4-1l1.9-2.7l-0.7-0.5
	l7.2-9.9l4.1,2.9l1-1.4l-4.1-2.9l1-1.4c1.1-1.5,3.2-1.8,4.7-0.8c1.5,1.1,1.9,3.2,0.8,4.7l1.4,1l1.7-2.4c-4-6.8-1.7-15.6,5.1-19.5
	c6.8-4,15.6-1.7,19.5,5.1C941.4,50.1,941.1,56.2,937.8,60.7L937.8,60.7z"/>
<path class="st0" d="M920.6,65.6l-0.5-0.2l-0.7-0.3l-0.4-0.2l-0.4-0.2l-1,1.4c-0.3,0.4-0.8,0.5-1.2,0.2s-0.5-0.8-0.2-1.2l0,0l1-1.4
	l-0.3-0.3l-0.3-0.3c-0.2-0.2-0.4-0.3-0.6-0.5l-0.4-0.4l-0.3-0.4c-0.2-0.2-0.3-0.3-0.4-0.5l-4.7,6.7c-0.5,0.7-0.8,1.6-0.8,2.5
	c0.1-0.1,0.1-0.2,0.2-0.2c0.1-0.1,0.1-0.2,0.2-0.3c0.1-0.1,0.2-0.2,0.3-0.2s0.1-0.1,0.2-0.2c0.1-0.1,0.3-0.1,0.4-0.2l0.2-0.1
	c0.2-0.1,0.4-0.1,0.6-0.2c0.9-0.2,1.8,0.1,2.5,0.6c0.2,0.1,0.4,0.3,0.5,0.4c0,0,0.1,0.1,0.1,0.2c0.1,0.1,0.2,0.2,0.3,0.4
	c0.1,0.1,0.1,0.2,0.2,0.3c0,0.1,0.1,0.2,0.1,0.3c0.2,0.4,0.2,0.8,0.2,1.3c0,0.1,0,0.2,0,0.2c0,0.3-0.1,0.6-0.2,0.8
	c0,0.1,0,0.1-0.1,0.2c-0.1,0.2-0.2,0.4-0.3,0.6c0.9-0.3,1.6-0.8,2.1-1.6l4.7-6.7c-0.2-0.1-0.4-0.2-0.7-0.2L920.6,65.6z"/>
<path d="M88,119.1c-3.7-6.1-1.7-14.1,4.5-17.8c1.2-0.7,2.4-1.2,3.7-1.5c5.9-1.4,12.1,1.6,14.7,7.1c6.8-5.6,10.5-11.2,8.7-14.6
	c-2.2-4.1-11.5-3.6-22.3,0.7c-1.4-1.8-5-1.9-8.5,0c-3.3,1.8-5.2,4.7-4.6,6.8c-10.1,6.6-16.1,14.2-13.9,18.4
	C72,121.7,79.2,121.9,88,119.1"/>
<path d="M95.1,199.4L95.1,199.4c0,1.7-1.4,3-3,3l0,0l-7.3-0.1v12.9c0,3.6,2.9,6.5,6.5,6.5s6.5-2.9,6.5-6.5v-22.5l-3,1.9L95.1,199.4z
	"/>
<path d="M100.4,215.2c0,3.6,2.9,6.5,6.5,6.5s6.5-2.9,6.5-6.5v-32.4l-13.1,8.3L100.4,215.2L100.4,215.2z"/>
<path d="M96.4,100.9c-6.4,1.5-10.4,7.9-8.9,14.3s7.9,10.4,14.3,8.9s10.4-7.9,8.9-14.3c-0.2-0.7-0.4-1.5-0.7-2.2
	C107.6,102.4,101.9,99.6,96.4,100.9"/>
<path d="M65.5,197.4l-0.1,1.7c0,1.1,0.8,1.9,1.8,2l17.6,0.2l7.4,0.1c1.1,0,1.9-0.8,1.9-1.9l0,0l-0.3-5.4l4.1-2.6l2.5-1.6l13.1-8.3
	l2.3-1.5c0.4,0.6,2,0.6,3.6,0l4.7-0.8v0.1c0.3,0.9,1.3,1.3,2.2,0.9l0,0l0.8-0.3c0.9-0.3,1.3-1.3,0.9-2.2l0,0l-3.5-8.7
	c-0.3-0.9-1.3-1.3-2.2-0.9l0,0l-0.8,0.3c-0.9,0.3-1.3,1.3-0.9,2.2v0.1l-4,2.7c-1.6,0.6-2.7,1.7-2.6,2.4l-0.5,0.1l-13.1,3.7l-2.5,0.7
	l-4.7,1.4l-0.3-6c0-1.8-0.7-3.2-1.6-3.2h-3c0-0.1-0.1-0.3-0.2-0.4c-0.4-1-0.9-1.9-1.6-2.7c-0.4-0.5-0.8-0.9-1.3-1.3
	c-0.1,0.3-0.1,0.5-0.2,0.8l-0.1,0.2l0,0c-0.3,0.6-0.6,1.1-1.1,1.6c0.2,0.2,0.4,0.4,0.6,0.6c0.2,0.2,0.4,0.5,0.5,0.7s0.2,0.3,0.3,0.5
	h-0.3l-9.7-0.1c0.2-0.4,0.5-0.8,0.8-1.2c0.1-0.1,0.2-0.3,0.4-0.4c-0.6-0.6-1-1.2-1.3-2c-0.1-0.2-0.1-0.3-0.2-0.5
	c-0.4,0.3-0.7,0.6-1,1c-0.8,0.9-1.4,1.9-1.9,3.1h-3c-0.6,0-1.1,0.6-1.4,1.5c-0.6-0.1-1.3-0.1-1.9-0.1c-2.4-0.1-4.8,0.5-6.8,1.9
	c-2.2,1.6-3.8,4.4-3.8,8.4c0,2.2,0.7,4.3,2,6.1C59.3,193.2,62.2,195.6,65.5,197.4 M61,178.7c1.4-0.8,3-1.2,4.5-1.1
	c0.5,0,1,0,1.5,0.1l-1.3,15.5c-0.9-0.6-1.8-1.3-2.7-2c-1.2-1-2.2-2.1-3.1-3.4c-0.8-1.1-1.2-2.4-1.2-3.7
	C58.9,180.9,59.8,179.6,61,178.7"/>
<path d="M75.7,167.7l0.3,0.8c0.2,0.6,0.6,1.2,1.2,1.7c0.8,0.7,1.8,1.1,2.8,1.1c0.5,0,1-0.1,1.5-0.3c0.2-0.1,0.3-0.1,0.5-0.2
	c0.4-0.2,0.7-0.4,1-0.7c0.7-0.7,1.2-1.6,1.3-2.6c0.1-0.4,0.1-0.8,0-1.2c0-0.3-0.1-0.5-0.2-0.8c-1.3-3.5-2.4-7-3-10.7
	c-0.4-1.9-0.6-3.9-0.6-5.9c-0.1-2.5,0.4-5,1.4-7.2c0.7-1.5,1.7-2.7,3.1-3.6v26.8l0.1,0.3c0.2,0.6,0.3,1.2,0.3,1.8
	c0.7,0.5,1.4,1.1,2,1.8c0.7,0.8,1.3,1.7,1.7,2.7h2.3c0.6,0,1.1,0.3,1.5,0.7c0.3,0.3,0.5,0.5,0.6,0.9c0.4,0.8,0.6,1.8,0.6,2.7
	l0.2,4.7l3.7-1.1v-7.2h2.5v6.5l12.8-3.7c0.1-0.2,0.2-0.4,0.3-0.5v-16.3c0-0.3,0-0.6-0.1-0.9v-13.5c5,4.3,12.9,8.6,24,9h0.2
	c1.3,0,2.5-0.6,3.3-1.6c-2.1-2.3-3.4-5.1-2.5-6.8c-0.2,0-0.4-0.1-0.6-0.1c-9.4-0.4-15.4-3.9-19.2-7.3c-1.5-1.4-2.9-2.9-4.1-4.6
	c-0.4-0.6-0.7-1.1-0.9-1.4l-0.2-0.3l0,0c-0.2-0.5-0.5-0.9-0.9-1.2c-0.8-1-2-1.6-3.2-1.6H88.9c-0.3,0-0.7,0-1,0.1h-0.4l0,0
	c-2.9,0.4-5.7,1.6-8,3.4c-2.3,1.7-4.1,4-5.3,6.5c-1.6,3.4-2.4,7.2-2.3,11c0,2,0.2,3.9,0.5,5.9c0.6,4,1.6,8,3,11.8L75.7,167.7"/>
<path d="M152.6,153.7c2.2,0,4,1.8,4,4s-1.8,4-4,4s-4-1.8-4-4S150.4,153.7,152.6,153.7"/>
<path d="M152.6,139.2c1.5,0,2.6,2.8,2.6,6.3s-1.2,6.3-2.6,6.3s-2.6-2.8-2.6-6.3S151.1,139.2,152.6,139.2"/>
<path d="M152.6,163.6c1.5,0,2.6,2.8,2.6,6.3s-1.2,6.3-2.6,6.3s-2.6-2.8-2.6-6.3S151.1,163.6,152.6,163.6"/>
<path d="M141.5,150.2c0.2,0.2,0.4,0.4,0.6,0.7c2.5,2.4,5.3,3.6,6.3,2.6s-0.1-3.9-2.6-6.3s-5.3-3.6-6.3-2.6l-0.1,0.1
	C138.7,145.7,139.6,148,141.5,150.2"/>
<path d="M156.8,161.9c1-1,3.8,0.1,6.3,2.6s3.6,5.3,2.6,6.3s-3.8-0.1-6.3-2.6S155.7,162.9,156.8,161.9"/>
<path d="M140.4,155c3.5,0,6.3,1.2,6.3,2.6s-2.8,2.6-6.3,2.6s-6.3-1.2-6.3-2.6S136.9,155,140.4,155"/>
<path d="M164.8,155c3.5,0,6.3,1.2,6.3,2.6s-2.8,2.6-6.3,2.6s-6.3-1.2-6.3-2.6S161.3,155,164.8,155"/>
<path d="M142.1,164.4c2.5-2.4,5.3-3.6,6.3-2.6s-0.1,3.9-2.6,6.3s-5.3,3.6-6.3,2.6S139.6,166.9,142.1,164.4"/>
<path d="M159.3,147.1c2.5-2.4,5.3-3.6,6.3-2.6s-0.1,3.9-2.6,6.3s-5.3,3.6-6.3,2.6S156.9,149.6,159.3,147.1"/>
<path d="M161.8,183.4c-0.5-1.4-7.3-0.4-12.1,1.2s-5.5,3.2-5,4.6s2.1,2.2,6.8,0.6S162.3,184.8,161.8,183.4"/>
<path d="M131.1,171.8c-1.4,0.5-0.2,7.1,1.6,11.7s3.3,5.2,4.7,4.7s2.1-2.1,0.3-6.6S132.5,171.3,131.1,171.8"/>
<path d="M129.5,198.9c0,1.2,0.9,2.1,2,2.2l3.8,19.1h13.8l3.8-19.1c1.2-0.1,2.2-1.1,2.1-2.3c-0.1-1.2-1.1-2.2-2.3-2.1l0,0h-9.9
	c0-0.2,0-0.4,0-0.6c0-5.6,0.8-11.1,2.4-16.4c0.6-2,1.2-3.6,1.7-4.7c0.2-0.6,0.4-1,0.5-1.2l0.2-0.4c0.3-0.7,0-1.4-0.6-1.8
	c-0.6-0.3-1.4,0-1.7,0.6c-3.4,7.6-5.1,15.7-5.1,24c0,0.2,0,0.4,0,0.6h-8.3C130.5,196.6,129.5,197.7,129.5,198.9L129.5,198.9"/>
<path class="st0" d="M130.4,35.3l-16.2-2.6c-2-0.3-3.9,1.1-4.3,3.1l-5.4,34.4c-0.3,2,1.1,3.9,3.1,4.3l16.3,2.6
	c2,0.3,3.9-1.1,4.3-3.1l5.4-34.3C133.9,37.5,132.5,35.6,130.4,35.3z M119.3,36.6l5,0.8c0.3,0.1,0.5,0.4,0.4,0.7s-0.3,0.4-0.6,0.4
	l-5-0.8c-0.3-0.1-0.5-0.3-0.5-0.7C118.7,36.7,119,36.5,119.3,36.6L119.3,36.6z M116.1,73.2c-0.8-0.1-1.3-0.8-1.1-1.6
	s0.8-1.3,1.6-1.1c0.8,0.1,1.3,0.8,1.1,1.6C117.6,72.8,116.8,73.3,116.1,73.2L116.1,73.2L116.1,73.2z M127,70l-20.2-3.2l4.4-27.6
	l20.2,3.2L127,70z"/>
<path class="st0" d="M125.5,54.7c0-0.2-0.2-0.3-0.3-0.4l-3.4-1l-1.1-3.4c-0.1-0.2-0.4-0.4-0.6-0.3c-0.1,0-0.2,0.1-0.2,0.1l-2.1,2.9
	l-3.5-0.1c-0.2,0-0.4,0.1-0.4,0.3c-0.1,0.2-0.1,0.3,0,0.5l2.1,2.8l-1.1,3.3c-0.1,0.2,0,0.3,0.1,0.5c0.1,0.1,0.3,0.2,0.5,0.1l3.4-1.1
	l2.8,2.1c0.1,0.1,0.1,0.1,0.2,0.1s0.2,0,0.3-0.1c0.2-0.1,0.3-0.2,0.2-0.4l-0.1-3.5l2.9-2C125.4,55,125.5,54.8,125.5,54.7z"/>
<path class="st0" d="M64.7,60.4c-0.2-2.2-0.4-4.5-0.5-6.8c-0.2-1.9,0.1-3.9,0.9-5.6c1.1-2.3,3.1-3.9,5.5-4.5c1.5-0.4,3-0.7,4.5-0.8
	c3.3-0.4,6.6-0.7,9.9-1c1.7-0.2,3.5-0.2,5.2,0.2c3.2,0.6,5.7,3,6.5,6.1c0.4,1.5,0.7,3,0.8,4.6c0.4,3.3,0.7,6.6,1,9.9
	c0.2,1.7,0.2,3.5-0.2,5.2c-0.6,3.2-3,5.7-6.1,6.5c-1.5,0.4-3,0.7-4.6,0.8c-3.3,0.4-6.6,0.7-9.9,1c-1.7,0.2-3.5,0.2-5.2-0.2
	c-3.1-0.6-5.6-3-6.5-6.1c-0.4-1.5-0.7-3-0.8-4.6C65,63.6,64.9,62,64.7,60.4L64.7,60.4z M95,57.2L95,57.2c-0.2-1.3-0.3-2.6-0.5-3.9
	s-0.3-2.5-0.6-3.8c-0.4-2.6-2.6-4.7-5.2-4.8c-1.5-0.1-3-0.1-4.6,0.1c-2.8,0.2-5.5,0.5-8.3,0.8c-1.4,0.1-2.9,0.4-4.2,0.7
	c-2.3,0.5-4,2.3-4.3,4.6c-0.1,0.8-0.2,1.6-0.1,2.4c0.2,3,0.5,6,0.8,9c0.2,1.9,0.4,3.8,0.8,5.7c0.3,2.7,2.5,4.7,5.2,4.8
	c1.5,0.1,3.1,0.1,4.6-0.1c2.8-0.2,5.5-0.5,8.3-0.8c1.3-0.1,2.6-0.3,3.8-0.6c1.2-0.2,2.3-0.8,3.1-1.6c1.3-1.3,2-3.2,1.8-5
	C95.4,62.3,95.2,59.8,95,57.2L95,57.2z"/>
<path class="st0" d="M89.9,58c0.5,4.7-3,8.9-7.7,9.4s-8.9-3-9.4-7.7s3-8.9,7.7-9.4h0.1C85.3,49.8,89.4,53.3,89.9,58L89.9,58z
	 M80.8,53.3c-3.1,0.3-5.3,3-5,6.1s3,5.3,6.1,5s5.3-3,5-6.1C86.5,55.2,83.8,53,80.8,53.3L80.8,53.3z"/>
<path class="st0" d="M89.2,47.1c1.1-0.1,2.1,0.7,2.2,1.8l0,0c0.1,1.1-0.7,2.1-1.8,2.2l0,0c-1.1,0.1-2.1-0.7-2.2-1.8l0,0
	C87.2,48.2,88,47.2,89.2,47.1C89.1,47.1,89.1,47.1,89.2,47.1z"/>
<ellipse class="st0" cx="148" cy="102.9" rx="7.4" ry="6.9"/>
<ellipse class="st0" cx="130.3" cy="110.5" rx="3.7" ry="3.5"/>
<path class="st0" d="M729.4,68.7l-1.5,1.4l1.7,2.6v-0.3c0.1-1.2,0-2.3-0.2-3.5V68.7z"/>
<path class="st0" d="M188.5,40.4c-19.7,0-35.7,15-35.7,33.6s16,33.6,35.7,33.6s35.7-15,35.7-33.6S208.2,40.4,188.5,40.4z M192,48.4
	c2.7,0,4.8,2.2,4.8,4.8c0,0.6-0.1,1.2-0.4,1.8c-0.3-0.2-0.7-0.3-1.1-0.3c-0.8,0-1.5,0.5-1.8,1.3l-0.6,2c-2.6,0.6-5.2-1.1-5.7-3.7
	c-0.6-2.6,1.1-5.2,3.7-5.7C191.2,48.5,191.6,48.4,192,48.4L192,48.4z M191.8,63.6l2.4-7.5c0.2-0.6,1-0.9,1.6-0.7s0.9,0.8,0.7,1.4
	l-2.6,8.2c-0.1,0.4-0.5,0.8-1,0.8l-5.8,0.8c-0.7,0.1-1.3-0.4-1.4-1c0-0.3,0-0.6,0.2-0.9s0.5-0.4,0.8-0.5L191.8,63.6z M188.8,62.4
	c1-1.3,1.6-2.4,1.8-2.6l0.1-0.1c0.2-0.4,0.5-0.7,0.9-1c0.4,0,0.8,0,1.1,0l-1.4,4.4l-1.6,0.2C189.5,63,189.2,62.7,188.8,62.4
	L188.8,62.4z M180.7,54.2c2.1-1.1,4.7-0.3,5.8,1.8s0.3,4.7-1.8,5.8s-4.7,0.3-5.8-1.8C177.8,57.9,178.6,55.3,180.7,54.2
	C180.7,54.3,180.7,54.2,180.7,54.2L180.7,54.2z M169.5,94.6c-0.9,0.7-2.2,0.5-2.9-0.5c-0.6-0.9-0.5-2,0.3-2.7l10.1-8.3
	c1.4,0.9,3,1.4,4.7,1.5L169.5,94.6L169.5,94.6z M179.2,94.8c-0.6,0-1.2-0.2-1.6-0.6c-1.2-0.9-1.4-2.5-0.5-3.7l2.9-3.7l2.7-2.2
	c1.5,0,3-0.2,4.5-0.7c0.8-0.3,1.7-0.5,2.5-0.9l-8.3,10.7C180.8,94.4,180,94.8,179.2,94.8L179.2,94.8z M190.5,93.3
	c-0.5,1-1.8,1.4-2.8,0.9s-1.4-1.8-0.9-2.8c0.1-0.1,0.1-0.2,0.2-0.3l5-8.2l-1.3-0.4c0.8-0.4,1.5-1,2.1-1.6s1.2-1.2,2-1.5l1.1,0.3
	c1.1,0.3,1.7,1.5,1.4,2.6c-0.1,0.2-0.1,0.3-0.2,0.5L190.5,93.3z M205.5,71.8c-0.5,0.8-1.5,1-2.3,0.6c-0.8-0.5-1-1.5-0.6-2.3
	c0-0.1,0.1-0.1,0.1-0.2c2.2-3.2,2.6-5.2,2.6-6.4c0-0.8-0.2-1.6-0.7-2.2c-0.5-0.6-1.2-1.1-1.9-1.4l-0.2-0.1V60
	c0.7,4.3,0.4,6.8-0.8,11.9l0,0l0,0c0.3,0.6,0.6,1.2,0.9,1.8c1.2,2.8,1.8,5.9,1.8,9c0,3.6-0.8,7.2-2.2,10.5c-0.5,1.4-2,2.1-3.4,1.6
	s-2.1-2-1.6-3.4c0-0.1,0.1-0.1,0.1-0.2c1.2-2.7,1.8-5.6,1.8-8.5c0-3.1-0.8-6.1-2.4-8.8l-0.1-0.1l-3.4,4.4l0.1,0.1l0.4,0.2l0.3,0.2
	c-0.7,0.4-1.3,0.9-1.8,1.5c-0.7,0.8-1.4,1.6-5.2,2.8c-0.6,0.2-5.9,1.7-9.9-0.9l4.4-5.5l0,0c0.3-0.7,0.6-1.3,0.9-1.9v-0.1l-3.5-5.1
	c-0.3-0.5-0.3-1.2,0.2-1.6l5-4.6l0,0l0.2-0.2c0.1-0.1,0.2-0.1,0.2-0.2c0.4-0.3,0.8-0.5,1.2-0.6c1.2-0.3,2.5,0,3.3,0.9l-2.3,0.3
	c-1,0.1-1.7,1.1-1.6,2.1l0,0c0.1,0.9,0.9,1.6,1.8,1.6h0.2l3.7-0.5c0.1,0.6,0.2,1.1,0.2,1.7c-0.1,1.7-1,2.8-2.2,2.8h-0.1v0.1
	c-0.4,1.3-0.7,2.6-0.9,3.9l0,0l0.2,0.9h0.1h0.2h0.1V76c0-0.2,0-0.4,0.1-0.6l3.1-4v-0.1c0.7-1.6,1.1-3.3,1.2-5h0.1
	c0.7-0.1,1.3-0.6,1.5-1.2l1.2-3.8c0,0.1,0,0.3,0,0.4c0,0.4,0,0.6,0.2,0.6c0.1,0,0.2,0,0.2,0c0.5-0.4,1.5-3.6,1.1-6
	c0.6-0.2,1.2-0.4,1.8-0.6c0.1,0,0.2-0.1,0.3-0.1h0.3c0.9,0.1,1.8,0.2,2.7,0.5c1.8,0.4,3.5,1.4,4.7,2.8c1,1.2,1.6,2.8,1.5,4.4
	C208.6,65.9,207.5,68.6,205.5,71.8L205.5,71.8z"/>
<g>
	<path class="st0" d="M543.2,60.5h-0.3l-2.1-0.1c-1.5-0.1-2.9-0.1-4.4-0.1h-2.2l-0.2,0.5l0.5,0.2c0.3,0.2,0.5,0.3,0.8,0.4
		c0.1,0,0.2,0.1,0.3,0.1c0.9,0.4,1.3,1.4,0.9,2.3c-0.2,1-0.1,2,0.3,3c0.6,1,0.5,2.3-0.2,3.2c-0.2,0.3-0.3,0.7-0.3,1
		c0,0.6,0.1,0.8,0.6,1c0.6,0.2,1.2,0.4,1.7,0.4c0.2,0,0.4,0,0.6,0h0.1l0.5-0.3c2-1,3.8-2.3,5.3-3.9c0.8-0.8,1.3-1.8,1.6-2.9
		C547,63,545.5,60.9,543.2,60.5z"/>
	<path class="st0" d="M537.3,55c1.6-0.4,2.9-1.5,3.5-3.1l-0.2-0.2c-1.2,0.9-2.5,1.7-3.7,2.6c-0.4,0.3-1.2,0.6-1,0.8
		C536.2,55.6,536.8,55.1,537.3,55z"/>
	<path class="st0" d="M548.2,31.5c-19.7,0-35.7,15-35.7,33.6s16,33.6,35.7,33.6s35.7-15,35.7-33.6S567.9,31.5,548.2,31.5z M562.5,78
		c0.4,3.7,1.4,10.7,1.1,11c-0.4,0.4-31.3-0.4-31.5-1.4s5.1-6.5,8.7-8.6c2.1-1.2,2.5-2.7,2.3-4.7c-0.1-0.6-0.2-0.8-0.8-0.8
		c-1,0.1-1.9,0-2.9-0.1c-0.3,0-0.5,0-0.7,0c-0.8,0-1.5-0.2-2.2-0.5c-0.9-0.3-1.4-1.2-1.2-2.1c0-0.6,0.2-1.1,0.5-1.5
		c0.5-0.6,0.5-1.4,0.1-2.1c-0.5-1.1-0.6-2.5-0.3-3.7c0.2-0.7,0.1-0.7-0.5-1c-0.7-0.2-1.3-0.6-1.9-0.8c-0.5-0.2-0.6-0.4-0.3-0.8
		c0.1-0.2,0.2-0.4,0.3-0.6c-2.1-0.4-4.3,0.1-6.1,1.3c-0.6,0.4-0.7,0.4-0.8-0.4c0-1.2,0.3-2.4,0.9-3.4c1.5-2.4,3.6-4.5,6.1-6
		c0.5-0.3,0.9-0.8,1.1-1.4c1.3-4.2,4.5-7.6,8.6-9.1c3.6-1.5,7.6-1.8,11.4-1.1c3.4,0.6,6.4,2.1,8.1,5.2c3.2,5.8,2.6,11.5-0.9,17
		c-0.3,0.3-0.4,0.8-0.4,1.3C561.7,68.4,562.1,73.2,562.5,78z"/>
</g>
<g>
	<path class="st0" d="M361.2,71.5c0,0-3.6-3.3-5.7-4.4c-2-0.9-4-1.6-6-2.1c0.3,1.3,0.4,2.8,0.4,4.2c0.2,5.9,2.3,8.4,5.2,11.9
		c0.5,0.5,1.1,1.1,1.6,1.6c0.8,1,2.2,1.2,3.4,0.8c0.7-0.2,1.4-0.4,2.1-0.7c4.2-1.8,7.3-3,10.1-8.2c0.5-1.2,1.3-2.4,2.3-3.3
		c-2.1-0.4-4.3-0.8-6.4-1C365.8,70.3,361.2,71.5,361.2,71.5z"/>
	<path class="st0" d="M355.6,61.7c0.4,0.3,0.8,0.4,1.2,0.5c0.4,0.1,0.9,0.1,1.3,0c0.8-0.3,1.4-0.8,1.8-1.6c0.1-0.3,0-0.5-0.2-0.6
		l-5.9-3.6c-0.2-0.1-0.4-0.1-0.5,0c-0.2,0.2-0.3,0.4-0.3,0.5C353.1,57.1,353.6,60.4,355.6,61.7z"/>
	<path class="st0" d="M374.5,61.5l-6.8,0.4c-0.3,0-0.4,0.2-0.4,0.4c-0.1,0.8,0.3,1.6,0.8,2.2c0.4,0.3,0.7,0.5,1.2,0.6
		c0.4,0.1,0.9,0.1,1.3,0.1c2.3-0.2,4.3-2.9,4.4-3s0.1-0.2,0.1-0.3C375,61.7,374.8,61.5,374.5,61.5z"/>
	<path class="st0" d="M364.7,23.1c-19.7,0-35.7,15-35.7,33.6s16,33.6,35.7,33.6s35.7-15,35.7-33.6S384.5,23.1,364.7,23.1z
		 M381.1,57.7c-1.2,4.4-1.4,6.2-2.7,9.7c-2.8,7.9-8.5,16.6-20.5,17.4c-10.4-6.3-11.5-16.7-10.3-25c0.4-3.7,1.1-5.3,2-9.9
		c1.5-6.6,5.6-20.3,5.6-20.3s1.6,9.8,3.7,10.4c1.1,0.3,2.1,0.4,3.2,0.4c2,0.2,4.2,0.5,6.2,1.1c2.1,0.4,4.1,1.1,6,2
		c1,0.4,2,0.8,3,1.1c2.2,0.4,8.1-7.6,8.1-7.6S382.9,51.2,381.1,57.7z"/>
</g>
</svg>
