<?xml version="1.0" encoding="utf-8"?>
<!-- Generator: Adobe Illustrator 21.1.0, SVG Export Plug-In . SVG Version: 6.00 Build 0)  -->
<svg version="1.1" id="Layer_1" xmlns="http://www.w3.org/2000/svg" xmlns:xlink="http://www.w3.org/1999/xlink" x="0px" y="0px"
	 viewBox="0 0 328.3 87" style="enable-background:new 0 0 328.3 87;" xml:space="preserve">
<style type="text/css">
	.st0{fill:#3D3C3E;}
</style>
<desc>Created with Sketch.</desc>
<g>
	<path id="Fill-1" class="st0" d="M145.7,62.3c-0.6,0.4-1.3,0.9-2.2,1.3c-0.9,0.5-1.8,0.9-3,1.3c-1.1,0.4-2.4,0.7-3.8,1
		c-1.4,0.3-3,0.4-4.8,0.4c-2.8,0-5.4-0.5-7.8-1.4s-4.5-2.3-6.4-4.1c-1.8-1.8-3.3-4-4.3-6.7c-1.1-2.6-1.6-5.7-1.6-9.2
		s0.5-6.5,1.6-9.2c1-2.7,2.5-5,4.3-6.8s4-3.2,6.5-4.2c2.5-0.9,5.2-1.4,8-1.4c2.4,0,4.5,0.2,6.2,0.6s3.1,1,4.1,1.6
		c1.1,0.6,1.8,1.4,2.3,2.2c0.5,0.8,0.7,1.6,0.7,2.4c0,1.1-0.3,2.1-1,3s-1.3,1.6-1.9,2.1c-0.9-0.9-2.2-1.8-3.8-2.6
		c-1.7-0.8-3.7-1.3-6.2-1.3c-1.7,0-3.2,0.3-4.7,0.8s-2.7,1.4-3.8,2.5c-1.1,1.1-1.9,2.5-2.5,4.1s-0.9,3.6-0.9,5.9
		c0,2.4,0.3,4.4,1,6.1c0.6,1.7,1.5,3,2.7,4.1c1.1,1.1,2.4,1.9,3.9,2.4s3.1,0.8,4.8,0.8c2.5,0,4.4-0.4,6-1.1c1.5-0.7,2.5-1.3,3.1-1.7
		L145.7,62.3z"/>
	<path id="Fill-3" class="st0" d="M154.6,28.8c0-1.5,0.4-2.6,1.2-3.3c0.8-0.7,1.9-1,3.3-1c0.9,0,1.7,0.1,2.4,0.4
		c0.7,0.2,1.2,0.4,1.5,0.5v39.8h-8.4V28.8z M158.8,6.3c1.4,0,2.6,0.5,3.6,1.6s1.5,2.4,1.5,4s-0.5,2.9-1.5,4s-2.2,1.6-3.6,1.6
		c-1.4,0-2.6-0.5-3.6-1.6s-1.5-2.4-1.5-4s0.5-2.9,1.5-4S157.4,6.3,158.8,6.3L158.8,6.3z"/>
	<path id="Fill-5" class="st0" d="M172,40.6c0-2.7,0.5-5.1,1.4-7.2s2.2-3.9,3.8-5.4s3.5-2.6,5.7-3.4s4.6-1.2,7.2-1.2
		c2.6,0,5,0.4,7.2,1.2c2.2,0.8,4.1,1.9,5.7,3.4c1.6,1.5,2.8,3.3,3.7,5.4s1.3,4.5,1.3,7.2v24.5h-8.4V43c0-3.7-0.8-6.5-2.4-8.4
		c-1.6-1.9-4-2.9-7.2-2.9s-5.6,1-7.2,2.9c-1.6,1.9-2.4,4.7-2.4,8.4v22.2H172V40.6z"/>
	<path id="Fill-7" class="st0" d="M216.7,28.8c0-1.5,0.4-2.6,1.2-3.3c0.8-0.7,1.9-1,3.3-1c0.9,0,1.7,0.1,2.4,0.4
		c0.7,0.2,1.2,0.4,1.5,0.5v21.3c0,3.7,0.8,6.5,2.4,8.4c1.6,1.9,4,2.9,7.2,2.9c3.3,0,5.7-1,7.3-2.9s2.4-4.7,2.4-8.4V28.8
		c0-1.5,0.4-2.6,1.2-3.3c0.8-0.7,1.9-1,3.3-1c0.9,0,1.8,0.1,2.5,0.4c0.7,0.2,1.2,0.4,1.5,0.5v23.3c0,2.8-0.4,5.2-1.3,7.4
		c-0.9,2.2-2.1,4-3.7,5.5c-1.6,1.5-3.5,2.7-5.7,3.4c-2.2,0.8-4.7,1.2-7.3,1.2c-2.7,0-5.1-0.4-7.3-1.2c-2.2-0.8-4.1-1.9-5.7-3.4
		c-1.6-1.5-2.8-3.4-3.7-5.5c-0.9-2.2-1.3-4.7-1.3-7.4V28.8H216.7z"/>
	<path id="Fill-9" class="st0" d="M261.5,39c0-5,1.4-8.8,4.2-11.5c2.8-2.7,6.6-4.1,11.6-4.1c3.1,0,5.6,0.5,7.6,1.4
		c1.9,0.9,2.9,2.4,2.9,4.3c0,0.9-0.2,1.8-0.7,2.7s-0.8,1.4-1.1,1.6c-0.8-0.4-1.9-0.8-3.1-1.2c-1.2-0.4-2.6-0.6-4.2-0.6
		c-5.8,0-8.7,3.3-8.7,10v23.5h-8.4L261.5,39L261.5,39z"/>
	<path id="Fill-11" class="st0" d="M292.2,28.8c0-1.5,0.4-2.6,1.2-3.3c0.8-0.7,1.9-1,3.3-1c0.9,0,1.7,0.1,2.4,0.4
		c0.7,0.2,1.2,0.4,1.5,0.5v21.3c0,3.7,0.8,6.5,2.4,8.4s4,2.9,7.2,2.9c3.3,0,5.7-1,7.3-2.9c1.6-1.9,2.4-4.7,2.4-8.4V28.8
		c0-1.5,0.4-2.6,1.2-3.3c0.8-0.7,1.9-1,3.3-1c0.9,0,1.8,0.1,2.5,0.4c0.7,0.2,1.2,0.4,1.5,0.5v23.3c0,2.8-0.4,5.2-1.3,7.4
		s-2.1,4-3.7,5.5s-3.5,2.7-5.7,3.4c-2.2,0.8-4.7,1.2-7.3,1.2c-2.7,0-5.1-0.4-7.3-1.2c-2.2-0.8-4.1-1.9-5.7-3.4s-2.8-3.4-3.7-5.5
		c-0.9-2.2-1.3-4.7-1.3-7.4V28.8H292.2z"/>
</g>
<g>
	<g>
		<path class="st0" d="M40.4,17.2L24.3,24C14.8,28.8,5.4,37.2,1.5,51.7c0,0-3.8-13,3.8-28.1C5.3,23.7,20.1,11.8,40.4,17.2z"/>
	</g>
	<g>
		<path class="st0" d="M59.7,22.6l-16.1-6.6c-9.5-3.1-21.2-4.5-35.7,3.3c0,0,7.4-12.1,22.6-16.9C30.5,2.4,49.4,4.4,59.7,22.6z"/>
	</g>
	<g>
		<path class="st0" d="M69.7,40.1L63,23.9C57.8,14.6,50.1,5.3,35,1.1c0,0,13.4-3.5,28.2,3.8C63.1,5,75.2,17.5,69.7,40.1z"/>
	</g>
	<g>
		<path class="st0" d="M62.5,55.8c0,0,5.7-4.1,8.6-12.5c2.5-7.3,4.3-23.6-3.8-35.7c0,0,11.7,5.6,17.2,22.6
			c-0.8,3.7-1.3,10.2-8.4,19.5C73.2,53.3,68.7,58,62.5,55.8z"/>
	</g>
	<g>
		<path class="st0" d="M85.7,34.5c0,0-2.2,11.5-12.4,21.1c0,0,0.5,13-5.6,23.4C67.6,78.9,91.3,64.5,85.7,34.5z"/>
	</g>
	<g>
		<path class="st0" d="M22.8,27.1c0,0-16.9,8.9-20.1,29.2c0,0,3.8,14.1,17,22.7c0,0-10.1-15.7-3.5-35.7L22.8,27.1z"/>
	</g>
	<g>
		<path class="st0" d="M16.7,50.3c0,0-3.4,17.7,7.3,31.2c0,0,18.9,10.9,39.6-0.2c0,0,7.5-10,7.6-24.3c0,0-1.4,0.8-2.6,1.1
			c0,0-3.1,7-8.1,4.1c-2.8-1.6-7.5-2.7-16.8-2.8c0,0-12.3-0.2-16.6,2.6C20.8,65.8,16.7,55.5,16.7,50.3z"/>
	</g>
</g>
</svg>
