<?xml version="1.0" encoding="utf-8"?>
<!-- Generator: Adobe Illustrator 21.1.0, SVG Export Plug-In . SVG Version: 6.00 Build 0)  -->
<svg version="1.1" id="Layer_1" xmlns="http://www.w3.org/2000/svg" xmlns:xlink="http://www.w3.org/1999/xlink" x="0px" y="0px"
	 viewBox="0 0 328.3 87" style="enable-background:new 0 0 328.3 87;" xml:space="preserve">
<style type="text/css">
	.st0{fill:#3D3C3E;}
</style>
<desc>Created with Sketch.</desc>
<g>
	<path id="Fill-1" class="st0" d="M145.7,62.3c-0.6,0.4-1.3,0.9-2.2,1.3c-0.9,0.5-1.8,0.9-3,1.3c-1.1,0.4-2.4,0.7-3.8,1
		c-1.4,0.3-3,0.4-4.8,0.4c-2.8,0-5.4-0.5-7.8-1.4c-2.4-0.9-4.5-2.3-6.4-4.1c-1.8-1.8-3.3-4-4.3-6.7c-1.1-2.6-1.6-5.7-1.6-9.2
		c0-3.5,0.5-6.5,1.6-9.2c1-2.7,2.5-5,4.3-6.8c1.8-1.8,4-3.2,6.5-4.2c2.5-0.9,5.2-1.4,8-1.4c2.4,0,4.5,0.2,6.2,0.6
		c1.7,0.4,3.1,1,4.1,1.6c1.1,0.6,1.8,1.4,2.3,2.2c0.5,0.8,0.7,1.6,0.7,2.4c0,1.1-0.3,2.1-1,3c-0.7,0.9-1.3,1.6-1.9,2.1
		c-0.9-0.9-2.2-1.8-3.8-2.6c-1.7-0.8-3.7-1.3-6.2-1.3c-1.7,0-3.2,0.3-4.7,0.8c-1.5,0.5-2.7,1.4-3.8,2.5c-1.1,1.1-1.9,2.5-2.5,4.1
		c-0.6,1.6-0.9,3.6-0.9,5.9c0,2.4,0.3,4.4,1,6.1c0.6,1.7,1.5,3,2.7,4.1c1.1,1.1,2.4,1.9,3.9,2.4c1.5,0.5,3.1,0.8,4.8,0.8
		c2.5,0,4.4-0.4,6-1.1c1.5-0.7,2.5-1.3,3.1-1.7L145.7,62.3z"/>
	<path id="Fill-3" class="st0" d="M154.6,28.8c0-1.5,0.4-2.6,1.2-3.3c0.8-0.7,1.9-1,3.3-1c0.9,0,1.7,0.1,2.4,0.4
		c0.7,0.2,1.2,0.4,1.5,0.5v39.8h-8.4V28.8z M158.8,6.3c1.4,0,2.6,0.5,3.6,1.6c1,1.1,1.5,2.4,1.5,4c0,1.6-0.5,2.9-1.5,4
		c-1,1.1-2.2,1.6-3.6,1.6c-1.4,0-2.6-0.5-3.6-1.6c-1-1.1-1.5-2.4-1.5-4c0-1.6,0.5-2.9,1.5-4C156.2,6.8,157.4,6.3,158.8,6.3
		L158.8,6.3z"/>
	<path id="Fill-5" class="st0" d="M172,40.6c0-2.7,0.5-5.1,1.4-7.2c0.9-2.1,2.2-3.9,3.8-5.4c1.6-1.5,3.5-2.6,5.7-3.4
		c2.2-0.8,4.6-1.2,7.2-1.2c2.6,0,5,0.4,7.2,1.2c2.2,0.8,4.1,1.9,5.7,3.4c1.6,1.5,2.8,3.3,3.7,5.4c0.9,2.1,1.3,4.5,1.3,7.2v24.5h-8.4
		V43c0-3.7-0.8-6.5-2.4-8.4c-1.6-1.9-4-2.9-7.2-2.9c-3.2,0-5.6,1-7.2,2.9c-1.6,1.9-2.4,4.7-2.4,8.4v22.2H172V40.6z"/>
	<path id="Fill-7" class="st0" d="M216.7,28.8c0-1.5,0.4-2.6,1.2-3.3c0.8-0.7,1.9-1,3.3-1c0.9,0,1.7,0.1,2.4,0.4
		c0.7,0.2,1.2,0.4,1.5,0.5v21.3c0,3.7,0.8,6.5,2.4,8.4c1.6,1.9,4,2.9,7.2,2.9c3.3,0,5.7-1,7.3-2.9c1.6-1.9,2.4-4.7,2.4-8.4V28.8
		c0-1.5,0.4-2.6,1.2-3.3c0.8-0.7,1.9-1,3.3-1c0.9,0,1.8,0.1,2.5,0.4c0.7,0.2,1.2,0.4,1.5,0.5v23.3c0,2.8-0.4,5.2-1.3,7.4
		c-0.9,2.2-2.1,4-3.7,5.5c-1.6,1.5-3.5,2.7-5.7,3.4c-2.2,0.8-4.7,1.2-7.3,1.2c-2.7,0-5.1-0.4-7.3-1.2c-2.2-0.8-4.1-1.9-5.7-3.4
		c-1.6-1.5-2.8-3.4-3.7-5.5c-0.9-2.2-1.3-4.7-1.3-7.4V28.8z"/>
	<path id="Fill-9" class="st0" d="M261.5,39c0-5,1.4-8.8,4.2-11.5c2.8-2.7,6.6-4.1,11.6-4.1c3.1,0,5.6,0.5,7.6,1.4
		c1.9,0.9,2.9,2.4,2.9,4.3c0,0.9-0.2,1.8-0.7,2.7c-0.5,0.9-0.8,1.4-1.1,1.6c-0.8-0.4-1.9-0.8-3.1-1.2c-1.2-0.4-2.6-0.6-4.2-0.6
		c-5.8,0-8.7,3.3-8.7,10v23.5h-8.4V39z"/>
	<path id="Fill-11" class="st0" d="M292.2,28.8c0-1.5,0.4-2.6,1.2-3.3c0.8-0.7,1.9-1,3.3-1c0.9,0,1.7,0.1,2.4,0.4
		c0.7,0.2,1.2,0.4,1.5,0.5v21.3c0,3.7,0.8,6.5,2.4,8.4c1.6,1.9,4,2.9,7.2,2.9c3.3,0,5.7-1,7.3-2.9c1.6-1.9,2.4-4.7,2.4-8.4V28.8
		c0-1.5,0.4-2.6,1.2-3.3c0.8-0.7,1.9-1,3.3-1c0.9,0,1.8,0.1,2.5,0.4c0.7,0.2,1.2,0.4,1.5,0.5v23.3c0,2.8-0.4,5.2-1.3,7.4
		c-0.9,2.2-2.1,4-3.7,5.5c-1.6,1.5-3.5,2.7-5.7,3.4c-2.2,0.8-4.7,1.2-7.3,1.2c-2.7,0-5.1-0.4-7.3-1.2c-2.2-0.8-4.1-1.9-5.7-3.4
		c-1.6-1.5-2.8-3.4-3.7-5.5c-0.9-2.2-1.3-4.7-1.3-7.4V28.8z"/>
</g>
<path id="Fill-13" class="st0" d="M63.6,5.4c-0.1-0.1-0.2-0.3-0.3-0.4c0-0.1-0.1-0.1-0.1-0.2C57.1,1.7,50.2,0,43.3,0
	c-2.9,0-5.8,0.3-8.6,0.9c0.2,0.1,0.5,0.1,0.7,0.2c0.1,0,0.1,0,0.2,0.1c0.2,0.1,0.4,0.1,0.6,0.2c0.1,0,0.1,0,0.2,0
	c0.3,0.1,0.5,0.2,0.8,0.2c0.1,0,0.1,0,0.2,0.1c0.2,0.1,0.4,0.1,0.6,0.2c0.1,0,0.1,0,0.2,0.1c0.2,0.1,0.5,0.2,0.7,0.3
	c0.1,0,0.1,0,0.2,0.1c0.2,0.1,0.4,0.2,0.6,0.2c0.1,0,0.1,0,0.2,0.1c0.2,0.1,0.5,0.2,0.7,0.3c0,0,0.1,0,0.1,0.1
	c0.2,0.1,0.4,0.2,0.6,0.3l0.2,0.1c0.2,0.1,0.5,0.2,0.7,0.3c0,0,0,0,0.1,0c0.2,0.1,0.4,0.2,0.7,0.3L43.1,4c0.2,0.1,0.5,0.2,0.7,0.4
	c0.3,0.1,0.5,0.3,0.8,0.4c0.1,0,0.2,0.1,0.2,0.1C45,5,45.2,5.1,45.3,5.2c0.1,0.1,0.2,0.1,0.3,0.2c0.2,0.1,0.3,0.2,0.5,0.3
	c0.1,0.1,0.2,0.1,0.3,0.2C46.5,6,46.7,6,46.8,6.1c0.1,0.1,0.2,0.1,0.3,0.2c0.1,0.1,0.3,0.2,0.4,0.3c0.1,0.1,0.2,0.1,0.3,0.2
	C48,6.9,48.1,7,48.3,7.1c0.1,0.1,0.2,0.2,0.3,0.2c0.1,0.1,0.3,0.2,0.4,0.3c0.1,0.1,0.2,0.2,0.3,0.2c0.1,0.1,0.3,0.2,0.4,0.3
	c0.1,0.1,0.2,0.2,0.3,0.2c0.1,0.1,0.2,0.2,0.4,0.3c0.1,0.1,0.2,0.2,0.3,0.2C50.8,9,50.9,9.1,51,9.2c0.1,0.1,0.2,0.2,0.3,0.3
	c0.1,0.1,0.2,0.2,0.4,0.3c0.1,0.1,0.2,0.2,0.3,0.3c0.1,0.1,0.2,0.2,0.4,0.3c0.1,0.1,0.2,0.2,0.3,0.3c0.1,0.1,0.2,0.2,0.3,0.3
	c0.1,0.1,0.2,0.2,0.3,0.3c0.1,0.1,0.2,0.2,0.3,0.3c0.1,0.1,0.2,0.2,0.3,0.3c0.1,0.1,0.2,0.2,0.3,0.3c0.1,0.1,0.2,0.2,0.3,0.3
	c0.1,0.1,0.2,0.2,0.3,0.3c0.1,0.1,0.2,0.2,0.3,0.3c0.1,0.1,0.2,0.2,0.3,0.3c0.1,0.1,0.2,0.2,0.3,0.3c0.1,0.1,0.2,0.2,0.3,0.3
	c0.1,0.1,0.2,0.2,0.3,0.3c0.1,0.1,0.2,0.2,0.3,0.3c0.1,0.1,0.2,0.2,0.3,0.3c0.1,0.1,0.2,0.2,0.3,0.3c0.1,0.1,0.2,0.2,0.3,0.3
	c0.1,0.1,0.2,0.2,0.3,0.4c0.1,0.1,0.2,0.2,0.3,0.3c0.1,0.1,0.2,0.2,0.3,0.4c0.1,0.1,0.2,0.2,0.2,0.3c0.1,0.1,0.2,0.2,0.3,0.4
	c0.1,0.1,0.2,0.2,0.2,0.3c0.1,0.1,0.2,0.2,0.3,0.4c0.1,0.1,0.2,0.2,0.2,0.3c0.1,0.1,0.2,0.2,0.3,0.4c0.1,0.1,0.2,0.2,0.2,0.3
	c0.1,0.1,0.2,0.3,0.3,0.4c0.1,0.1,0.1,0.2,0.2,0.3c0.1,0.1,0.2,0.3,0.2,0.4c0.1,0.1,0.1,0.2,0.2,0.4c0.1,0.1,0.2,0.3,0.2,0.4
	c0.1,0.1,0.1,0.2,0.2,0.4c0.1,0.1,0.2,0.3,0.2,0.4c0.1,0.1,0.1,0.2,0.2,0.4c0.1,0.1,0.1,0.3,0.2,0.4c0.1,0.1,0.1,0.2,0.2,0.4
	c0.1,0.1,0.1,0.3,0.2,0.4c0.1,0.1,0.1,0.2,0.2,0.4c0,0.1,0.1,0.1,0.1,0.2l0.5,1l0.8,1.8c0.2,0.5,0.4,1.1,0.6,1.6l5,12
	c0-0.1,0-0.1,0.1-0.2c0-0.1,0.1-0.2,0.1-0.3c0-0.1,0.1-0.3,0.1-0.4c0-0.1,0.1-0.2,0.1-0.3c0-0.1,0.1-0.3,0.1-0.4
	c0-0.1,0-0.2,0.1-0.3c0-0.2,0.1-0.3,0.1-0.5c0-0.1,0-0.2,0.1-0.3c0-0.3,0.1-0.5,0.1-0.8c0-0.1,0-0.2,0-0.2c0-0.2,0.1-0.4,0.1-0.5
	c0-0.1,0-0.2,0-0.3c0-0.2,0-0.3,0.1-0.5c0-0.1,0-0.2,0-0.3c0-0.1,0-0.3,0.1-0.4c0-0.1,0-0.2,0-0.3c0-0.1,0-0.3,0-0.4
	c0-0.1,0-0.2,0-0.3c0-0.1,0-0.3,0-0.4c0-0.1,0-0.2,0-0.3c0-0.2,0-0.3,0-0.5c0-0.1,0-0.2,0-0.3c0-0.2,0-0.3,0-0.5c0-0.1,0-0.2,0-0.3
	c0-0.3,0-0.5,0-0.8c0-0.1,0-0.1,0-0.2c0-0.2,0-0.4,0-0.6c0-0.1,0-0.2,0-0.3c0-0.2,0-0.3,0-0.5c0-0.1,0-0.2,0-0.3c0-0.1,0-0.3,0-0.4
	c0-0.1,0-0.2,0-0.4c0-0.1,0-0.3,0-0.4c0-0.1,0-0.2,0-0.4c0-0.1,0-0.3,0-0.4c0-0.1,0-0.2,0-0.4c0-0.1,0-0.3,0-0.4c0-0.1,0-0.2,0-0.3
	c0-0.2,0-0.3-0.1-0.5c0-0.1,0-0.2,0-0.3c0-0.2-0.1-0.5-0.1-0.7c0-0.1,0-0.2,0-0.3c0-0.2-0.1-0.4-0.1-0.5c0-0.1,0-0.2-0.1-0.3
	c0-0.1,0-0.3-0.1-0.4c0-0.1,0-0.2-0.1-0.4c0-0.1-0.1-0.3-0.1-0.4c0-0.1-0.1-0.2-0.1-0.4c0-0.1-0.1-0.3-0.1-0.4
	c0-0.1-0.1-0.2-0.1-0.4c0-0.1-0.1-0.3-0.1-0.4c0-0.1-0.1-0.2-0.1-0.4c0-0.1-0.1-0.3-0.1-0.4c0-0.1-0.1-0.2-0.1-0.4
	c0-0.1-0.1-0.3-0.1-0.4c0-0.1-0.1-0.2-0.1-0.3c0-0.2-0.1-0.3-0.1-0.5c0-0.1-0.1-0.2-0.1-0.3c-0.2-0.8-0.5-1.5-0.8-2.3
	c0,0,0-0.1-0.1-0.1c-0.1-0.2-0.2-0.4-0.2-0.6c0-0.1-0.1-0.1-0.1-0.2c-0.1-0.2-0.2-0.4-0.2-0.6c0-0.1-0.1-0.2-0.1-0.2
	c-0.1-0.2-0.2-0.4-0.2-0.5c0-0.1-0.1-0.2-0.1-0.2c-0.1-0.2-0.2-0.3-0.2-0.5c0-0.1-0.1-0.2-0.1-0.3c-0.1-0.2-0.2-0.3-0.2-0.5
	c0-0.1-0.1-0.2-0.1-0.3c-0.1-0.2-0.2-0.3-0.3-0.5c0-0.1-0.1-0.2-0.1-0.3c-0.1-0.2-0.2-0.3-0.3-0.5c0-0.1-0.1-0.2-0.1-0.3
	c-0.1-0.2-0.2-0.3-0.3-0.5c-0.1-0.1-0.1-0.2-0.2-0.3c-0.1-0.2-0.2-0.3-0.3-0.5C65.1,7.7,65,7.6,65,7.5c-0.1-0.2-0.2-0.3-0.3-0.4
	c-0.1-0.1-0.1-0.2-0.2-0.3c-0.1-0.1-0.2-0.3-0.3-0.4c-0.1-0.1-0.1-0.2-0.2-0.3C64,6,63.9,5.8,63.8,5.7C63.7,5.6,63.7,5.5,63.6,5.4"
	/>
<path id="Fill-16" class="st0" d="M7.2,19.4c0.1,0,0.1-0.1,0.2-0.1c0.2-0.1,0.4-0.2,0.7-0.4c0.1,0,0.2-0.1,0.3-0.1
	c0.3-0.2,0.6-0.3,0.9-0.5c0,0,0.1,0,0.1,0c0.3-0.1,0.5-0.3,0.8-0.4c0.1,0,0.2-0.1,0.3-0.1c0.2-0.1,0.4-0.2,0.7-0.3
	c0.1,0,0.2-0.1,0.3-0.1c0.3-0.1,0.6-0.3,0.9-0.4c0,0,0,0,0.1,0c0.3-0.1,0.6-0.2,0.9-0.4c0.1,0,0.2-0.1,0.3-0.1
	c0.2-0.1,0.5-0.2,0.7-0.3c0.1,0,0.2-0.1,0.3-0.1c0.3-0.1,0.6-0.2,0.9-0.3c0,0,0,0,0,0v0v0l0.7-0.2l0,0c0,0,0.1,0,0.1,0
	c0.2-0.1,0.5-0.1,0.7-0.2c0.1,0,0.2-0.1,0.3-0.1c0.2,0,0.3-0.1,0.5-0.1c0.1,0,0.2-0.1,0.4-0.1c0.2,0,0.3-0.1,0.5-0.1
	c0.1,0,0.3-0.1,0.4-0.1c0.2,0,0.3-0.1,0.5-0.1c0.1,0,0.3-0.1,0.4-0.1c0.2,0,0.3-0.1,0.5-0.1c0.1,0,0.3-0.1,0.4-0.1
	c0.1,0,0.3-0.1,0.5-0.1c0.1,0,0.3,0,0.4-0.1c0.1,0,0.3-0.1,0.4-0.1c0.1,0,0.3,0,0.4-0.1c0.1,0,0.3,0,0.4-0.1c0.1,0,0.3,0,0.4-0.1
	c0.1,0,0.3,0,0.4-0.1c0.1,0,0.3,0,0.4,0c0.1,0,0.3,0,0.4,0c0.1,0,0.3,0,0.4,0c0.1,0,0.3,0,0.4,0c0.1,0,0.3,0,0.4,0
	c0.1,0,0.3,0,0.4,0c0.1,0,0.3,0,0.4,0c0.1,0,0.3,0,0.4,0c0.1,0,0.3,0,0.4,0c0.1,0,0.3,0,0.4,0c0.1,0,0.3,0,0.4,0c0.1,0,0.3,0,0.4,0
	c0.1,0,0.3,0,0.4,0c0.1,0,0.3,0,0.4,0c0.1,0,0.3,0,0.4,0c0.1,0,0.3,0,0.4,0c0.1,0,0.3,0,0.4,0c0.1,0,0.3,0,0.4,0c0.1,0,0.3,0,0.4,0
	c0.1,0,0.3,0,0.4,0c0.1,0,0.3,0,0.4,0c0.1,0,0.3,0,0.4,0c0.1,0,0.3,0,0.4,0c0.1,0,0.3,0,0.4,0c0.1,0,0.3,0,0.4,0.1
	c0.1,0,0.3,0,0.4,0.1c0.1,0,0.3,0,0.4,0.1c0.1,0,0.3,0,0.4,0.1c0.1,0,0.3,0,0.4,0.1c0.1,0,0.3,0,0.4,0.1c0.1,0,0.3,0,0.4,0.1
	c0.1,0,0.3,0.1,0.4,0.1c0.1,0,0.3,0.1,0.4,0.1c0.1,0,0.3,0.1,0.4,0.1c0.1,0,0.3,0.1,0.4,0.1c0.1,0,0.3,0.1,0.4,0.1s0.3,0.1,0.4,0.1
	c0.1,0,0.3,0.1,0.4,0.1c0.1,0,0.3,0.1,0.4,0.1c0.1,0,0.3,0.1,0.4,0.1c0.1,0,0.3,0.1,0.4,0.1c0.1,0,0.3,0.1,0.4,0.1
	c0.1,0,0.3,0.1,0.4,0.1c0.1,0,0.3,0.1,0.4,0.1c0.1,0,0.3,0.1,0.4,0.1c0.1,0,0.2,0.1,0.2,0.1l1.2,0.4c1.1,0.4,2.2,0.9,3.3,1.4l12,5
	c0-0.1-0.1-0.1-0.1-0.2c-0.1-0.1-0.1-0.2-0.2-0.3c-0.1-0.1-0.2-0.3-0.2-0.4c-0.1-0.1-0.1-0.2-0.2-0.3c-0.1-0.1-0.2-0.3-0.3-0.4
	c-0.1-0.1-0.1-0.2-0.2-0.2c-0.1-0.2-0.2-0.3-0.3-0.5c0-0.1-0.1-0.1-0.1-0.2c-0.1-0.2-0.3-0.4-0.4-0.7c0,0-0.1-0.1-0.1-0.1
	c-0.1-0.2-0.2-0.3-0.4-0.5c-0.1-0.1-0.1-0.1-0.2-0.2c-0.1-0.1-0.2-0.3-0.3-0.4c-0.1-0.1-0.1-0.2-0.2-0.2c-0.1-0.1-0.2-0.3-0.3-0.4
	c-0.1-0.1-0.1-0.2-0.2-0.2c-0.1-0.1-0.2-0.2-0.3-0.4c-0.1-0.1-0.1-0.2-0.2-0.2c-0.1-0.1-0.2-0.2-0.3-0.4C55.2,16.1,55.1,16,55,16
	c-0.1-0.1-0.2-0.3-0.3-0.4c-0.1-0.1-0.1-0.1-0.2-0.2c-0.1-0.1-0.3-0.3-0.4-0.4c0,0-0.1-0.1-0.1-0.1c-0.2-0.2-0.4-0.4-0.5-0.6
	c0,0-0.1,0-0.1-0.1c-0.2-0.2-0.3-0.3-0.5-0.5c-0.1-0.1-0.1-0.1-0.2-0.2c-0.1-0.1-0.3-0.2-0.4-0.4c-0.1-0.1-0.1-0.1-0.2-0.2
	c-0.1-0.1-0.2-0.2-0.4-0.3c-0.1-0.1-0.2-0.1-0.2-0.2c-0.1-0.1-0.2-0.2-0.4-0.3c-0.1-0.1-0.2-0.1-0.2-0.2c-0.1-0.1-0.2-0.2-0.4-0.3
	c-0.1-0.1-0.2-0.1-0.2-0.2c-0.1-0.1-0.3-0.2-0.4-0.3c-0.1-0.1-0.1-0.1-0.2-0.2c-0.1-0.1-0.3-0.2-0.4-0.3c-0.1,0-0.1-0.1-0.2-0.1
	c-0.2-0.2-0.4-0.3-0.6-0.5c0,0,0,0-0.1,0c-0.2-0.1-0.4-0.3-0.6-0.4c-0.1-0.1-0.1-0.1-0.2-0.1c-0.1-0.1-0.3-0.2-0.4-0.3
	c-0.1-0.1-0.2-0.1-0.3-0.2c-0.1-0.1-0.3-0.2-0.4-0.3c-0.1-0.1-0.2-0.1-0.3-0.2C46.1,8.2,46,8.1,45.9,8c-0.1-0.1-0.2-0.1-0.3-0.2
	c-0.1-0.1-0.3-0.2-0.4-0.2c-0.1-0.1-0.2-0.1-0.3-0.2c-0.1-0.1-0.3-0.2-0.4-0.2c-0.1-0.1-0.2-0.1-0.3-0.2c-0.2-0.1-0.3-0.2-0.5-0.3
	c-0.1,0-0.2-0.1-0.2-0.1c-0.2-0.1-0.5-0.3-0.7-0.4c-0.3-0.1-0.5-0.3-0.8-0.4c-0.1,0-0.2-0.1-0.2-0.1c-0.2-0.1-0.3-0.2-0.5-0.2
	c-0.1,0-0.2-0.1-0.3-0.1c-0.2-0.1-0.3-0.1-0.5-0.2c-0.1,0-0.2-0.1-0.3-0.1c-0.2-0.1-0.3-0.1-0.5-0.2c-0.1,0-0.2-0.1-0.3-0.1
	c-0.1-0.1-0.3-0.1-0.4-0.2c-0.1,0-0.2-0.1-0.3-0.1c-0.1-0.1-0.3-0.1-0.4-0.2c-0.1,0-0.2-0.1-0.4-0.1C37.7,4,37.5,4,37.4,3.9
	c-0.1,0-0.2-0.1-0.4-0.1c-0.1-0.1-0.3-0.1-0.4-0.2c-0.1,0-0.2-0.1-0.4-0.1c-0.1,0-0.3-0.1-0.4-0.1c-0.1,0-0.2-0.1-0.4-0.1
	c-0.1,0-0.3-0.1-0.4-0.1c-0.1,0-0.3-0.1-0.4-0.1c-0.1,0-0.3-0.1-0.4-0.1c-0.1,0-0.3-0.1-0.4-0.1c-0.1,0-0.3-0.1-0.4-0.1
	c-0.1,0-0.3-0.1-0.4-0.1c-0.1,0-0.3-0.1-0.4-0.1c-0.1,0-0.3-0.1-0.4-0.1c-0.1,0-0.3-0.1-0.4-0.1c-0.1,0-0.3-0.1-0.4-0.1
	c-0.1,0-0.3-0.1-0.4-0.1c-0.1,0-0.3,0-0.4-0.1c-0.1,0-0.2,0-0.3-0.1c-6.5,2.1-12.5,5.8-17.4,10.6C10.6,14.7,8.8,17,7.2,19.4"/>
<path id="Fill-18" class="st0" d="M84.3,31.6c0-0.2,0.1-0.4,0.1-0.5c0-0.1,0-0.2,0-0.3c0-0.2,0.1-0.4,0.1-0.6l0-0.1
	c-2.1-6.5-5.8-12.5-10.6-17.4c-2.1-2.1-4.3-3.9-6.7-5.5c0.1,0.2,0.3,0.4,0.4,0.7c0,0,0,0.1,0.1,0.1c0.1,0.2,0.2,0.5,0.4,0.7l0,0.1
	c0.1,0.2,0.3,0.5,0.4,0.7l0,0.1c0.1,0.2,0.2,0.5,0.3,0.7c0,0,0,0.1,0,0.1c0.1,0.3,0.2,0.5,0.4,0.8c0,0,0,0,0,0.1
	c0.1,0.2,0.2,0.5,0.3,0.7c0,0,0,0.1,0.1,0.1c0.1,0.3,0.2,0.5,0.3,0.8c0,0,0,0,0,0c0.1,0.2,0.2,0.5,0.3,0.7c0,0,0,0.1,0.1,0.1
	c0.2,0.5,0.4,1,0.6,1.6c0,0,0,0.1,0,0.1c0.1,0.3,0.2,0.5,0.3,0.8c0.3,1.1,0.6,2.2,0.9,3.4c0,0,0,0,0,0.1c0.1,0.3,0.1,0.5,0.2,0.8
	c0,0,0,0.1,0,0.1c0,0.2,0.1,0.5,0.1,0.7c0,0.1,0,0.1,0,0.2c0,0.2,0.1,0.4,0.1,0.7c0,0.1,0,0.2,0,0.2c0,0.2,0.1,0.4,0.1,0.6
	c0,0.1,0,0.2,0,0.3c0,0.2,0.1,0.4,0.1,0.6c0,0.1,0,0.2,0,0.3c0,0.2,0,0.4,0.1,0.6c0,0.1,0,0.2,0,0.3c0,0.2,0,0.4,0.1,0.6
	c0,0.1,0,0.2,0,0.3c0,0.2,0,0.4,0,0.5c0,0.1,0,0.2,0,0.3c0,0.2,0,0.3,0,0.5c0,0.1,0,0.2,0,0.4c0,0.2,0,0.3,0,0.5c0,0.1,0,0.2,0,0.4
	c0,0.2,0,0.3,0,0.5c0,0.1,0,0.2,0,0.4c0,0.2,0,0.3,0,0.5c0,0.1,0,0.3,0,0.4c0,0.2,0,0.3,0,0.5c0,0.1,0,0.3,0,0.4c0,0.2,0,0.3,0,0.5
	c0,0.1,0,0.3,0,0.4c0,0.2,0,0.3,0,0.5c0,0.1,0,0.3,0,0.4c0,0.2,0,0.3,0,0.5c0,0.1,0,0.3,0,0.4c0,0.2,0,0.3,0,0.5c0,0.1,0,0.3,0,0.4
	c0,0.2,0,0.3-0.1,0.5c0,0.1,0,0.3-0.1,0.4c0,0.2,0,0.3-0.1,0.5c0,0.1,0,0.3-0.1,0.4c0,0.2,0,0.3-0.1,0.5c0,0.1,0,0.3-0.1,0.4
	c0,0.2-0.1,0.3-0.1,0.5c0,0.1-0.1,0.3-0.1,0.4c0,0.2-0.1,0.3-0.1,0.5c0,0.1-0.1,0.3-0.1,0.4c0,0.2-0.1,0.3-0.1,0.5
	c0,0.1-0.1,0.3-0.1,0.4c0,0.2-0.1,0.3-0.1,0.5c0,0.1-0.1,0.3-0.1,0.4c0,0.2-1,3.4-1,3.4c-0.8,2.4-2.7,8.3-8.5,12
	c1.7,0.5,3.1,0.7,4.4,0.5c3.6-0.6,6.7-4,7.9-5.3c2.3-2.5,4.2-5.3,5.8-8.4l0.1-0.2c0.1-0.2,0.2-0.4,0.3-0.6l0-0.1
	c0.1-0.2,0.2-0.4,0.3-0.6c0,0,0-0.1,0.1-0.1c0.1-0.2,0.2-0.4,0.3-0.6c0-0.1,0.1-0.1,0.1-0.2c0.1-0.2,0.2-0.4,0.2-0.6
	c0-0.1,0.1-0.1,0.1-0.2c0.1-0.2,0.1-0.4,0.2-0.5c0-0.1,0.1-0.2,0.1-0.3c0.1-0.2,0.1-0.3,0.2-0.5c0-0.1,0.1-0.2,0.1-0.3
	c0.1-0.2,0.1-0.3,0.2-0.5c0-0.1,0.1-0.2,0.1-0.3c0.1-0.1,0.1-0.3,0.1-0.4c0-0.1,0.1-0.2,0.1-0.4c0-0.1,0.1-0.3,0.1-0.4
	c0-0.1,0.1-0.3,0.1-0.4c0-0.1,0.1-0.3,0.1-0.4c0-0.1,0.1-0.3,0.1-0.4c0-0.1,0.1-0.3,0.1-0.4c0-0.1,0.1-0.3,0.1-0.4
	c0-0.1,0.1-0.3,0.1-0.4c0-0.1,0.1-0.3,0.1-0.4c0-0.1,0.1-0.3,0.1-0.4c0-0.1,0.1-0.2,0.1-0.4c0-0.2,0.1-0.3,0.1-0.5
	C84.3,31.9,84.3,31.8,84.3,31.6"/>
<path id="Fill-20" class="st0" d="M23,81.2c0.1,0.2,0.2,0.3,0.4,0.5c0,0,0.1,0.1,0.1,0.1c6.1,3.1,12.9,4.8,19.8,4.8
	c6.9,0,13.8-1.7,20-4.9c2-2.8,3.6-5.8,4.9-9c0.4-0.9,0.7-1.9,1-2.9c0,0,0,0,0,0c0,0,0,0,0,0c0.6-2,1.1-4,1.4-6
	c0.3-2.1,0.5-4.2,0.5-6.3v-0.1c0-0.1,0-0.2,0-0.3c-0.3,0.2-0.6,0.3-0.9,0.4c-0.5,0.2-1.1,0.5-1.6,0.6c0,0,0,0-0.1,0
	c0,0.1-0.1,0.2-0.1,0.3c-0.3,0.6-0.6,1.1-0.9,1.6c-0.5,0.8-1.2,1.4-1.8,1.9c-0.5,0.3-2.2,1.4-3.7,1c-0.7-0.2-1.3-0.5-1.8-0.8
	c-0.3-0.1-0.5-0.3-0.7-0.4c-0.7-0.3-1.4-0.6-2.3-0.8c-1.6-0.5-3.2-0.7-4.9-1c-2.6-0.4-5.4-0.5-8.8-0.5c-1.6,0-3,0-4.4,0.1
	c-1.5,0.1-3,0.2-4.4,0.4c-1.7,0.2-3.3,0.5-4.9,1c-0.8,0.2-1.6,0.5-2.2,0.8c-0.2,0.1-0.5,0.2-0.7,0.4c-0.5,0.3-1.1,0.6-1.8,0.8
	c-1.6,0.4-3.2-0.7-3.7-1c-1.1-0.8-2-1.9-2.8-3.5c-1.3-2.7-1.9-5.7-2.2-8.2c0,0.1,0,0.3-0.1,0.4c0,0.2-0.1,0.3-0.1,0.5
	c0,0.1,0,0.3-0.1,0.4c0,0.1,0,0.2,0,0.4c0,0.1,0,0.2,0,0.4c0,0.1,0,0.2,0,0.4c0,0.2,0,0.4-0.1,0.6c0,0.1,0,0.3,0,0.4
	c0,0.1,0,0.3,0,0.4c0,0.1,0,0.2,0,0.4c0,0.1,0,0.3,0,0.4c0,0.1,0,0.2,0,0.3c0,0.2,0,0.4,0,0.7c0,0.1,0,0.2,0,0.3c0,0.2,0,0.3,0,0.5
	c0,0.1,0,0.2,0,0.3c0,0.2,0,0.3,0,0.5c0,0.1,0,0.2,0,0.3c0,0.2,0,0.5,0,0.7c0,0.1,0,0.2,0,0.2c0,0.2,0,0.3,0,0.5c0,0.1,0,0.2,0,0.3
	c0,0.2,0,0.4,0,0.6c0,0.1,0,0.1,0,0.2c0,0.2,0,0.5,0.1,0.7c0,0.1,0,0.1,0,0.2c0,0.2,0,0.4,0.1,0.6c0,0.1,0,0.1,0,0.2
	c0,0.2,0.1,0.5,0.1,0.7c0,0,0,0,0,0c0,0.3,0.1,0.5,0.1,0.8c0,0,0,0.1,0,0.1c0,0.2,0.1,0.5,0.1,0.7c0,0,0,0.1,0,0.1
	c0.1,0.5,0.2,1,0.3,1.6c0,0,0,0,0,0.1c0.1,0.2,0.1,0.5,0.2,0.7c0,0,0,0,0,0.1c0.1,0.5,0.3,1.1,0.4,1.6c0,0,0,0,0,0
	c0.1,0.3,0.1,0.5,0.2,0.8c0,0,0,0,0,0c0.1,0.3,0.2,0.5,0.2,0.8c0.3,0.8,0.5,1.6,0.8,2.4c0,0,0,0.1,0,0.1c0.1,0.2,0.2,0.4,0.3,0.7
	c0,0.1,0.1,0.2,0.1,0.3c0.1,0.2,0.1,0.3,0.2,0.5c0.1,0.1,0.1,0.3,0.2,0.4c0.1,0.1,0.1,0.2,0.2,0.4c0.1,0.2,0.1,0.3,0.2,0.4
	c0,0.1,0.1,0.2,0.1,0.3c0.1,0.2,0.2,0.3,0.2,0.5c0,0.1,0.1,0.2,0.1,0.3c0.1,0.2,0.2,0.3,0.3,0.5c0,0.1,0.1,0.2,0.1,0.3
	c0.1,0.2,0.2,0.3,0.3,0.5c0,0.1,0.1,0.2,0.1,0.2c0.1,0.2,0.2,0.3,0.3,0.5c0,0.1,0.1,0.2,0.1,0.2c0.1,0.2,0.2,0.3,0.3,0.5
	c0,0.1,0.1,0.2,0.1,0.2c0.1,0.2,0.2,0.3,0.3,0.5c0,0.1,0.1,0.1,0.1,0.2c0.1,0.2,0.2,0.3,0.3,0.5c0,0.1,0.1,0.1,0.1,0.2
	c0.1,0.2,0.2,0.3,0.3,0.5C22.9,81.1,23,81.1,23,81.2"/>
<path id="Fill-23" class="st0" d="M6.8,22.1c-0.1,0.1-0.2,0.2-0.4,0.2c-0.1,0.1-0.2,0.2-0.4,0.2c-0.1,0.1-0.2,0.2-0.3,0.2
	c-0.1,0.1-0.2,0.2-0.4,0.2c-0.1,0.1-0.2,0.2-0.3,0.2c-0.1,0.1-0.2,0.1-0.3,0.2C1.7,29.6,0,36.4,0,43.3c0,2.9,0.3,5.8,0.9,8.6
	c0.1-0.2,0.1-0.5,0.2-0.7c0-0.1,0-0.1,0.1-0.2c0.1-0.2,0.1-0.4,0.2-0.6c0-0.1,0-0.1,0-0.2c0.1-0.2,0.2-0.5,0.2-0.7
	c0-0.1,0-0.1,0.1-0.2c0.1-0.2,0.1-0.4,0.2-0.6c0-0.1,0-0.1,0.1-0.2c0.1-0.2,0.2-0.5,0.3-0.7c0,0,0-0.1,0.1-0.1
	c0.1-0.2,0.2-0.4,0.2-0.6l0.1-0.2c0.1-0.2,0.2-0.5,0.3-0.7c0,0,0-0.1,0.1-0.1c0.1-0.2,0.2-0.4,0.3-0.6c0-0.1,0.1-0.1,0.1-0.2
	c0.1-0.2,0.2-0.5,0.3-0.7c0,0,0-0.1,0-0.1c0.1-0.2,0.2-0.4,0.3-0.7C4,43.7,4,43.6,4,43.5c0.1-0.2,0.2-0.5,0.4-0.7
	c0.1-0.3,0.3-0.5,0.4-0.8c0-0.1,0.1-0.2,0.1-0.3c0.1-0.2,0.2-0.3,0.3-0.5c0.1-0.1,0.1-0.2,0.2-0.3c0.1-0.1,0.2-0.3,0.3-0.4
	c0.1-0.1,0.1-0.2,0.2-0.3C6,40.1,6,40,6.1,39.8c0.1-0.1,0.1-0.2,0.2-0.3c0.1-0.1,0.2-0.3,0.3-0.4c0.1-0.1,0.1-0.2,0.2-0.3
	c0.1-0.1,0.2-0.3,0.3-0.4c0.1-0.1,0.1-0.2,0.2-0.3c0.1-0.1,0.2-0.3,0.3-0.4c0.1-0.1,0.2-0.2,0.2-0.3C7.9,37.2,8,37.1,8.1,37
	c0.1-0.1,0.2-0.2,0.2-0.3c0.1-0.1,0.2-0.3,0.3-0.4c0.1-0.1,0.2-0.2,0.2-0.3c0.1-0.1,0.2-0.2,0.3-0.4c0.1-0.1,0.2-0.2,0.3-0.3
	c0.1-0.1,0.2-0.2,0.3-0.4c0.1-0.1,0.2-0.2,0.3-0.3c0.1-0.1,0.2-0.2,0.3-0.4c0.1-0.1,0.2-0.2,0.3-0.3c0.1-0.1,0.2-0.2,0.3-0.4
	c0.1-0.1,0.2-0.2,0.3-0.3c0.1-0.1,0.2-0.2,0.3-0.3c0.1-0.1,0.2-0.2,0.3-0.3c0.1-0.1,0.2-0.2,0.3-0.3c0.1-0.1,0.2-0.2,0.3-0.3
	c0.1-0.1,0.2-0.2,0.3-0.3c0.1-0.1,0.2-0.2,0.3-0.3c0.1-0.1,0.2-0.2,0.3-0.3c0.1-0.1,0.2-0.2,0.3-0.3c0.1-0.1,0.2-0.2,0.3-0.3
	c0.1-0.1,0.2-0.2,0.3-0.3c0.1-0.1,0.2-0.2,0.3-0.3c0.1-0.1,0.2-0.2,0.3-0.3c0.1-0.1,0.2-0.2,0.4-0.3c0.1-0.1,0.2-0.2,0.3-0.3
	c0.1-0.1,0.2-0.2,0.4-0.3c0.1-0.1,0.2-0.2,0.3-0.2c0.1-0.1,0.2-0.2,0.4-0.3c0.1-0.1,0.2-0.2,0.3-0.2c0.1-0.1,0.2-0.2,0.4-0.3
	c0.1-0.1,0.2-0.2,0.3-0.2c0.1-0.1,0.2-0.2,0.4-0.3c0.1-0.1,0.2-0.2,0.3-0.2c0.1-0.1,0.2-0.2,0.4-0.3c0.1-0.1,0.2-0.2,0.3-0.2
	c0.1-0.1,0.3-0.2,0.4-0.2c0.1-0.1,0.2-0.2,0.3-0.2c0.1-0.1,0.3-0.2,0.4-0.2c0.1-0.1,0.2-0.1,0.4-0.2c0.1-0.1,0.3-0.2,0.4-0.2
	c0.1-0.1,0.2-0.1,0.4-0.2c0.1-0.1,0.3-0.2,0.4-0.2c0.1-0.1,0.2-0.1,0.4-0.2c0.1-0.1,0.3-0.1,0.4-0.2c0.1-0.1,0.2-0.1,0.4-0.2
	c0.1-0.1,0.3-0.1,0.4-0.2c0.1-0.1,0.3-0.1,0.4-0.2c0.1,0,0.1-0.1,0.2-0.1l1-0.5l1.8-0.8c0.5-0.2,1.1-0.4,1.6-0.6c0,0,0,0,0.1,0l12-5
	c-0.1,0-0.1,0-0.2-0.1c-0.1,0-0.2-0.1-0.3-0.1c-0.1,0-0.3-0.1-0.4-0.1c-0.1,0-0.2-0.1-0.3-0.1c-0.2,0-0.3-0.1-0.5-0.1
	c-0.1,0-0.2,0-0.3-0.1c-0.2,0-0.3-0.1-0.5-0.1c-0.1,0-0.2,0-0.3-0.1c-0.3,0-0.5-0.1-0.8-0.1c0,0-0.1,0-0.1,0c-0.2,0-0.4-0.1-0.6-0.1
	c-0.1,0-0.2,0-0.3,0c-0.2,0-0.3,0-0.5-0.1c-0.1,0-0.2,0-0.3,0c-0.1,0-0.3,0-0.4-0.1c-0.1,0-0.2,0-0.3,0c-0.1,0-0.3,0-0.4,0
	c-0.1,0-0.2,0-0.3,0c-0.1,0-0.3,0-0.4,0c-0.1,0-0.2,0-0.3,0c-0.1,0-0.3,0-0.4,0c-0.1,0-0.2,0-0.3,0c-0.2,0-0.3,0-0.5,0
	c-0.1,0-0.2,0-0.3,0c-0.2,0-0.5,0-0.7,0c-0.1,0-0.1,0-0.2,0c-0.2,0-0.4,0-0.6,0c-0.1,0-0.2,0-0.3,0c-0.2,0-0.3,0-0.5,0
	c-0.1,0-0.2,0-0.3,0c-0.1,0-0.3,0-0.4,0c-0.1,0-0.2,0-0.3,0c-0.1,0-0.3,0-0.4,0c-0.1,0-0.2,0-0.3,0c-0.1,0-0.3,0-0.4,0
	c-0.1,0-0.2,0-0.3,0c-0.2,0-0.3,0-0.5,0c-0.1,0-0.2,0-0.3,0c-0.2,0-0.3,0-0.5,0.1c-0.1,0-0.2,0-0.3,0c-0.2,0-0.5,0.1-0.8,0.1
	c0,0-0.1,0-0.1,0c-0.2,0-0.5,0.1-0.7,0.1c-0.1,0-0.2,0-0.3,0c-0.2,0-0.3,0.1-0.5,0.1c-0.1,0-0.2,0-0.3,0.1c-0.2,0-0.3,0.1-0.5,0.1
	c-0.1,0-0.2,0-0.3,0.1c-0.2,0-0.3,0.1-0.4,0.1c-0.1,0-0.2,0-0.3,0.1c-0.1,0-0.3,0.1-0.5,0.1c-0.1,0-0.2,0-0.3,0.1
	c-0.2,0-0.3,0.1-0.5,0.1c-0.1,0-0.2,0-0.3,0.1c-0.2,0-0.3,0.1-0.5,0.1c-0.1,0-0.2,0-0.2,0.1c-0.2,0.1-0.5,0.1-0.7,0.2l-0.3,0.1
	c-0.3,0.1-0.5,0.2-0.8,0.3c-0.1,0-0.2,0.1-0.3,0.1c-0.2,0.1-0.3,0.1-0.5,0.2c-0.1,0-0.2,0.1-0.3,0.1c-0.2,0.1-0.3,0.1-0.5,0.2
	c-0.1,0-0.2,0.1-0.4,0.1c-0.1,0.1-0.3,0.1-0.4,0.2c-0.1,0-0.2,0.1-0.4,0.1c-0.1,0.1-0.3,0.1-0.4,0.2c-0.1,0.1-0.2,0.1-0.4,0.2
	c-0.1,0.1-0.3,0.1-0.4,0.2c-0.1,0.1-0.2,0.1-0.4,0.2c-0.1,0.1-0.3,0.1-0.4,0.2c-0.1,0.1-0.2,0.1-0.4,0.2c-0.1,0.1-0.3,0.1-0.4,0.2
	c-0.1,0.1-0.2,0.1-0.4,0.2c-0.1,0.1-0.3,0.1-0.4,0.2c-0.1,0.1-0.2,0.1-0.4,0.2c-0.1,0.1-0.3,0.1-0.4,0.2c-0.1,0.1-0.2,0.1-0.4,0.2
	c-0.1,0.1-0.3,0.1-0.4,0.2c-0.1,0.1-0.2,0.1-0.4,0.2c-0.1,0.1-0.2,0.1-0.4,0.2c-0.1,0.1-0.2,0.1-0.4,0.2C7.1,22,6.9,22,6.8,22.1"/>
<path id="Fill-26" class="st0" d="M81.7,63.4c3.2-6.1,4.9-13.1,4.9-20.1c0-2.9-0.3-5.8-0.9-8.6c-0.1,0.2-0.1,0.5-0.2,0.7
	c0,0.1,0,0.1-0.1,0.2c-0.1,0.2-0.1,0.4-0.2,0.6c0,0,0,0.1,0,0.2c-0.1,0.3-0.2,0.5-0.2,0.8c0,0,0,0.1,0,0.1c-0.1,0.2-0.2,0.5-0.2,0.7
	c0,0,0,0.1,0,0.1c-0.1,0.3-0.2,0.5-0.3,0.8l0,0c-0.1,0.3-0.2,0.5-0.3,0.8c0,0,0,0,0,0.1c-0.6,1.4-1.2,2.7-1.9,4.1l-0.3,0.6h0
	c0,0,0,0,0,0c-0.2,0.3-0.4,0.7-0.6,1c0,0,0,0.1-0.1,0.1c-0.2,0.3-0.4,0.7-0.6,1c0,0,0,0.1-0.1,0.1c-0.2,0.3-0.4,0.6-0.6,0.9
	c0,0-0.1,0.1-0.1,0.1c-0.2,0.3-0.4,0.6-0.6,0.9c0,0-0.1,0.1-0.1,0.1c-0.2,0.3-0.4,0.6-0.7,0.9c0,0,0,0.1-0.1,0.1
	c-0.2,0.3-0.5,0.6-0.7,0.9l0,0c-0.5,0.6-1,1.3-1.6,1.9c-0.3,0.4-0.7,0.7-1,1.1l-0.4,0.4c-0.1,0.1-0.3,0.3-0.4,0.4
	c-0.1,0.1-0.1,0.1-0.2,0.2c-0.1,0.1-0.1,0.1-0.2,0.2c-0.2,0.2-0.5,0.5-0.8,0.8c0,0.6,0,1.2,0,1.7v0v0v0.1c0,2.2-0.2,4.4-0.5,6.6
	c-0.3,2.2-0.8,4.3-1.4,6.3c0,0,0,0,0,0v0c0,0,0,0,0,0c0,0,0,0,0,0l0,0c0,0,0,0,0,0.1c0,0,0,0.1,0,0.1c0,0.1-0.1,0.2-0.1,0.4
	c-0.1,0.2-0.1,0.3-0.2,0.5c-0.1,0.2-0.1,0.4-0.2,0.6c0,0.1-0.1,0.3-0.1,0.4c-0.1,0.2-0.1,0.3-0.2,0.5c-0.8,2.2-1.8,4.3-3,6.3
	c2.3-1.6,4.5-3.4,6.5-5.4C77.1,70.8,79.7,67.3,81.7,63.4"/>
<path id="Fill-28" class="st0" d="M19.4,79.4c-0.1-0.2-0.3-0.4-0.4-0.7c0,0,0-0.1,0-0.1c-0.1-0.2-0.3-0.5-0.4-0.7c0,0,0,0,0-0.1
	c-0.1-0.2-0.3-0.5-0.4-0.8c0,0,0-0.1,0-0.1c-0.1-0.2-0.2-0.5-0.3-0.7c0,0,0-0.1-0.1-0.1c-0.1-0.2-0.2-0.5-0.3-0.7c0,0,0-0.1,0-0.1
	c-0.1-0.2-0.2-0.4-0.3-0.6c0-0.1,0-0.1-0.1-0.2c-0.1-0.2-0.2-0.5-0.3-0.7c0,0,0-0.1-0.1-0.1c-0.1-0.2-0.2-0.4-0.2-0.6
	c0-0.1-0.1-0.2-0.1-0.2c-0.1-0.2-0.2-0.4-0.2-0.7c0-0.1-0.1-0.2-0.1-0.3c-0.1-0.2-0.1-0.3-0.2-0.5c0-0.1-0.1-0.2-0.1-0.3
	c0-0.1-0.1-0.3-0.1-0.4c0-0.1-0.1-0.2-0.1-0.3c-0.5-1.6-0.9-3.3-1.2-4.9c0,0,0-0.1,0-0.1c0-0.2-0.1-0.4-0.1-0.7c0-0.1,0-0.1,0-0.2
	c0-0.2-0.1-0.4-0.1-0.6c0-0.1,0-0.2,0-0.3c0-0.2,0-0.3-0.1-0.5c0-0.1,0-0.2,0-0.3c0-0.2,0-0.3-0.1-0.5c0-0.1,0-0.3,0-0.4
	c0-0.1,0-0.3,0-0.4c0-0.1,0-0.3,0-0.4c0-0.1,0-0.3,0-0.4c0-0.2,0-0.3,0-0.5c0-0.1,0-0.2,0-0.4c0-0.2,0-0.3,0-0.5c0-0.1,0-0.2,0-0.3
	c0-0.2,0-0.4,0-0.5c0-0.1,0-0.2,0-0.3c0-0.2,0-0.4,0-0.6c0-0.1,0-0.2,0-0.3c0-0.2,0-0.4,0-0.6c0-0.1,0-0.2,0-0.3c0-0.2,0-0.4,0-0.6
	c0-0.1,0-0.2,0-0.3c0-0.2,0-0.4,0-0.6c0-0.1,0-0.2,0-0.2c0-0.2,0-0.4,0-0.6c0-0.1,0-0.2,0-0.2c0-0.2,0-0.4,0.1-0.6
	c0-0.1,0-0.2,0-0.2c0-0.2,0-0.4,0.1-0.6c0-0.1,0-0.2,0-0.2c0-0.2,0.1-0.4,0.1-0.6c0-0.1,0-0.2,0-0.2c0-0.2,0.1-0.4,0.1-0.6
	c0-0.1,0-0.2,0-0.2c0-0.2,0.1-0.4,0.1-0.6c0-0.1,0-0.2,0-0.2c0-0.2,0.1-0.4,0.1-0.6c0-0.1,0-0.2,0.1-0.3c0-0.2,0.1-0.4,0.1-0.6
	c0-0.1,0-0.2,0.1-0.3c0-0.2,0.1-0.4,0.1-0.6c0-0.1,0-0.2,0.1-0.3c0-0.2,0.1-0.4,0.1-0.5c0-0.1,0.1-0.2,0.1-0.3
	c0-0.2,0.1-0.3,0.1-0.5c0-0.1,0.1-0.2,0.1-0.3c0-0.2,0.1-0.3,0.1-0.5c0-0.1,0.1-0.2,0.1-0.4c0-0.2,0.1-0.3,0.1-0.5
	c0-0.1,0.1-0.3,0.1-0.4c0-0.1,0.1-0.2,0.1-0.2l0.4-1.2c0,0,0,0,0,0c0.4-1.1,0.8-2.2,1.3-3.2c0,0,0,0,0,0l5-12
	c-0.1,0-0.1,0.1-0.2,0.1c-0.1,0.1-0.2,0.1-0.3,0.2c-0.1,0.1-0.3,0.2-0.4,0.2c-0.1,0.1-0.2,0.1-0.3,0.2c-0.1,0.1-0.3,0.2-0.4,0.3
	c-0.1,0.1-0.2,0.1-0.3,0.2c-0.2,0.1-0.3,0.2-0.5,0.3c-0.1,0-0.1,0.1-0.2,0.1c-0.2,0.1-0.4,0.3-0.6,0.4c-0.1,0-0.1,0.1-0.2,0.1
	c-0.2,0.1-0.3,0.2-0.5,0.3c-0.1,0.1-0.2,0.1-0.2,0.2c-0.1,0.1-0.3,0.2-0.4,0.3C18,30,17.9,30,17.8,30.1c-0.1,0.1-0.2,0.2-0.4,0.3
	c-0.1,0.1-0.2,0.1-0.3,0.2c-0.1,0.1-0.2,0.2-0.3,0.3c-0.1,0.1-0.2,0.1-0.3,0.2c-0.1,0.1-0.2,0.2-0.3,0.3c-0.1,0.1-0.2,0.1-0.3,0.2
	c-0.1,0.1-0.2,0.2-0.4,0.3c-0.1,0.1-0.2,0.1-0.2,0.2c-0.1,0.1-0.3,0.2-0.4,0.4c-0.1,0.1-0.1,0.1-0.2,0.2c-0.2,0.2-0.4,0.4-0.6,0.5
	c0,0-0.1,0.1-0.1,0.1c-0.1,0.1-0.3,0.3-0.4,0.4c-0.1,0.1-0.1,0.1-0.2,0.2c-0.1,0.1-0.2,0.2-0.3,0.3c-0.1,0.1-0.2,0.2-0.2,0.2
	c-0.1,0.1-0.2,0.2-0.3,0.3c-0.1,0.1-0.2,0.2-0.2,0.3c-0.1,0.1-0.2,0.2-0.3,0.3c-0.1,0.1-0.2,0.2-0.2,0.3c-0.1,0.1-0.2,0.2-0.3,0.3
	c-0.1,0.1-0.1,0.2-0.2,0.3c-0.1,0.1-0.2,0.2-0.3,0.4c-0.1,0.1-0.1,0.2-0.2,0.2c-0.1,0.1-0.2,0.3-0.3,0.4c-0.1,0.1-0.1,0.1-0.2,0.2
	c-0.2,0.2-0.3,0.4-0.5,0.6c0,0,0,0.1-0.1,0.1c-0.1,0.2-0.3,0.4-0.4,0.5c-0.1,0.1-0.1,0.2-0.2,0.2c-0.1,0.1-0.2,0.3-0.3,0.4
	c-0.1,0.1-0.1,0.2-0.2,0.3c-0.1,0.1-0.2,0.3-0.3,0.4c-0.1,0.1-0.1,0.2-0.2,0.3c-0.1,0.1-0.2,0.3-0.2,0.4C8,40.9,7.9,41,7.9,41.1
	c-0.1,0.1-0.2,0.3-0.2,0.4c-0.1,0.1-0.1,0.2-0.2,0.3c-0.1,0.1-0.2,0.3-0.2,0.4c-0.1,0.1-0.1,0.2-0.2,0.3c-0.1,0.2-0.2,0.3-0.3,0.5
	c0,0.1-0.1,0.2-0.1,0.2c-0.1,0.2-0.3,0.5-0.4,0.7c-0.1,0.3-0.3,0.5-0.4,0.8c0,0.1-0.1,0.2-0.1,0.3c-0.1,0.2-0.2,0.3-0.2,0.5
	c0,0.1-0.1,0.2-0.1,0.3c-0.1,0.2-0.1,0.3-0.2,0.5c-0.1,0.1-0.1,0.2-0.1,0.3c-0.1,0.1-0.1,0.3-0.2,0.4c0,0.1-0.1,0.2-0.1,0.3
	c-0.1,0.1-0.1,0.3-0.2,0.4c0,0.1-0.1,0.2-0.1,0.4c-0.1,0.1-0.1,0.3-0.2,0.4c0,0.1-0.1,0.2-0.1,0.4C4,49,4,49.1,3.9,49.3
	c0,0.1-0.1,0.2-0.1,0.4c0,0.1-0.1,0.3-0.1,0.4c0,0.1-0.1,0.3-0.1,0.4c0,0.1-0.1,0.3-0.1,0.4c0,0.1-0.1,0.3-0.1,0.4
	c0,0.1-0.1,0.3-0.1,0.4c0,0.1-0.1,0.3-0.1,0.4c0,0.1-0.1,0.3-0.1,0.4c0,0.1-0.1,0.3-0.1,0.4c0,0.1-0.1,0.3-0.1,0.4
	c0,0.1-0.1,0.3-0.1,0.4c0,0.1-0.1,0.3-0.1,0.4c0,0.1-0.1,0.3-0.1,0.4c0,0.1-0.1,0.3-0.1,0.4c0,0.1-0.1,0.3-0.1,0.4
	c0,0.1-0.1,0.3-0.1,0.4c0,0.1,0,0.3-0.1,0.4c0,0.1,0,0.2-0.1,0.3C4.1,63.1,7.8,69.1,12.7,74C14.7,76,17,77.8,19.4,79.4"/>
</svg>
