<?xml version="1.0" encoding="utf-8"?>
<!-- Generator: Adobe Illustrator 21.1.0, SVG Export Plug-In . SVG Version: 6.00 Build 0)  -->
<svg version="1.1" xmlns="http://www.w3.org/2000/svg" xmlns:xlink="http://www.w3.org/1999/xlink" x="0px" y="0px"
	 viewBox="0 0 170.1 184.2" style="enable-background:new 0 0 170.1 184.2;" xml:space="preserve">
<style type="text/css">
	.st0{display:none;}
	.st1{display:inline;fill:#0F0C0F;}
	.st2{fill:#FFFFFF;}
</style>
<g id="Background" class="st0">
	<rect class="st1" width="170.1" height="184.2"/>
</g>
<g id="Layer_1">
	<g>
		<g>
			<path class="st2" d="M40.4,143.8c-0.4,0.3-0.8,0.5-1.3,0.8c-0.5,0.3-1.1,0.5-1.8,0.8s-1.4,0.4-2.2,0.6c-0.8,0.2-1.8,0.2-2.8,0.2
				c-1.6,0-3.2-0.3-4.6-0.8c-1.4-0.5-2.7-1.4-3.8-2.4c-1.1-1.1-1.9-2.4-2.6-4c-0.6-1.6-0.9-3.4-0.9-5.4c0-2,0.3-3.9,0.9-5.5
				c0.6-1.6,1.5-2.9,2.5-4c1.1-1.1,2.4-1.9,3.8-2.5c1.5-0.6,3.1-0.8,4.8-0.8c1.4,0,2.7,0.1,3.7,0.4c1,0.3,1.8,0.6,2.5,1
				c0.6,0.4,1.1,0.8,1.4,1.3c0.3,0.5,0.4,1,0.4,1.4c0,0.6-0.2,1.2-0.6,1.8c-0.4,0.5-0.8,1-1.1,1.2c-0.5-0.5-1.3-1.1-2.3-1.6
				c-1-0.5-2.2-0.7-3.7-0.7c-1,0-1.9,0.2-2.8,0.5c-0.9,0.3-1.6,0.8-2.2,1.5c-0.6,0.7-1.1,1.5-1.5,2.4c-0.4,1-0.5,2.1-0.5,3.5
				c0,1.4,0.2,2.6,0.6,3.6c0.4,1,0.9,1.8,1.6,2.4c0.7,0.6,1.4,1.1,2.3,1.4c0.9,0.3,1.8,0.5,2.9,0.5c1.5,0,2.6-0.2,3.5-0.6
				c0.9-0.4,1.5-0.8,1.8-1L40.4,143.8z"/>
			<path class="st2" d="M48.2,110.6c0.8,0,1.6,0.3,2.1,1c0.6,0.6,0.9,1.4,0.9,2.4c0,0.9-0.3,1.7-0.9,2.4c-0.6,0.6-1.3,1-2.1,1
				c-0.8,0-1.6-0.3-2.1-1c-0.6-0.6-0.9-1.4-0.9-2.4c0-0.9,0.3-1.7,0.9-2.4C46.6,110.9,47.4,110.6,48.2,110.6z M45.7,124
				c0-0.9,0.2-1.5,0.7-1.9c0.5-0.4,1.1-0.6,2-0.6c0.5,0,1,0.1,1.4,0.2c0.4,0.1,0.7,0.2,0.9,0.3v23.6h-5V124z"/>
			<path class="st2" d="M56.1,131c0-1.6,0.3-3,0.8-4.3c0.5-1.3,1.3-2.3,2.2-3.2c0.9-0.9,2.1-1.6,3.4-2c1.3-0.5,2.7-0.7,4.3-0.7
				c1.5,0,3,0.2,4.3,0.7s2.4,1.1,3.4,2c0.9,0.9,1.7,2,2.2,3.2c0.5,1.3,0.8,2.7,0.8,4.3v14.5h-5v-13.2c0-2.2-0.5-3.8-1.4-5
				c-1-1.1-2.4-1.7-4.3-1.7c-1.9,0-3.3,0.6-4.3,1.7c-1,1.1-1.4,2.8-1.4,5v13.2h-5V131z"/>
			<path class="st2" d="M82.5,124c0-0.9,0.2-1.5,0.7-1.9c0.5-0.4,1.1-0.6,2-0.6c0.5,0,1,0.1,1.4,0.2c0.4,0.1,0.7,0.2,0.9,0.3v12.6
				c0,2.2,0.5,3.8,1.4,5s2.4,1.7,4.3,1.7c1.9,0,3.4-0.6,4.3-1.7s1.4-2.8,1.4-5V124c0-0.9,0.2-1.5,0.7-1.9c0.5-0.4,1.1-0.6,1.9-0.6
				c0.6,0,1.1,0.1,1.5,0.2c0.4,0.1,0.7,0.2,0.9,0.3v13.8c0,1.6-0.3,3.1-0.8,4.4s-1.2,2.4-2.2,3.3c-1,0.9-2.1,1.6-3.4,2
				c-1.3,0.5-2.8,0.7-4.3,0.7c-1.6,0-3-0.2-4.3-0.7c-1.3-0.5-2.4-1.1-3.4-2c-0.9-0.9-1.7-2-2.2-3.3s-0.8-2.8-0.8-4.4V124z"/>
			<path class="st2" d="M109.1,130c0-2.9,0.8-5.2,2.5-6.8c1.7-1.6,3.9-2.4,6.9-2.4c1.8,0,3.3,0.3,4.5,0.8c1.2,0.6,1.7,1.4,1.7,2.6
				c0,0.5-0.1,1.1-0.4,1.6c-0.3,0.5-0.5,0.8-0.7,1c-0.5-0.3-1.1-0.5-1.8-0.7c-0.7-0.2-1.6-0.3-2.5-0.3c-3.4,0-5.1,2-5.1,6v13.9h-5
				V130z"/>
			<path class="st2" d="M127.3,124c0-0.9,0.2-1.5,0.7-1.9c0.5-0.4,1.1-0.6,2-0.6c0.5,0,1,0.1,1.4,0.2c0.4,0.1,0.7,0.2,0.9,0.3v12.6
				c0,2.2,0.5,3.8,1.4,5s2.4,1.7,4.3,1.7c1.9,0,3.4-0.6,4.3-1.7s1.4-2.8,1.4-5V124c0-0.9,0.2-1.5,0.7-1.9c0.5-0.4,1.1-0.6,1.9-0.6
				c0.6,0,1.1,0.1,1.5,0.2c0.4,0.1,0.7,0.2,0.9,0.3v13.8c0,1.6-0.3,3.1-0.8,4.4c-0.5,1.3-1.2,2.4-2.2,3.3c-1,0.9-2.1,1.6-3.4,2
				c-1.3,0.5-2.8,0.7-4.3,0.7c-1.6,0-3-0.2-4.3-0.7c-1.3-0.5-2.4-1.1-3.4-2s-1.7-2-2.2-3.3s-0.8-2.8-0.8-4.4V124z"/>
		</g>
	</g>
	<g>
		<g>
			<path class="st2" d="M82.8,33.4l-16.3,6.8c-9.5,4.9-19,13.4-22.9,28c0,0-3.8-13.1,3.8-28.3C47.4,39.9,62.3,28,82.8,33.4z"/>
		</g>
		<g>
			<path class="st2" d="M102.2,38.8L86,32.1c-9.5-3.2-21.4-4.5-36,3.3c0,0,7.5-12.2,22.8-17C72.8,18.5,91.8,20.5,102.2,38.8z"/>
		</g>
		<g>
			<path class="st2" d="M112.2,56.5l-6.7-16.4c-5.2-9.3-13-18.8-28.2-22.9c0,0,13.5-3.5,28.4,3.8C105.6,21,117.7,33.7,112.2,56.5z"
				/>
		</g>
		<g>
			<path class="st2" d="M105,72.3c0,0,5.8-4.2,8.7-12.6c2.5-7.4,4.3-23.8-3.8-36c0,0,11.8,5.7,17.3,22.8c-0.8,3.7-1.3,10.3-8.5,19.7
				C115.8,69.8,111.3,74.5,105,72.3z"/>
		</g>
		<g>
			<path class="st2" d="M128.4,50.8c0,0-2.2,11.6-12.5,21.2c0,0,0.5,13.1-5.7,23.5C110.1,95.6,134,81,128.4,50.8z"/>
		</g>
		<g>
			<path class="st2" d="M65,43.3c0,0-17.1,9-20.3,29.5c0,0,3.8,14.2,17.1,22.9c0,0-10.2-15.8-3.5-36L65,43.3z"/>
		</g>
		<g>
			<path class="st2" d="M58.8,66.7c0,0-3.4,17.8,7.4,31.5c0,0,19.1,11,39.9-0.2c0,0,7.5-10.1,7.6-24.5c0,0-1.5,0.8-2.6,1.1
				c0,0-3.1,7.1-8.2,4.2c-2.8-1.6-7.5-2.8-16.9-2.8c0,0-12.4-0.2-16.8,2.6C63,82.3,58.8,72,58.8,66.7z"/>
		</g>
	</g>
</g>
</svg>
