<?xml version="1.0" encoding="utf-8"?>
<!-- Generator: Adobe Illustrator 21.1.0, SVG Export Plug-In . SVG Version: 6.00 Build 0)  -->
<svg version="1.1" id="Layer_1" xmlns="http://www.w3.org/2000/svg" xmlns:xlink="http://www.w3.org/1999/xlink" x="0px" y="0px"
	 viewBox="0 0 87 87" style="enable-background:new 0 0 87 87;" xml:space="preserve">
<style type="text/css">
	.st0{fill:#FFFFFF;}
</style>
<desc>Created with Sketch.</desc>
<g>
	<g>
		<path class="st0" d="M40.4,17.2L24.3,24C14.8,28.8,5.4,37.2,1.5,51.7c0,0-3.8-13,3.8-28.1C5.3,23.7,20.1,11.8,40.4,17.2z"/>
	</g>
	<g>
		<path class="st0" d="M59.7,22.6l-16.1-6.6c-9.5-3.1-21.2-4.5-35.7,3.3c0,0,7.4-12.1,22.6-16.9C30.5,2.4,49.4,4.4,59.7,22.6z"/>
	</g>
	<g>
		<path class="st0" d="M69.7,40.1L63,23.9C57.8,14.6,50.1,5.3,35,1.1c0,0,13.4-3.5,28.2,3.8C63.1,5,75.2,17.5,69.7,40.1z"/>
	</g>
	<g>
		<path class="st0" d="M62.5,55.8c0,0,5.7-4.1,8.6-12.5c2.5-7.3,4.3-23.6-3.8-35.7c0,0,11.7,5.6,17.2,22.6
			c-0.8,3.7-1.3,10.2-8.4,19.5C73.2,53.3,68.7,58,62.5,55.8z"/>
	</g>
	<g>
		<path class="st0" d="M85.7,34.5c0,0-2.2,11.5-12.4,21.1c0,0,0.5,13-5.6,23.4C67.6,78.9,91.3,64.5,85.7,34.5z"/>
	</g>
	<g>
		<path class="st0" d="M22.8,27.1c0,0-16.9,8.9-20.1,29.2c0,0,3.8,14.1,17,22.7c0,0-10.1-15.7-3.5-35.7L22.8,27.1z"/>
	</g>
	<g>
		<path class="st0" d="M16.7,50.3c0,0-3.4,17.7,7.3,31.2c0,0,18.9,10.9,39.6-0.2c0,0,7.5-10,7.6-24.3c0,0-1.4,0.8-2.6,1.1
			c0,0-3.1,7-8.1,4.1c-2.8-1.6-7.5-2.7-16.8-2.8c0,0-12.3-0.2-16.6,2.6C20.8,65.8,16.7,55.5,16.7,50.3z"/>
	</g>
</g>
</svg>
