<?xml version="1.0" encoding="utf-8"?>
<!-- Generator: Adobe Illustrator 21.0.2, SVG Export Plug-In . SVG Version: 6.00 Build 0)  -->
<svg version="1.1" id="Layer_1" xmlns="http://www.w3.org/2000/svg" xmlns:xlink="http://www.w3.org/1999/xlink" x="0px" y="0px"
	 viewBox="0 0 100 97.3" style="enable-background:new 0 0 100 97.3;" xml:space="preserve">
<style type="text/css">
	.st0{fill:#CCCCCC;}
</style>
<title>Artboard 30</title>
<path class="st0" d="M46.4,49.6h30.2c2.9,0,5.2-2.3,5.2-5.2l0.1-19c0-2.5-1.8-4.7-4.3-5.1v-3.7c0-8.8-6.9-16.1-15.7-16.5h-0.4
	c-4.2,0-8.3,1.6-11.4,4.6c-3.1,3-4.9,7.2-4.9,11.6v0.3l0,0v3.7c-2.3,0.6-4,2.7-4,5.1l-0.1,19C41.2,47.2,43.5,49.5,46.4,49.6
	C46.4,49.6,46.4,49.6,46.4,49.6z M61.5,39.3c-2.7,0-4.9-2.2-4.9-4.9s2.2-4.9,4.9-4.9c2.7,0,4.9,2.2,4.9,4.9S64.2,39.3,61.5,39.3
	L61.5,39.3z M54.4,16.2c0-2,0.9-3.9,2.4-5.3c1.3-1.2,3-1.8,4.7-1.8c0.3,0,0.6,0,0.8,0c3.6,0.5,6.3,3.6,6.2,7.3V20H54.4V16.2z
	 M22.5,97.3L1,76.3L16.4,61c6.4-6.4,15.9-8.5,24.4-5.5l3.4,1.2H65c3.6,0,6.6,2.9,6.6,6.6c0,0.1,0,0.1,0,0.2
	c-0.2,3.6-3.2,6.4-6.8,6.4H52.2c-1.4,0-2.5,1.1-2.5,2.6c0,1.4,1.1,2.5,2.5,2.5h12.5c6.4,0,11.6-5,11.9-11.3c0-0.1,0-0.1,0-0.2
	L86.9,52c1.4-1.5,3.3-2.4,5.4-2.4c1.5,0,3,0.5,4.2,1.5c2.9,2.4,3.3,6.7,0.9,9.6c0,0-0.1,0.1-0.1,0.1L75.6,85.6
	c-3.1,3.5-7.5,5.6-12.2,5.6H28.6L22.5,97.3z"/>
</svg>
